NotoAmalgamated-LightItalic.ufo
<glyph name="quotedbl" format="2">
  <advance width="310"/>
  <unicode hex="0022"/>
  <outline>
    <contour>
      <point x="248" y="456" type="line"/>
      <point x="268" y="456" type="line"/>
      <point x="327" y="714" type="line"/>
      <point x="299" y="714" type="line"/>
    </contour>
    <contour>
      <point x="110" y="456" type="line"/>
      <point x="130" y="456" type="line"/>
      <point x="189" y="714" type="line"/>
      <point x="161" y="714" type="line"/>
    </contour>
  </outline>
</glyph>
<glyph name="numbersign" format="2">
  <advance width="614"/>
  <unicode hex="0023"/>
  <outline>
    <contour>
      <point x="107" y="0" type="line"/>
      <point x="132" y="0" type="line"/>
      <point x="198" y="227" type="line"/>
      <point x="387" y="227" type="line"/>
      <point x="319" y="0" type="line"/>
      <point x="345" y="0" type="line"/>
      <point x="413" y="227" type="line"/>
      <point x="560" y="227" type="line"/>
      <point x="562" y="251" type="line"/>
      <point x="419" y="251" type="line"/>
      <point x="478" y="462" type="line"/>
      <point x="622" y="462" type="line"/>
      <point x="624" y="486" type="line"/>
      <point x="484" y="486" type="line"/>
      <point x="550" y="714" type="line"/>
      <point x="525" y="714" type="line"/>
      <point x="459" y="486" type="line"/>
      <point x="273" y="486" type="line"/>
      <point x="338" y="714" type="line"/>
      <point x="313" y="714" type="line"/>
      <point x="247" y="486" type="line"/>
      <point x="99" y="486" type="line"/>
      <point x="97" y="462" type="line"/>
      <point x="240" y="462" type="line"/>
      <point x="178" y="251" type="line"/>
      <point x="37" y="251" type="line"/>
      <point x="35" y="227" type="line"/>
      <point x="172" y="227" type="line"/>
    </contour>
    <contour>
      <point x="204" y="251" type="line"/>
      <point x="266" y="462" type="line"/>
      <point x="452" y="462" type="line"/>
      <point x="393" y="251" type="line"/>
    </contour>
  </outline>
</glyph>
<glyph name="dollar" format="2">
  <advance width="550"/>
  <unicode hex="0024"/>
  <outline>
    <contour>
      <point x="215" y="50" type="curve"/>
      <point x="191" y="-58" type="line"/>
      <point x="215" y="-58" type="line"/>
      <point x="239" y="50" type="line"/>
      <point x="352" y="55"/>
      <point x="453" y="115"/>
      <point x="453" y="223" type="curve" smooth="yes"/>
      <point x="453" y="308"/>
      <point x="393" y="334"/>
      <point x="307" y="370" type="curve"/>
      <point x="367" y="650" type="line"/>
      <point x="411" y="646"/>
      <point x="454" y="639"/>
      <point x="502" y="617" type="curve"/>
      <point x="513" y="641" type="line"/>
      <point x="470" y="661"/>
      <point x="421" y="671"/>
      <point x="372" y="675" type="curve"/>
      <point x="389" y="758" type="line"/>
      <point x="365" y="758" type="line"/>
      <point x="348" y="675" type="line"/>
      <point x="236" y="670"/>
      <point x="136" y="616"/>
      <point x="136" y="505" type="curve" smooth="yes"/>
      <point x="136" y="420"/>
      <point x="196" y="385"/>
      <point x="280" y="353" type="curve"/>
      <point x="221" y="75" type="line"/>
      <point x="149" y="76"/>
      <point x="90" y="90"/>
      <point x="51" y="107" type="curve"/>
      <point x="51" y="79" type="line"/>
      <point x="85" y="65"/>
      <point x="146" y="50"/>
    </contour>
    <contour>
      <point x="245" y="75" type="curve"/>
      <point x="301" y="344" type="line"/>
      <point x="378" y="312"/>
      <point x="427" y="289"/>
      <point x="427" y="221" type="curve" smooth="yes"/>
      <point x="427" y="131"/>
      <point x="341" y="80"/>
    </contour>
    <contour>
      <point x="343" y="650" type="curve"/>
      <point x="285" y="378" type="line"/>
      <point x="218" y="407"/>
      <point x="164" y="431"/>
      <point x="164" y="507" type="curve" smooth="yes"/>
      <point x="164" y="594"/>
      <point x="243" y="645"/>
    </contour>
  </outline>
</glyph>
<glyph name="dollar.serif" format="2">
  <advance width="511"/>
  <unicode hex="0024"/>
  <outline>
    <contour>
      <point x="202" y="39" type="curve"/>
      <point x="177" y="-79" type="line"/>
      <point x="205" y="-79" type="line"/>
      <point x="230" y="38" type="line"/>
      <point x="351" y="40"/>
      <point x="428" y="101"/>
      <point x="428" y="200" type="curve" smooth="yes"/>
      <point x="428" y="278"/>
      <point x="398" y="320"/>
      <point x="302" y="370" type="curve" smooth="yes"/>
      <point x="300" y="371" type="line"/>
      <point x="361" y="654" type="line"/>
      <point x="440" y="647"/>
      <point x="456" y="602"/>
      <point x="455" y="550" type="curve"/>
      <point x="472" y="550"/>
      <point x="481" y="559"/>
      <point x="481" y="576" type="curve" smooth="yes"/>
      <point x="481" y="620"/>
      <point x="453" y="670"/>
      <point x="366" y="679" type="curve"/>
      <point x="383" y="760" type="line"/>
      <point x="355" y="760" type="line"/>
      <point x="338" y="680" type="line"/>
      <point x="226" y="680"/>
      <point x="158" y="607"/>
      <point x="158" y="512" type="curve" smooth="yes"/>
      <point x="158" y="426"/>
      <point x="199" y="392"/>
      <point x="269" y="357" type="curve"/>
      <point x="207" y="63" type="line"/>
      <point x="106" y="69"/>
      <point x="70" y="127"/>
      <point x="70" y="236" type="curve"/>
      <point x="53" y="235"/>
      <point x="44" y="223"/>
      <point x="44" y="206" type="curve" smooth="yes"/>
      <point x="44" y="119"/>
      <point x="91" y="47"/>
    </contour>
    <contour>
      <point x="235" y="63" type="curve"/>
      <point x="295" y="344" type="line"/>
      <point x="381" y="298"/>
      <point x="400" y="265"/>
      <point x="400" y="200" type="curve" smooth="yes"/>
      <point x="400" y="113"/>
      <point x="337" y="67"/>
    </contour>
    <contour>
      <point x="333" y="655" type="curve"/>
      <point x="275" y="384" type="line"/>
      <point x="213" y="417"/>
      <point x="186" y="444"/>
      <point x="186" y="512" type="curve" smooth="yes"/>
      <point x="186" y="609"/>
      <point x="256" y="653"/>
    </contour>
  </outline>
</glyph>
<glyph name="percent" format="2">
  <advance width="763"/>
  <unicode hex="0025"/>
  <outline>
    <contour>
      <point x="120" y="0" type="line"/>
      <point x="150" y="0" type="line"/>
      <point x="677" y="714" type="line"/>
      <point x="647" y="714" type="line"/>
    </contour>
    <contour>
      <point x="188" y="276" type="curve" smooth="yes"/>
      <point x="322" y="276"/>
      <point x="369" y="487"/>
      <point x="369" y="595" type="curve" smooth="yes"/>
      <point x="369" y="682"/>
      <point x="334" y="724"/>
      <point x="268" y="724" type="curve" smooth="yes"/>
      <point x="136" y="724"/>
      <point x="86" y="522"/>
      <point x="86" y="408" type="curve" smooth="yes"/>
      <point x="86" y="318"/>
      <point x="124" y="276"/>
    </contour>
    <contour>
      <point x="189" y="301" type="curve" smooth="yes"/>
      <point x="142" y="301"/>
      <point x="113" y="335"/>
      <point x="113" y="410" type="curve" smooth="yes"/>
      <point x="113" y="511"/>
      <point x="156" y="699"/>
      <point x="267" y="699" type="curve" smooth="yes"/>
      <point x="317" y="699"/>
      <point x="342" y="666"/>
      <point x="342" y="593" type="curve" smooth="yes"/>
      <point x="342" y="492"/>
      <point x="301" y="301"/>
    </contour>
    <contour>
      <point x="527" y="-12" type="curve" smooth="yes"/>
      <point x="661" y="-12"/>
      <point x="708" y="199"/>
      <point x="708" y="307" type="curve" smooth="yes"/>
      <point x="708" y="394"/>
      <point x="673" y="436"/>
      <point x="607" y="436" type="curve" smooth="yes"/>
      <point x="475" y="436"/>
      <point x="425" y="234"/>
      <point x="425" y="120" type="curve" smooth="yes"/>
      <point x="425" y="30"/>
      <point x="463" y="-12"/>
    </contour>
    <contour>
      <point x="528" y="13" type="curve" smooth="yes"/>
      <point x="481" y="13"/>
      <point x="452" y="47"/>
      <point x="452" y="122" type="curve" smooth="yes"/>
      <point x="452" y="223"/>
      <point x="495" y="411"/>
      <point x="606" y="411" type="curve" smooth="yes"/>
      <point x="656" y="411"/>
      <point x="681" y="378"/>
      <point x="681" y="305" type="curve" smooth="yes"/>
      <point x="681" y="204"/>
      <point x="640" y="13"/>
    </contour>
  </outline>
</glyph>
<glyph name="ampersand" format="2">
  <advance width="682"/>
  <unicode hex="0026"/>
  <outline>
    <contour>
      <point x="223" y="-10" type="curve" smooth="yes"/>
      <point x="336" y="-10"/>
      <point x="409" y="38"/>
      <point x="482" y="105" type="curve"/>
      <point x="554" y="0" type="line"/>
      <point x="585" y="0" type="line"/>
      <point x="500" y="121" type="line"/>
      <point x="555" y="179"/>
      <point x="604" y="246"/>
      <point x="640" y="328" type="curve"/>
      <point x="613" y="328" type="line"/>
      <point x="582" y="257"/>
      <point x="534" y="188"/>
      <point x="485" y="140" type="curve"/>
      <point x="309" y="386" type="line"/>
      <point x="428" y="441"/>
      <point x="518" y="482"/>
      <point x="518" y="597" type="curve" smooth="yes"/>
      <point x="518" y="670"/>
      <point x="460" y="725"/>
      <point x="383" y="725" type="curve" smooth="yes"/>
      <point x="276" y="725"/>
      <point x="204" y="652"/>
      <point x="204" y="550" type="curve" smooth="yes"/>
      <point x="204" y="498"/>
      <point x="228" y="452"/>
      <point x="271" y="395" type="curve"/>
      <point x="141" y="337"/>
      <point x="47" y="280"/>
      <point x="47" y="146" type="curve" smooth="yes"/>
      <point x="47" y="48"/>
      <point x="122" y="-10"/>
    </contour>
    <contour>
      <point x="226" y="15" type="curve" smooth="yes"/>
      <point x="145" y="15"/>
      <point x="74" y="62"/>
      <point x="74" y="148" type="curve" smooth="yes"/>
      <point x="74" y="265"/>
      <point x="158" y="321"/>
      <point x="285" y="377" type="curve"/>
      <point x="468" y="123" type="line"/>
      <point x="396" y="57"/>
      <point x="330" y="15"/>
    </contour>
    <contour>
      <point x="294" y="404" type="curve"/>
      <point x="253" y="459"/>
      <point x="231" y="502"/>
      <point x="231" y="551" type="curve" smooth="yes"/>
      <point x="231" y="645"/>
      <point x="298" y="700"/>
      <point x="379" y="700" type="curve" smooth="yes"/>
      <point x="440" y="700"/>
      <point x="491" y="658"/>
      <point x="491" y="597" type="curve" smooth="yes"/>
      <point x="491" y="486"/>
      <point x="377" y="440"/>
    </contour>
  </outline>
</glyph>
<glyph name="ampersand.serif" format="2">
  <advance width="667"/>
  <unicode hex="0026"/>
  <outline>
    <contour>
      <point x="200" y="-10" type="curve" smooth="yes"/>
      <point x="298" y="-10"/>
      <point x="371" y="39"/>
      <point x="423" y="104" type="curve"/>
      <point x="496" y="0" type="line"/>
      <point x="606" y="0" type="line"/>
      <point x="611" y="20" type="line"/>
      <point x="569" y="20" type="line" smooth="yes"/>
      <point x="520" y="20"/>
      <point x="515" y="23"/>
      <point x="485" y="64" type="curve" smooth="yes"/>
      <point x="439" y="127" type="line"/>
      <point x="476" y="187"/>
      <point x="510" y="263"/>
      <point x="526" y="317" type="curve" smooth="yes"/>
      <point x="545" y="382"/>
      <point x="557" y="387"/>
      <point x="602" y="387" type="curve" smooth="yes"/>
      <point x="664" y="387" type="line"/>
      <point x="669" y="407" type="line"/>
      <point x="519" y="407" type="line"/>
      <point x="508" y="355" type="line" smooth="yes"/>
      <point x="494" y="289"/>
      <point x="463" y="216"/>
      <point x="424" y="149" type="curve"/>
      <point x="252" y="390" type="line"/>
      <point x="434" y="457"/>
      <point x="495" y="495"/>
      <point x="495" y="596" type="curve" smooth="yes"/>
      <point x="495" y="665"/>
      <point x="448" y="724"/>
      <point x="348" y="724" type="curve" smooth="yes"/>
      <point x="216" y="724"/>
      <point x="157" y="652"/>
      <point x="157" y="554" type="curve" smooth="yes"/>
      <point x="157" y="507"/>
      <point x="180" y="454"/>
      <point x="213" y="402" type="curve"/>
      <point x="103" y="368"/>
      <point x="7" y="304"/>
      <point x="7" y="175" type="curve" smooth="yes"/>
      <point x="7" y="79"/>
      <point x="70" y="-10"/>
    </contour>
    <contour>
      <point x="201" y="15" type="curve" smooth="yes"/>
      <point x="93" y="15"/>
      <point x="35" y="94"/>
      <point x="35" y="175" type="curve" smooth="yes"/>
      <point x="35" y="289"/>
      <point x="99" y="339"/>
      <point x="227" y="381" type="curve"/>
      <point x="409" y="125" type="line"/>
      <point x="360" y="62"/>
      <point x="293" y="15"/>
    </contour>
    <contour>
      <point x="238" y="411" type="curve"/>
      <point x="198" y="472"/>
      <point x="185" y="519"/>
      <point x="185" y="554" type="curve" smooth="yes"/>
      <point x="185" y="636"/>
      <point x="230" y="699"/>
      <point x="346" y="699" type="curve" smooth="yes"/>
      <point x="425" y="699"/>
      <point x="467" y="656"/>
      <point x="467" y="595" type="curve" smooth="yes"/>
      <point x="467" y="507"/>
      <point x="406" y="469"/>
    </contour>
  </outline>
</glyph>
<glyph name="parenleft" format="2">
  <advance width="242"/>
  <unicode hex="0028"/>
  <outline>
    <contour>
      <point x="97" y="-158" type="curve"/>
      <point x="126" y="-158" type="line"/>
      <point x="81" y="-79"/>
      <point x="58" y="15"/>
      <point x="58" y="118" type="curve" smooth="yes"/>
      <point x="58" y="340"/>
      <point x="152" y="561"/>
      <point x="311" y="714" type="curve"/>
      <point x="277" y="714" type="line"/>
      <point x="136" y="577"/>
      <point x="32" y="361"/>
      <point x="32" y="118" type="curve" smooth="yes"/>
      <point x="32" y="11"/>
      <point x="55" y="-83"/>
    </contour>
  </outline>
</glyph>
<glyph name="parenright" format="2">
  <advance width="242"/>
  <unicode hex="0029"/>
  <outline>
    <contour>
      <point x="-63" y="-158" type="curve"/>
      <point x="-29" y="-158" type="line"/>
      <point x="112" y="-21"/>
      <point x="216" y="195"/>
      <point x="216" y="438" type="curve" smooth="yes"/>
      <point x="216" y="545"/>
      <point x="193" y="639"/>
      <point x="151" y="714" type="curve"/>
      <point x="122" y="714" type="line"/>
      <point x="167" y="635"/>
      <point x="190" y="541"/>
      <point x="190" y="438" type="curve" smooth="yes"/>
      <point x="190" y="216"/>
      <point x="96" y="-5"/>
    </contour>
  </outline>
</glyph>
<glyph name="asterisk" format="2">
  <advance width="531"/>
  <unicode hex="002A"/>
  <outline>
    <contour>
      <point x="396" y="338" type="line"/>
      <point x="422" y="349" type="line"/>
      <point x="334" y="534" type="line"/>
      <point x="534" y="549" type="line"/>
      <point x="535" y="577" type="line"/>
      <point x="331" y="550" type="line"/>
      <point x="380" y="751" type="line"/>
      <point x="353" y="757" type="line"/>
      <point x="315" y="554" type="line"/>
      <point x="141" y="662" type="line"/>
      <point x="127" y="637" type="line"/>
      <point x="306" y="540" type="line"/>
      <point x="150" y="407" type="line"/>
      <point x="169" y="387" type="line"/>
      <point x="318" y="528" type="line"/>
    </contour>
  </outline>
</glyph>
<glyph name="plus" format="2">
  <advance width="570"/>
  <unicode hex="002B"/>
  <outline>
    <contour>
      <point x="317" y="365" type="line"/>
      <point x="317" y="583" type="line"/>
      <point x="293" y="583" type="line"/>
      <point x="293" y="365" type="line"/>
      <point x="75" y="365" type="line"/>
      <point x="75" y="341" type="line"/>
      <point x="293" y="341" type="line"/>
      <point x="293" y="123" type="line"/>
      <point x="317" y="123" type="line"/>
      <point x="317" y="341" type="line"/>
      <point x="535" y="341" type="line"/>
      <point x="535" y="365" type="line"/>
    </contour>
  </outline>
</glyph>
<glyph name="comma" format="2">
  <advance width="183"/>
  <unicode hex="002C"/>
  <outline>
    <contour>
      <point x="-45" y="-129" type="curve"/>
      <point x="-22" y="-129" type="line"/>
      <point x="20" y="-60"/>
      <point x="60" y="30"/>
      <point x="88" y="104" type="curve"/>
      <point x="87" y="116" type="line"/>
      <point x="60" y="116" type="line"/>
      <point x="34" y="40"/>
      <point x="4" y="-32"/>
    </contour>
  </outline>
</glyph>
<glyph name="period" format="2">
  <advance width="210"/>
  <unicode hex="002E"/>
  <outline>
    <contour>
      <point x="55" y="-8" type="curve" smooth="yes"/>
      <point x="74" y="-8"/>
      <point x="84" y="14"/>
      <point x="84" y="32" type="curve" smooth="yes"/>
      <point x="84" y="43"/>
      <point x="78" y="54"/>
      <point x="62" y="54" type="curve" smooth="yes"/>
      <point x="42" y="54"/>
      <point x="32" y="32"/>
      <point x="32" y="14" type="curve" smooth="yes"/>
      <point x="32" y="0"/>
      <point x="41" y="-8"/>
    </contour>
  </outline>
</glyph>
<glyph name="slash" format="2">
  <advance width="306"/>
  <unicode hex="002F"/>
  <outline>
    <contour>
      <point x="-43" y="0" type="line"/>
      <point x="-14" y="0" type="line"/>
      <point x="392" y="714" type="line"/>
      <point x="363" y="714" type="line"/>
    </contour>
  </outline>
</glyph>
<glyph name="zero" format="2">
  <advance width="550"/>
  <unicode hex="0030"/>
  <outline>
    <contour>
      <point x="236" y="-10" type="curve" smooth="yes"/>
      <point x="430" y="-10"/>
      <point x="528" y="273"/>
      <point x="528" y="522" type="curve" smooth="yes"/>
      <point x="528" y="644"/>
      <point x="473" y="725"/>
      <point x="359" y="725" type="curve" smooth="yes"/>
      <point x="151" y="725"/>
      <point x="66" y="424"/>
      <point x="66" y="203" type="curve" smooth="yes"/>
      <point x="66" y="62"/>
      <point x="134" y="-10"/>
    </contour>
    <contour>
      <point x="237" y="15" type="curve" smooth="yes"/>
      <point x="148" y="15"/>
      <point x="93" y="76"/>
      <point x="93" y="204" type="curve" smooth="yes"/>
      <point x="93" y="406"/>
      <point x="168" y="700"/>
      <point x="358" y="700" type="curve" smooth="yes"/>
      <point x="457" y="700"/>
      <point x="501" y="632"/>
      <point x="501" y="520" type="curve" smooth="yes"/>
      <point x="501" y="291"/>
      <point x="410" y="15"/>
    </contour>
  </outline>
</glyph>
<glyph name="one" format="2">
  <advance width="550"/>
  <unicode hex="0031"/>
  <outline>
    <contour>
      <point x="348" y="563" type="curve" smooth="yes"/>
      <point x="229" y="0" type="line"/>
      <point x="256" y="0" type="line"/>
      <point x="407" y="714" type="line"/>
      <point x="382" y="714" type="line"/>
      <point x="166" y="571" type="line"/>
      <point x="179" y="551" type="line"/>
      <point x="315" y="641" type="line" smooth="yes"/>
      <point x="343" y="660"/>
      <point x="358" y="671"/>
      <point x="376" y="685" type="curve"/>
      <point x="369" y="658"/>
      <point x="360" y="620"/>
    </contour>
  </outline>
</glyph>
<glyph name="two" format="2">
  <advance width="550"/>
  <unicode hex="0032"/>
  <outline>
    <contour>
      <point x="10" y="0" type="line"/>
      <point x="420" y="0" type="line"/>
      <point x="425" y="25" type="line"/>
      <point x="52" y="25" type="line"/>
      <point x="52" y="26" type="line"/>
      <point x="297" y="246" type="line" smooth="yes"/>
      <point x="409" y="346"/>
      <point x="507" y="443"/>
      <point x="507" y="579" type="curve" smooth="yes"/>
      <point x="507" y="664"/>
      <point x="446" y="724"/>
      <point x="352" y="724" type="curve" smooth="yes"/>
      <point x="300" y="724"/>
      <point x="233" y="706"/>
      <point x="165" y="655" type="curve"/>
      <point x="178" y="635" type="line"/>
      <point x="239" y="678"/>
      <point x="297" y="699"/>
      <point x="352" y="699" type="curve" smooth="yes"/>
      <point x="430" y="699"/>
      <point x="481" y="655"/>
      <point x="481" y="579" type="curve" smooth="yes"/>
      <point x="481" y="442"/>
      <point x="368" y="344"/>
      <point x="278" y="262" type="curve" smooth="yes"/>
      <point x="14" y="23" type="line"/>
    </contour>
  </outline>
</glyph>
<glyph name="three" format="2">
  <advance width="550"/>
  <unicode hex="0033"/>
  <outline>
    <contour>
      <point x="210" y="-10" type="curve" smooth="yes"/>
      <point x="368" y="-10"/>
      <point x="471" y="81"/>
      <point x="471" y="209" type="curve" smooth="yes"/>
      <point x="471" y="297"/>
      <point x="422" y="355"/>
      <point x="344" y="370" type="curve"/>
      <point x="344" y="372" type="line"/>
      <point x="438" y="389"/>
      <point x="525" y="458"/>
      <point x="525" y="574" type="curve" smooth="yes"/>
      <point x="525" y="662"/>
      <point x="458" y="724"/>
      <point x="364" y="724" type="curve" smooth="yes"/>
      <point x="281" y="724"/>
      <point x="206" y="695"/>
      <point x="141" y="650" type="curve"/>
      <point x="154" y="629" type="line"/>
      <point x="224" y="675"/>
      <point x="291" y="699"/>
      <point x="363" y="699" type="curve" smooth="yes"/>
      <point x="443" y="699"/>
      <point x="498" y="649"/>
      <point x="498" y="575" type="curve" smooth="yes"/>
      <point x="498" y="440"/>
      <point x="372" y="384"/>
      <point x="265" y="384" type="curve" smooth="yes"/>
      <point x="186" y="384" type="line"/>
      <point x="181" y="359" type="line"/>
      <point x="260" y="359" type="line" smooth="yes"/>
      <point x="371" y="359"/>
      <point x="444" y="310"/>
      <point x="444" y="209" type="curve" smooth="yes"/>
      <point x="444" y="96"/>
      <point x="354" y="15"/>
      <point x="211" y="15" type="curve" smooth="yes"/>
      <point x="134" y="15"/>
      <point x="64" y="36"/>
      <point x="22" y="61" type="curve"/>
      <point x="22" y="33" type="line"/>
      <point x="65" y="9"/>
      <point x="129" y="-10"/>
    </contour>
  </outline>
</glyph>
<glyph name="four" format="2">
  <advance width="550"/>
  <unicode hex="0034"/>
  <outline>
    <contour>
      <point x="330" y="0" type="line"/>
      <point x="356" y="0" type="line"/>
      <point x="397" y="194" type="line"/>
      <point x="523" y="194" type="line"/>
      <point x="529" y="219" type="line"/>
      <point x="402" y="219" type="line"/>
      <point x="508" y="718" type="line"/>
      <point x="477" y="718" type="line"/>
      <point x="19" y="212" type="line"/>
      <point x="15" y="194" type="line"/>
      <point x="371" y="194" type="line"/>
    </contour>
    <contour>
      <point x="57" y="219" type="line"/>
      <point x="395" y="592" type="line" smooth="yes"/>
      <point x="433" y="633"/>
      <point x="449" y="652"/>
      <point x="475" y="686" type="curve"/>
      <point x="477" y="686" type="line"/>
      <point x="464" y="633"/>
      <point x="458" y="606"/>
      <point x="441" y="524" type="curve" smooth="yes"/>
      <point x="376" y="219" type="line"/>
    </contour>
  </outline>
</glyph>
<glyph name="five" format="2">
  <advance width="550"/>
  <unicode hex="0035"/>
  <outline>
    <contour>
      <point x="206" y="-10" type="curve" smooth="yes"/>
      <point x="347" y="-10"/>
      <point x="475" y="73"/>
      <point x="475" y="247" type="curve" smooth="yes"/>
      <point x="475" y="354"/>
      <point x="398" y="427"/>
      <point x="285" y="427" type="curve" smooth="yes"/>
      <point x="226" y="427"/>
      <point x="186" y="417"/>
      <point x="154" y="408" type="curve"/>
      <point x="239" y="689" type="line"/>
      <point x="532" y="689" type="line"/>
      <point x="537" y="714" type="line"/>
      <point x="220" y="714" type="line"/>
      <point x="124" y="393" type="line"/>
      <point x="139" y="379" type="line"/>
      <point x="189" y="393"/>
      <point x="226" y="402"/>
      <point x="285" y="402" type="curve" smooth="yes"/>
      <point x="390" y="402"/>
      <point x="448" y="340"/>
      <point x="448" y="246" type="curve" smooth="yes"/>
      <point x="448" y="87"/>
      <point x="335" y="15"/>
      <point x="208" y="15" type="curve" smooth="yes"/>
      <point x="142" y="15"/>
      <point x="75" y="35"/>
      <point x="38" y="62" type="curve"/>
      <point x="38" y="32" type="line"/>
      <point x="73" y="8"/>
      <point x="137" y="-10"/>
    </contour>
  </outline>
</glyph>
<glyph name="six" format="2">
  <advance width="550"/>
  <unicode hex="0036"/>
  <outline>
    <contour>
      <point x="253" y="-10" type="curve" smooth="yes"/>
      <point x="375" y="-10"/>
      <point x="491" y="104"/>
      <point x="491" y="267" type="curve" smooth="yes"/>
      <point x="491" y="369"/>
      <point x="426" y="439"/>
      <point x="324" y="439" type="curve" smooth="yes"/>
      <point x="216" y="439"/>
      <point x="144" y="378"/>
      <point x="107" y="322" type="curve"/>
      <point x="105" y="322" type="line"/>
      <point x="170" y="604"/>
      <point x="302" y="701"/>
      <point x="448" y="701" type="curve" smooth="yes"/>
      <point x="484" y="701"/>
      <point x="516" y="695"/>
      <point x="537" y="686" type="curve"/>
      <point x="543" y="712" type="line"/>
      <point x="520" y="720"/>
      <point x="484" y="726"/>
      <point x="448" y="726" type="curve" smooth="yes"/>
      <point x="375" y="726"/>
      <point x="295" y="701"/>
      <point x="233" y="639" type="curve" smooth="yes"/>
      <point x="134" y="540"/>
      <point x="68" y="348"/>
      <point x="68" y="209" type="curve" smooth="yes"/>
      <point x="68" y="91"/>
      <point x="118" y="-10"/>
    </contour>
    <contour>
      <point x="252" y="15" type="curve" smooth="yes"/>
      <point x="125" y="15"/>
      <point x="95" y="115"/>
      <point x="95" y="197" type="curve" smooth="yes"/>
      <point x="95" y="219"/>
      <point x="98" y="241"/>
      <point x="101" y="258" type="curve" smooth="yes"/>
      <point x="115" y="327"/>
      <point x="204" y="414"/>
      <point x="321" y="414" type="curve" smooth="yes"/>
      <point x="408" y="414"/>
      <point x="464" y="361"/>
      <point x="464" y="267" type="curve" smooth="yes"/>
      <point x="464" y="143"/>
      <point x="379" y="15"/>
    </contour>
  </outline>
</glyph>
<glyph name="seven" format="2">
  <advance width="550"/>
  <unicode hex="0037"/>
  <outline>
    <contour>
      <point x="114" y="0" type="line"/>
      <point x="146" y="0" type="line"/>
      <point x="559" y="697" type="line"/>
      <point x="562" y="714" type="line"/>
      <point x="133" y="714" type="line"/>
      <point x="128" y="689" type="line"/>
      <point x="524" y="689" type="line"/>
    </contour>
  </outline>
</glyph>
<glyph name="eight" format="2">
  <advance width="550"/>
  <unicode hex="0038"/>
  <outline>
    <contour>
      <point x="238" y="-10" type="curve" smooth="yes"/>
      <point x="362" y="-10"/>
      <point x="472" y="60"/>
      <point x="472" y="190" type="curve" smooth="yes"/>
      <point x="472" y="290"/>
      <point x="408" y="333"/>
      <point x="333" y="373" type="curve"/>
      <point x="444" y="416"/>
      <point x="530" y="473"/>
      <point x="530" y="580" type="curve" smooth="yes"/>
      <point x="530" y="659"/>
      <point x="461" y="724"/>
      <point x="361" y="724" type="curve" smooth="yes"/>
      <point x="245" y="724"/>
      <point x="161" y="654"/>
      <point x="161" y="542" type="curve" smooth="yes"/>
      <point x="161" y="459"/>
      <point x="215" y="414"/>
      <point x="274" y="377" type="curve"/>
      <point x="148" y="337"/>
      <point x="47" y="285"/>
      <point x="47" y="158" type="curve" smooth="yes"/>
      <point x="47" y="58"/>
      <point x="128" y="-10"/>
    </contour>
    <contour>
      <point x="239" y="15" type="curve" smooth="yes"/>
      <point x="144" y="15"/>
      <point x="73" y="69"/>
      <point x="73" y="158" type="curve" smooth="yes"/>
      <point x="73" y="281"/>
      <point x="182" y="323"/>
      <point x="303" y="363" type="curve"/>
      <point x="386" y="316"/>
      <point x="446" y="284"/>
      <point x="446" y="190" type="curve" smooth="yes"/>
      <point x="446" y="72"/>
      <point x="347" y="15"/>
    </contour>
    <contour>
      <point x="306" y="387" type="curve"/>
      <point x="237" y="426"/>
      <point x="187" y="469"/>
      <point x="187" y="542" type="curve" smooth="yes"/>
      <point x="187" y="646"/>
      <point x="263" y="699"/>
      <point x="360" y="699" type="curve" smooth="yes"/>
      <point x="441" y="699"/>
      <point x="503" y="654"/>
      <point x="503" y="580" type="curve" smooth="yes"/>
      <point x="503" y="481"/>
      <point x="418" y="428"/>
    </contour>
  </outline>
</glyph>
<glyph name="nine" format="2">
  <advance width="550"/>
  <unicode hex="0039"/>
  <outline>
    <contour>
      <point x="165" y="-10" type="curve" smooth="yes"/>
      <point x="226" y="-10"/>
      <point x="291" y="13"/>
      <point x="348" y="65" type="curve" smooth="yes"/>
      <point x="450" y="158"/>
      <point x="523" y="363"/>
      <point x="523" y="507" type="curve" smooth="yes"/>
      <point x="523" y="629"/>
      <point x="468" y="724"/>
      <point x="342" y="724" type="curve" smooth="yes"/>
      <point x="209" y="724"/>
      <point x="100" y="604"/>
      <point x="100" y="443" type="curve" smooth="yes"/>
      <point x="100" y="347"/>
      <point x="164" y="275"/>
      <point x="269" y="275" type="curve" smooth="yes"/>
      <point x="375" y="275"/>
      <point x="447" y="333"/>
      <point x="482" y="387" type="curve"/>
      <point x="484" y="387" type="line"/>
      <point x="417" y="115"/>
      <point x="289" y="15"/>
      <point x="165" y="15" type="curve" smooth="yes"/>
      <point x="119" y="15"/>
      <point x="73" y="24"/>
      <point x="47" y="34" type="curve"/>
      <point x="47" y="6" type="line"/>
      <point x="76" y="-3"/>
      <point x="119" y="-10"/>
    </contour>
    <contour>
      <point x="270" y="300" type="curve" smooth="yes"/>
      <point x="183" y="300"/>
      <point x="127" y="355"/>
      <point x="127" y="443" type="curve" smooth="yes"/>
      <point x="127" y="573"/>
      <point x="209" y="699"/>
      <point x="342" y="699" type="curve" smooth="yes"/>
      <point x="459" y="699"/>
      <point x="496" y="607"/>
      <point x="496" y="512" type="curve" smooth="yes"/>
      <point x="496" y="490"/>
      <point x="495" y="475"/>
      <point x="491" y="458" type="curve" smooth="yes"/>
      <point x="474" y="383"/>
      <point x="387" y="300"/>
    </contour>
  </outline>
</glyph>
<glyph name="colon" format="2">
  <advance width="210"/>
  <unicode hex="003A"/>
  <outline>
    <contour>
      <point x="157" y="470" type="curve" smooth="yes"/>
      <point x="176" y="470"/>
      <point x="186" y="492"/>
      <point x="186" y="510" type="curve" smooth="yes"/>
      <point x="186" y="521"/>
      <point x="180" y="532"/>
      <point x="164" y="532" type="curve" smooth="yes"/>
      <point x="144" y="532"/>
      <point x="134" y="510"/>
      <point x="134" y="492" type="curve" smooth="yes"/>
      <point x="134" y="478"/>
      <point x="143" y="470"/>
    </contour>
    <contour>
      <point x="55" y="-8" type="curve" smooth="yes"/>
      <point x="74" y="-8"/>
      <point x="84" y="14"/>
      <point x="84" y="32" type="curve" smooth="yes"/>
      <point x="84" y="43"/>
      <point x="78" y="54"/>
      <point x="62" y="54" type="curve" smooth="yes"/>
      <point x="42" y="54"/>
      <point x="32" y="32"/>
      <point x="32" y="14" type="curve" smooth="yes"/>
      <point x="32" y="0"/>
      <point x="41" y="-8"/>
    </contour>
  </outline>
</glyph>
<glyph name="semicolon" format="2">
  <advance width="210"/>
  <unicode hex="003B"/>
  <outline>
    <contour>
      <point x="-45" y="-129" type="curve"/>
      <point x="-22" y="-129" type="line"/>
      <point x="20" y="-60"/>
      <point x="60" y="30"/>
      <point x="88" y="104" type="curve"/>
      <point x="87" y="116" type="line"/>
      <point x="60" y="116" type="line"/>
      <point x="34" y="40"/>
      <point x="4" y="-32"/>
    </contour>
    <contour>
      <point x="156" y="470" type="curve" smooth="yes"/>
      <point x="175" y="470"/>
      <point x="185" y="492"/>
      <point x="185" y="510" type="curve" smooth="yes"/>
      <point x="185" y="521"/>
      <point x="179" y="532"/>
      <point x="163" y="532" type="curve" smooth="yes"/>
      <point x="143" y="532"/>
      <point x="133" y="510"/>
      <point x="133" y="492" type="curve" smooth="yes"/>
      <point x="133" y="478"/>
      <point x="142" y="470"/>
    </contour>
  </outline>
</glyph>
<glyph name="greater" format="2">
  <advance width="570"/>
  <unicode hex="003E"/>
  <outline>
    <contour>
      <point x="76" y="164" type="line"/>
      <point x="76" y="138" type="line"/>
      <point x="534" y="353" type="line"/>
      <point x="534" y="371" type="line"/>
      <point x="76" y="586" type="line"/>
      <point x="76" y="560" type="line"/>
      <point x="499" y="362" type="line"/>
    </contour>
  </outline>
</glyph>
<glyph name="question" format="2">
  <advance width="403"/>
  <unicode hex="003F"/>
  <outline>
    <contour>
      <point x="121" y="174" type="curve"/>
      <point x="145" y="174" type="line"/>
      <point x="163" y="275"/>
      <point x="208" y="311"/>
      <point x="270" y="357" type="curve" smooth="yes"/>
      <point x="355" y="417"/>
      <point x="421" y="465"/>
      <point x="421" y="570" type="curve" smooth="yes"/>
      <point x="421" y="658"/>
      <point x="360" y="724"/>
      <point x="263" y="724" type="curve" smooth="yes"/>
      <point x="221" y="724"/>
      <point x="179" y="716"/>
      <point x="121" y="690" type="curve"/>
      <point x="131" y="667" type="line"/>
      <point x="181" y="689"/>
      <point x="224" y="699"/>
      <point x="263" y="699" type="curve" smooth="yes"/>
      <point x="342" y="699"/>
      <point x="395" y="648"/>
      <point x="395" y="569" type="curve" smooth="yes"/>
      <point x="395" y="470"/>
      <point x="325" y="428"/>
      <point x="258" y="377" type="curve" smooth="yes"/>
      <point x="186" y="320"/>
      <point x="140" y="289"/>
    </contour>
    <contour>
      <point x="104" y="-8" type="curve" smooth="yes"/>
      <point x="123" y="-8"/>
      <point x="133" y="14"/>
      <point x="133" y="32" type="curve" smooth="yes"/>
      <point x="133" y="43"/>
      <point x="127" y="54"/>
      <point x="111" y="54" type="curve" smooth="yes"/>
      <point x="91" y="54"/>
      <point x="81" y="32"/>
      <point x="81" y="14" type="curve" smooth="yes"/>
      <point x="81" y="0"/>
      <point x="90" y="-8"/>
    </contour>
  </outline>
</glyph>
<glyph name="at" format="2">
  <advance width="834"/>
  <unicode hex="0040"/>
  <outline>
    <contour>
      <point x="375" y="-90" type="curve" smooth="yes"/>
      <point x="448" y="-90"/>
      <point x="512" y="-78"/>
      <point x="572" y="-56" type="curve"/>
      <point x="572" y="-31" type="line"/>
      <point x="506" y="-56"/>
      <point x="439" y="-65"/>
      <point x="375" y="-65" type="curve" smooth="yes"/>
      <point x="222" y="-65"/>
      <point x="83" y="32"/>
      <point x="83" y="243" type="curve" smooth="yes"/>
      <point x="83" y="473"/>
      <point x="238" y="681"/>
      <point x="517" y="681" type="curve" smooth="yes"/>
      <point x="685" y="681"/>
      <point x="780" y="574"/>
      <point x="780" y="413" type="curve" smooth="yes"/>
      <point x="780" y="255"/>
      <point x="695" y="132"/>
      <point x="605" y="132" type="curve" smooth="yes"/>
      <point x="559" y="132"/>
      <point x="545" y="166"/>
      <point x="545" y="210" type="curve" smooth="yes"/>
      <point x="545" y="238"/>
      <point x="556" y="279"/>
      <point x="573" y="341" type="curve" smooth="yes"/>
      <point x="611" y="483" type="line"/>
      <point x="579" y="496"/>
      <point x="536" y="506"/>
      <point x="491" y="506" type="curve" smooth="yes"/>
      <point x="358" y="506"/>
      <point x="245" y="388"/>
      <point x="245" y="231" type="curve" smooth="yes"/>
      <point x="245" y="151"/>
      <point x="293" y="107"/>
      <point x="359" y="107" type="curve" smooth="yes"/>
      <point x="428" y="107"/>
      <point x="483" y="144"/>
      <point x="519" y="209" type="curve"/>
      <point x="521" y="209" type="line"/>
      <point x="521" y="140"/>
      <point x="547" y="107"/>
      <point x="604" y="107" type="curve" smooth="yes"/>
      <point x="719" y="107"/>
      <point x="807" y="246"/>
      <point x="807" y="413" type="curve" smooth="yes"/>
      <point x="807" y="592"/>
      <point x="696" y="706"/>
      <point x="519" y="706" type="curve" smooth="yes"/>
      <point x="213" y="706"/>
      <point x="55" y="473"/>
      <point x="55" y="242" type="curve" smooth="yes"/>
      <point x="55" y="17"/>
      <point x="208" y="-90"/>
    </contour>
    <contour>
      <point x="361" y="132" type="curve" smooth="yes"/>
      <point x="308" y="132"/>
      <point x="272" y="167"/>
      <point x="272" y="232" type="curve" smooth="yes"/>
      <point x="272" y="381"/>
      <point x="374" y="481"/>
      <point x="488" y="481" type="curve" smooth="yes"/>
      <point x="526" y="481"/>
      <point x="555" y="474"/>
      <point x="581" y="465" type="curve"/>
      <point x="542" y="320" type="line" smooth="yes"/>
      <point x="509" y="199"/>
      <point x="446" y="132"/>
    </contour>
  </outline>
</glyph>
<glyph name="at.serif" format="2">
  <advance width="845"/>
  <unicode hex="0040"/>
  <outline>
    <contour>
      <point x="350" y="-140" type="curve" smooth="yes"/>
      <point x="483" y="-140"/>
      <point x="581" y="-94"/>
      <point x="649" y="-39" type="curve"/>
      <point x="633" y="-18" type="line"/>
      <point x="573" y="-65"/>
      <point x="485" y="-115"/>
      <point x="354" y="-115" type="curve" smooth="yes"/>
      <point x="199" y="-115"/>
      <point x="82" y="6"/>
      <point x="82" y="203" type="curve" smooth="yes"/>
      <point x="82" y="470"/>
      <point x="241" y="700"/>
      <point x="487" y="700" type="curve" smooth="yes"/>
      <point x="691" y="700"/>
      <point x="783" y="558"/>
      <point x="783" y="398" type="curve" smooth="yes"/>
      <point x="783" y="214"/>
      <point x="702" y="107"/>
      <point x="613" y="107" type="curve" smooth="yes"/>
      <point x="575" y="107"/>
      <point x="544" y="131"/>
      <point x="544" y="197" type="curve" smooth="yes"/>
      <point x="544" y="220"/>
      <point x="546" y="240"/>
      <point x="551" y="265" type="curve" smooth="yes"/>
      <point x="601" y="525" type="line"/>
      <point x="585" y="525" type="line"/>
      <point x="569" y="500" type="line"/>
      <point x="544" y="522"/>
      <point x="513" y="534"/>
      <point x="474" y="534" type="curve" smooth="yes"/>
      <point x="331" y="534"/>
      <point x="245" y="373"/>
      <point x="245" y="234" type="curve" smooth="yes"/>
      <point x="245" y="131"/>
      <point x="298" y="82"/>
      <point x="375" y="82" type="curve" smooth="yes"/>
      <point x="441" y="82"/>
      <point x="493" y="123"/>
      <point x="516" y="178" type="curve"/>
      <point x="521" y="178" type="line"/>
      <point x="527" y="121"/>
      <point x="558" y="82"/>
      <point x="613" y="82" type="curve" smooth="yes"/>
      <point x="720" y="82"/>
      <point x="811" y="212"/>
      <point x="811" y="397" type="curve" smooth="yes"/>
      <point x="811" y="578"/>
      <point x="707" y="725"/>
      <point x="491" y="725" type="curve" smooth="yes"/>
      <point x="221" y="725"/>
      <point x="54" y="487"/>
      <point x="54" y="201" type="curve" smooth="yes"/>
      <point x="54" y="-1"/>
      <point x="175" y="-140"/>
    </contour>
    <contour>
      <point x="376" y="107" type="curve" smooth="yes"/>
      <point x="311" y="107"/>
      <point x="273" y="150"/>
      <point x="273" y="234" type="curve" smooth="yes"/>
      <point x="273" y="355"/>
      <point x="344" y="509"/>
      <point x="474" y="509" type="curve" smooth="yes"/>
      <point x="512" y="509"/>
      <point x="546" y="491"/>
      <point x="563" y="470" type="curve"/>
      <point x="523" y="265" type="line" smooth="yes"/>
      <point x="505" y="173"/>
      <point x="460" y="107"/>
    </contour>
  </outline>
</glyph>
<glyph name="A" format="2">
  <advance width="547"/>
  <unicode hex="0041"/>
  <anchor x="218" y="0" name="bottom"/>
  <anchor x="379" y="714" name="top"/>
  <anchor x="623" y="714" name="topright"/>
  <outline>
    <contour>
      <point x="-50" y="0" type="line"/>
      <point x="-20" y="0" type="line"/>
      <point x="138" y="271" type="line"/>
      <point x="432" y="271" type="line"/>
      <point x="473" y="0" type="line"/>
      <point x="498" y="0" type="line"/>
      <point x="392" y="716" type="line"/>
      <point x="368" y="716" type="line"/>
    </contour>
    <contour>
      <point x="152" y="296" type="line"/>
      <point x="324" y="594" type="line" smooth="yes"/>
      <point x="340" y="622"/>
      <point x="357" y="652"/>
      <point x="372" y="682" type="curve"/>
      <point x="374" y="682" type="line"/>
      <point x="377" y="651"/>
      <point x="381" y="619"/>
      <point x="385" y="594" type="curve" smooth="yes"/>
      <point x="428" y="296" type="line"/>
    </contour>
  </outline>
</glyph>
<glyph name="B" format="2">
  <advance width="598"/>
  <unicode hex="0042"/>
  <anchor x="243" y="0" name="bottom"/>
  <anchor x="395" y="714" name="top"/>
  <anchor x="674" y="714" name="topright"/>
  <outline>
    <contour>
      <point x="50" y="0" type="line"/>
      <point x="240" y="0" type="line" smooth="yes"/>
      <point x="404" y="0"/>
      <point x="528" y="68"/>
      <point x="528" y="223" type="curve" smooth="yes"/>
      <point x="528" y="303"/>
      <point x="488" y="356"/>
      <point x="409" y="374" type="curve"/>
      <point x="410" y="376" type="line"/>
      <point x="516" y="394"/>
      <point x="580" y="464"/>
      <point x="580" y="571" type="curve" smooth="yes"/>
      <point x="580" y="659"/>
      <point x="521" y="714"/>
      <point x="382" y="714" type="curve" smooth="yes"/>
      <point x="201" y="714" type="line"/>
    </contour>
    <contour>
      <point x="252" y="25" type="curve" smooth="yes"/>
      <point x="82" y="25" type="line"/>
      <point x="154" y="363" type="line"/>
      <point x="314" y="363" type="line" smooth="yes"/>
      <point x="428" y="363"/>
      <point x="501" y="324"/>
      <point x="501" y="223" type="curve" smooth="yes"/>
      <point x="501" y="81"/>
      <point x="385" y="25"/>
    </contour>
    <contour>
      <point x="322" y="388" type="curve" smooth="yes"/>
      <point x="159" y="388" type="line"/>
      <point x="223" y="689" type="line"/>
      <point x="376" y="689" type="line" smooth="yes"/>
      <point x="495" y="689"/>
      <point x="553" y="649"/>
      <point x="553" y="571" type="curve" smooth="yes"/>
      <point x="553" y="444"/>
      <point x="459" y="388"/>
    </contour>
  </outline>
</glyph>
<glyph name="B.serif" format="2">
  <advance width="626"/>
  <unicode hex="0042"/>
  <anchor x="260" y="0" name="bottom"/>
  <anchor x="412" y="714" name="top"/>
  <anchor x="707" y="714" name="topright"/>
  <outline>
    <contour>
      <point x="-12" y="0" type="line"/>
      <point x="259" y="0" type="line" smooth="yes"/>
      <point x="448" y="0"/>
      <point x="526" y="88"/>
      <point x="526" y="228" type="curve" smooth="yes"/>
      <point x="526" y="307"/>
      <point x="476" y="360"/>
      <point x="404" y="373" type="curve"/>
      <point x="405" y="377" type="line"/>
      <point x="511" y="394"/>
      <point x="568" y="451"/>
      <point x="568" y="564" type="curve" smooth="yes"/>
      <point x="568" y="662"/>
      <point x="492" y="714"/>
      <point x="341" y="714" type="curve" smooth="yes"/>
      <point x="139" y="714" type="line"/>
      <point x="134" y="694" type="line"/>
      <point x="161" y="694" type="line" smooth="yes"/>
      <point x="218" y="694"/>
      <point x="223" y="689"/>
      <point x="223" y="663" type="curve" smooth="yes"/>
      <point x="223" y="652"/>
      <point x="218" y="620"/>
      <point x="212" y="594" type="curve" smooth="yes"/>
      <point x="106" y="92" type="line" smooth="yes"/>
      <point x="91" y="23"/>
      <point x="86" y="20"/>
      <point x="30" y="20" type="curve" smooth="yes"/>
      <point x="-7" y="20" type="line"/>
    </contour>
    <contour>
      <point x="256" y="25" type="curve" smooth="yes"/>
      <point x="119" y="25" type="line"/>
      <point x="191" y="364" type="line"/>
      <point x="302" y="364" type="line" smooth="yes"/>
      <point x="430" y="364"/>
      <point x="498" y="317"/>
      <point x="498" y="231" type="curve" smooth="yes"/>
      <point x="498" y="107"/>
      <point x="429" y="25"/>
    </contour>
    <contour>
      <point x="301" y="389" type="curve" smooth="yes"/>
      <point x="196" y="389" type="line"/>
      <point x="260" y="689" type="line"/>
      <point x="341" y="689" type="line" smooth="yes"/>
      <point x="478" y="689"/>
      <point x="540" y="640"/>
      <point x="540" y="564" type="curve" smooth="yes"/>
      <point x="540" y="460"/>
      <point x="490" y="389"/>
    </contour>
  </outline>
</glyph>
<glyph name="C" format="2">
  <advance width="594"/>
  <unicode hex="0043"/>
  <anchor x="241" y="0" name="bottom"/>
  <anchor x="393" y="714" name="top"/>
  <anchor x="670" y="714" name="topright"/>
  <outline>
    <contour>
      <point x="326" y="-10" type="curve" smooth="yes"/>
      <point x="396" y="-10"/>
      <point x="455" y="4"/>
      <point x="500" y="21" type="curve"/>
      <point x="500" y="44" type="line"/>
      <point x="452" y="28"/>
      <point x="395" y="15"/>
      <point x="327" y="15" type="curve" smooth="yes"/>
      <point x="192" y="15"/>
      <point x="110" y="112"/>
      <point x="110" y="270" type="curve" smooth="yes"/>
      <point x="110" y="526"/>
      <point x="267" y="699"/>
      <point x="471" y="699" type="curve" smooth="yes"/>
      <point x="523" y="699"/>
      <point x="574" y="690"/>
      <point x="621" y="662" type="curve"/>
      <point x="633" y="687" type="line"/>
      <point x="586" y="712"/>
      <point x="533" y="724"/>
      <point x="471" y="724" type="curve" smooth="yes"/>
      <point x="254" y="724"/>
      <point x="84" y="541"/>
      <point x="84" y="268" type="curve" smooth="yes"/>
      <point x="84" y="100"/>
      <point x="173" y="-10"/>
    </contour>
  </outline>
</glyph>
<glyph name="C.serif" format="2">
  <advance width="574"/>
  <unicode hex="0043"/>
  <anchor x="261" y="0" name="bottom"/>
  <anchor x="404" y="714" name="top"/>
  <anchor x="649" y="714" name="topright"/>
  <outline>
    <contour>
      <point x="289" y="-10" type="curve" smooth="yes"/>
      <point x="412" y="-10"/>
      <point x="485" y="43"/>
      <point x="485" y="92" type="curve" smooth="yes"/>
      <point x="485" y="101"/>
      <point x="482" y="104"/>
      <point x="477" y="106" type="curve"/>
      <point x="438" y="44"/>
      <point x="383" y="14"/>
      <point x="287" y="14" type="curve" smooth="yes"/>
      <point x="159" y="14"/>
      <point x="85" y="126"/>
      <point x="85" y="256" type="curve" smooth="yes"/>
      <point x="85" y="466"/>
      <point x="203" y="699"/>
      <point x="407" y="699" type="curve" smooth="yes"/>
      <point x="514" y="699"/>
      <point x="559" y="655"/>
      <point x="559" y="555" type="curve"/>
      <point x="577" y="555"/>
      <point x="586" y="567"/>
      <point x="586" y="585" type="curve" smooth="yes"/>
      <point x="586" y="670"/>
      <point x="524" y="724"/>
      <point x="407" y="724" type="curve" smooth="yes"/>
      <point x="194" y="724"/>
      <point x="57" y="492"/>
      <point x="57" y="256" type="curve" smooth="yes"/>
      <point x="57" y="112"/>
      <point x="137" y="-10"/>
    </contour>
  </outline>
</glyph>
<glyph name="D" format="2">
  <advance width="677"/>
  <unicode hex="0044"/>
  <anchor x="283" y="0" name="bottom"/>
  <anchor x="359" y="357" name="center"/>
  <anchor x="435" y="714" name="top"/>
  <anchor x="753" y="714" name="topright"/>
  <outline>
    <contour>
      <point x="50" y="0" type="line"/>
      <point x="196" y="0" type="line" smooth="yes"/>
      <point x="497" y="0"/>
      <point x="637" y="206"/>
      <point x="637" y="425" type="curve" smooth="yes"/>
      <point x="637" y="620"/>
      <point x="528" y="714"/>
      <point x="346" y="714" type="curve" smooth="yes"/>
      <point x="201" y="714" type="line"/>
    </contour>
    <contour>
      <point x="197" y="25" type="curve" smooth="yes"/>
      <point x="82" y="25" type="line"/>
      <point x="223" y="689" type="line"/>
      <point x="336" y="689" type="line" smooth="yes"/>
      <point x="511" y="689"/>
      <point x="610" y="606"/>
      <point x="610" y="425" type="curve" smooth="yes"/>
      <point x="610" y="211"/>
      <point x="469" y="25"/>
    </contour>
  </outline>
</glyph>
<glyph name="D.serif" format="2">
  <advance width="664"/>
  <unicode hex="0044"/>
  <anchor x="278" y="0" name="bottom"/>
  <anchor x="373" y="357" name="center"/>
  <anchor x="430" y="714" name="top"/>
  <anchor x="745" y="714" name="topright"/>
  <outline>
    <contour>
      <point x="-10" y="0" type="line"/>
      <point x="257" y="0" type="line" smooth="yes"/>
      <point x="500" y="0"/>
      <point x="631" y="204"/>
      <point x="631" y="442" type="curve" smooth="yes"/>
      <point x="631" y="619"/>
      <point x="537" y="714"/>
      <point x="371" y="714" type="curve" smooth="yes"/>
      <point x="140" y="714" type="line"/>
      <point x="135" y="694" type="line"/>
      <point x="168" y="694" type="line" smooth="yes"/>
      <point x="216" y="694"/>
      <point x="225" y="687"/>
      <point x="225" y="660" type="curve" smooth="yes"/>
      <point x="225" y="646"/>
      <point x="221" y="628"/>
      <point x="216" y="604" type="curve" smooth="yes"/>
      <point x="107" y="89" type="line" smooth="yes"/>
      <point x="94" y="26"/>
      <point x="85" y="20"/>
      <point x="36" y="20" type="curve" smooth="yes"/>
      <point x="-5" y="20" type="line"/>
    </contour>
    <contour>
      <point x="257" y="25" type="curve" smooth="yes"/>
      <point x="121" y="25" type="line"/>
      <point x="262" y="689" type="line"/>
      <point x="368" y="689" type="line" smooth="yes"/>
      <point x="509" y="689"/>
      <point x="603" y="611"/>
      <point x="603" y="441" type="curve" smooth="yes"/>
      <point x="603" y="211"/>
      <point x="471" y="25"/>
    </contour>
  </outline>
</glyph>
<glyph name="E" format="2">
  <advance width="535"/>
  <unicode hex="0045"/>
  <anchor x="212" y="0" name="bottom"/>
  <anchor x="364" y="714" name="top"/>
  <anchor x="611" y="714" name="topright"/>
  <outline>
    <contour>
      <point x="50" y="0" type="line"/>
      <point x="408" y="0" type="line"/>
      <point x="413" y="25" type="line"/>
      <point x="82" y="25" type="line"/>
      <point x="154" y="364" type="line"/>
      <point x="466" y="364" type="line"/>
      <point x="471" y="389" type="line"/>
      <point x="159" y="389" type="line"/>
      <point x="223" y="689" type="line"/>
      <point x="554" y="689" type="line"/>
      <point x="559" y="714" type="line"/>
      <point x="201" y="714" type="line"/>
    </contour>
  </outline>
</glyph>
<glyph name="E.serif" format="2">
  <advance width="604"/>
  <unicode hex="0045"/>
  <anchor x="249" y="0" name="bottom"/>
  <anchor x="401" y="714" name="top"/>
  <anchor x="686" y="714" name="topright"/>
  <outline>
    <contour>
      <point x="-13" y="0" type="line"/>
      <point x="475" y="0" type="line"/>
      <point x="515" y="161" type="line"/>
      <point x="490" y="161" type="line"/>
      <point x="476" y="113" type="line" smooth="yes"/>
      <point x="452" y="31"/>
      <point x="444" y="25"/>
      <point x="381" y="25" type="curve" smooth="yes"/>
      <point x="119" y="25" type="line"/>
      <point x="190" y="362" type="line"/>
      <point x="451" y="362" type="line"/>
      <point x="455" y="387" type="line"/>
      <point x="196" y="387" type="line"/>
      <point x="260" y="689" type="line"/>
      <point x="492" y="689" type="line" smooth="yes"/>
      <point x="544" y="689"/>
      <point x="552" y="686"/>
      <point x="552" y="645" type="curve" smooth="yes"/>
      <point x="552" y="627"/>
      <point x="542" y="573"/>
      <point x="539" y="553" type="curve"/>
      <point x="564" y="553" type="line"/>
      <point x="594" y="714" type="line"/>
      <point x="140" y="714" type="line"/>
      <point x="135" y="694" type="line"/>
      <point x="170" y="694" type="line" smooth="yes"/>
      <point x="216" y="694"/>
      <point x="223" y="690"/>
      <point x="223" y="665" type="curve" smooth="yes"/>
      <point x="223" y="650"/>
      <point x="217" y="618"/>
      <point x="208" y="576" type="curve" smooth="yes"/>
      <point x="106" y="95" type="line" smooth="yes"/>
      <point x="91" y="25"/>
      <point x="84" y="20"/>
      <point x="25" y="20" type="curve" smooth="yes"/>
      <point x="-8" y="20" type="line"/>
    </contour>
  </outline>
</glyph>
<glyph name="F" format="2">
  <advance width="487"/>
  <unicode hex="0046"/>
  <anchor x="188" y="0" name="bottom"/>
  <anchor x="340" y="714" name="top"/>
  <anchor x="563" y="714" name="topright"/>
  <outline>
    <contour>
      <point x="50" y="0" type="line"/>
      <point x="77" y="0" type="line"/>
      <point x="146" y="329" type="line"/>
      <point x="460" y="329" type="line"/>
      <point x="466" y="354" type="line"/>
      <point x="152" y="354" type="line"/>
      <point x="223" y="689" type="line"/>
      <point x="555" y="689" type="line"/>
      <point x="560" y="714" type="line"/>
      <point x="201" y="714" type="line"/>
    </contour>
  </outline>
</glyph>
<glyph name="F.serif" format="2">
  <advance width="549"/>
  <unicode hex="0046"/>
  <anchor x="101" y="0" name="bottom"/>
  <anchor x="370" y="714" name="top"/>
  <anchor x="624" y="714" name="topright"/>
  <outline>
    <contour>
      <point x="-13" y="0" type="line"/>
      <point x="213" y="0" type="line"/>
      <point x="217" y="20" type="line"/>
      <point x="173" y="20" type="line" smooth="yes"/>
      <point x="140" y="20"/>
      <point x="127" y="25"/>
      <point x="127" y="51" type="curve" smooth="yes"/>
      <point x="127" y="64"/>
      <point x="130" y="82"/>
      <point x="136" y="108" type="curve" smooth="yes"/>
      <point x="186" y="342" type="line"/>
      <point x="447" y="342" type="line"/>
      <point x="451" y="367" type="line"/>
      <point x="192" y="367" type="line"/>
      <point x="260" y="689" type="line"/>
      <point x="481" y="689" type="line" smooth="yes"/>
      <point x="533" y="689"/>
      <point x="541" y="686"/>
      <point x="541" y="645" type="curve" smooth="yes"/>
      <point x="541" y="627"/>
      <point x="531" y="573"/>
      <point x="528" y="553" type="curve"/>
      <point x="553" y="553" type="line"/>
      <point x="583" y="714" type="line"/>
      <point x="140" y="714" type="line"/>
      <point x="135" y="694" type="line"/>
      <point x="170" y="694" type="line" smooth="yes"/>
      <point x="216" y="694"/>
      <point x="223" y="690"/>
      <point x="223" y="665" type="curve" smooth="yes"/>
      <point x="223" y="650"/>
      <point x="217" y="618"/>
      <point x="208" y="576" type="curve" smooth="yes"/>
      <point x="108" y="108" type="line" smooth="yes"/>
      <point x="91" y="31"/>
      <point x="83" y="20"/>
      <point x="33" y="20" type="curve" smooth="yes"/>
      <point x="-9" y="20" type="line"/>
    </contour>
  </outline>
</glyph>
<glyph name="G" format="2">
  <advance width="690"/>
  <unicode hex="0047"/>
  <anchor x="289" y="0" name="bottom"/>
  <anchor x="441" y="714" name="top"/>
  <anchor x="766" y="714" name="topright"/>
  <outline>
    <contour>
      <point x="333" y="-10" type="curve" smooth="yes"/>
      <point x="406" y="-10"/>
      <point x="487" y="5"/>
      <point x="554" y="36" type="curve"/>
      <point x="621" y="350" type="line"/>
      <point x="394" y="350" type="line"/>
      <point x="388" y="325" type="line"/>
      <point x="589" y="325" type="line"/>
      <point x="531" y="53" type="line"/>
      <point x="479" y="31"/>
      <point x="405" y="15"/>
      <point x="334" y="15" type="curve" smooth="yes"/>
      <point x="204" y="15"/>
      <point x="110" y="97"/>
      <point x="110" y="267" type="curve" smooth="yes"/>
      <point x="110" y="530"/>
      <point x="274" y="699"/>
      <point x="463" y="699" type="curve" smooth="yes"/>
      <point x="531" y="699"/>
      <point x="596" y="683"/>
      <point x="653" y="657" type="curve"/>
      <point x="664" y="682" type="line"/>
      <point x="605" y="708"/>
      <point x="539" y="724"/>
      <point x="464" y="724" type="curve" smooth="yes"/>
      <point x="262" y="724"/>
      <point x="84" y="548"/>
      <point x="84" y="267" type="curve" smooth="yes"/>
      <point x="84" y="97"/>
      <point x="173" y="-10"/>
    </contour>
  </outline>
</glyph>
<glyph name="G.serif" format="2">
  <advance width="645"/>
  <unicode hex="0047"/>
  <anchor x="277" y="0" name="bottom"/>
  <anchor x="439" y="714" name="top"/>
  <anchor x="684" y="714" name="topright"/>
  <outline>
    <contour>
      <point x="308" y="-10" type="curve" smooth="yes"/>
      <point x="383" y="-10"/>
      <point x="442" y="5"/>
      <point x="505" y="36" type="curve"/>
      <point x="543" y="202" type="line" smooth="yes"/>
      <point x="564" y="294"/>
      <point x="569" y="296"/>
      <point x="608" y="296" type="curve" smooth="yes"/>
      <point x="626" y="296" type="line"/>
      <point x="631" y="316" type="line"/>
      <point x="451" y="316" type="line"/>
      <point x="446" y="296" type="line"/>
      <point x="471" y="296" type="line" smooth="yes"/>
      <point x="515" y="296"/>
      <point x="524" y="291"/>
      <point x="524" y="269" type="curve" smooth="yes"/>
      <point x="524" y="252"/>
      <point x="521" y="228"/>
      <point x="515" y="202" type="curve" smooth="yes"/>
      <point x="482" y="57" type="line"/>
      <point x="441" y="29"/>
      <point x="374" y="15"/>
      <point x="305" y="15" type="curve" smooth="yes"/>
      <point x="149" y="15"/>
      <point x="84" y="111"/>
      <point x="84" y="258" type="curve" smooth="yes"/>
      <point x="84" y="504"/>
      <point x="248" y="699"/>
      <point x="446" y="699" type="curve" smooth="yes"/>
      <point x="553" y="699"/>
      <point x="607" y="661"/>
      <point x="607" y="561" type="curve"/>
      <point x="625" y="561"/>
      <point x="634" y="573"/>
      <point x="634" y="591" type="curve" smooth="yes"/>
      <point x="634" y="676"/>
      <point x="565" y="724"/>
      <point x="448" y="724" type="curve" smooth="yes"/>
      <point x="226" y="724"/>
      <point x="56" y="511"/>
      <point x="56" y="258" type="curve" smooth="yes"/>
      <point x="56" y="93"/>
      <point x="140" y="-10"/>
    </contour>
  </outline>
</glyph>
<glyph name="H" format="2">
  <advance width="681"/>
  <unicode hex="0048"/>
  <anchor x="285" y="0" name="bottom"/>
  <anchor x="361" y="357" name="center"/>
  <anchor x="437" y="714" name="top"/>
  <anchor x="757" y="714" name="topright"/>
  <outline>
    <contour>
      <point x="50" y="0" type="line"/>
      <point x="77" y="0" type="line"/>
      <point x="154" y="363" type="line"/>
      <point x="575" y="363" type="line"/>
      <point x="498" y="0" type="line"/>
      <point x="525" y="0" type="line"/>
      <point x="676" y="714" type="line"/>
      <point x="649" y="714" type="line"/>
      <point x="580" y="388" type="line"/>
      <point x="159" y="388" type="line"/>
      <point x="228" y="714" type="line"/>
      <point x="201" y="714" type="line"/>
    </contour>
  </outline>
</glyph>
<glyph name="H.serif" format="2">
  <advance width="759"/>
  <unicode hex="0048"/>
  <anchor x="324" y="0" name="bottom"/>
  <anchor x="419" y="357" name="center"/>
  <anchor x="476" y="714" name="top"/>
  <anchor x="836" y="714" name="topright"/>
  <outline>
    <contour>
      <point x="-13" y="0" type="line"/>
      <point x="215" y="0" type="line"/>
      <point x="219" y="20" type="line"/>
      <point x="174" y="20" type="line" smooth="yes"/>
      <point x="141" y="20"/>
      <point x="128" y="25"/>
      <point x="128" y="51" type="curve" smooth="yes"/>
      <point x="128" y="64"/>
      <point x="132" y="82"/>
      <point x="137" y="108" type="curve" smooth="yes"/>
      <point x="191" y="361" type="line"/>
      <point x="598" y="361" type="line"/>
      <point x="544" y="108" type="line" smooth="yes"/>
      <point x="528" y="31"/>
      <point x="519" y="20"/>
      <point x="469" y="20" type="curve" smooth="yes"/>
      <point x="424" y="20" type="line"/>
      <point x="420" y="0" type="line"/>
      <point x="648" y="0" type="line"/>
      <point x="652" y="20" type="line"/>
      <point x="609" y="20" type="line" smooth="yes"/>
      <point x="576" y="20"/>
      <point x="563" y="25"/>
      <point x="563" y="51" type="curve" smooth="yes"/>
      <point x="563" y="64"/>
      <point x="567" y="82"/>
      <point x="572" y="108" type="curve" smooth="yes"/>
      <point x="678" y="606" type="line" smooth="yes"/>
      <point x="694" y="683"/>
      <point x="703" y="694"/>
      <point x="753" y="694" type="curve" smooth="yes"/>
      <point x="796" y="694" type="line"/>
      <point x="800" y="714" type="line"/>
      <point x="572" y="714" type="line"/>
      <point x="568" y="694" type="line"/>
      <point x="613" y="694" type="line" smooth="yes"/>
      <point x="646" y="694"/>
      <point x="659" y="689"/>
      <point x="659" y="663" type="curve" smooth="yes"/>
      <point x="659" y="650"/>
      <point x="655" y="632"/>
      <point x="650" y="606" type="curve" smooth="yes"/>
      <point x="603" y="386" type="line"/>
      <point x="196" y="386" type="line"/>
      <point x="243" y="606" type="line" smooth="yes"/>
      <point x="259" y="683"/>
      <point x="268" y="694"/>
      <point x="318" y="694" type="curve" smooth="yes"/>
      <point x="363" y="694" type="line"/>
      <point x="367" y="714" type="line"/>
      <point x="139" y="714" type="line"/>
      <point x="135" y="694" type="line"/>
      <point x="178" y="694" type="line" smooth="yes"/>
      <point x="211" y="694"/>
      <point x="224" y="689"/>
      <point x="224" y="663" type="curve" smooth="yes"/>
      <point x="224" y="650"/>
      <point x="220" y="632"/>
      <point x="215" y="606" type="curve" smooth="yes"/>
      <point x="109" y="108" type="line" smooth="yes"/>
      <point x="93" y="31"/>
      <point x="84" y="20"/>
      <point x="34" y="20" type="curve" smooth="yes"/>
      <point x="-9" y="20" type="line"/>
    </contour>
  </outline>
</glyph>
<glyph name="I" format="2">
  <advance width="279"/>
  <unicode hex="0049"/>
  <anchor x="84" y="0" name="bottom"/>
  <anchor x="236" y="714" name="top"/>
  <anchor x="355" y="714" name="topright"/>
  <outline>
    <contour>
      <point x="8" y="0" type="line"/>
      <point x="166" y="0" type="line"/>
      <point x="170" y="20" type="line"/>
      <point x="104" y="23" type="line"/>
      <point x="246" y="690" type="line"/>
      <point x="313" y="694" type="line"/>
      <point x="317" y="714" type="line"/>
      <point x="159" y="714" type="line"/>
      <point x="155" y="694" type="line"/>
      <point x="220" y="690" type="line"/>
      <point x="78" y="23" type="line"/>
      <point x="12" y="20" type="line"/>
    </contour>
  </outline>
</glyph>
<glyph name="J" format="2">
  <advance width="231"/>
  <unicode hex="004A"/>
  <anchor x="-88" y="-174" name="bottom"/>
  <anchor x="212" y="714" name="top"/>
  <anchor x="307" y="714" name="topright"/>
  <outline>
    <contour>
      <point x="-88" y="-174" type="curve" smooth="yes"/>
      <point x="3" y="-174"/>
      <point x="54" y="-122"/>
      <point x="77" y="-13" type="curve" smooth="yes"/>
      <point x="231" y="714" type="line"/>
      <point x="204" y="714" type="line"/>
      <point x="51" y="-9" type="line" smooth="yes"/>
      <point x="33" y="-93"/>
      <point x="-2" y="-148"/>
      <point x="-87" y="-148" type="curve" smooth="yes"/>
      <point x="-112" y="-148"/>
      <point x="-144" y="-144"/>
      <point x="-169" y="-136" type="curve"/>
      <point x="-170" y="-161" type="line"/>
      <point x="-151" y="-168"/>
      <point x="-118" y="-174"/>
    </contour>
  </outline>
</glyph>
<glyph name="J.serif" format="2">
  <advance width="309"/>
  <unicode hex="004A"/>
  <anchor x="-65" y="-240" name="bottom"/>
  <anchor x="239" y="714" name="top"/>
  <anchor x="368" y="714" name="topright"/>
  <outline>
    <contour>
      <point x="-65" y="-240" type="curve" smooth="yes"/>
      <point x="27" y="-240"/>
      <point x="65" y="-188"/>
      <point x="102" y="-16" type="curve" smooth="yes"/>
      <point x="236" y="606" type="line" smooth="yes"/>
      <point x="253" y="683"/>
      <point x="261" y="694"/>
      <point x="311" y="694" type="curve" smooth="yes"/>
      <point x="360" y="694" type="line"/>
      <point x="364" y="714" type="line"/>
      <point x="122" y="714" type="line"/>
      <point x="118" y="694" type="line"/>
      <point x="171" y="694" type="line" smooth="yes"/>
      <point x="204" y="694"/>
      <point x="217" y="689"/>
      <point x="217" y="663" type="curve" smooth="yes"/>
      <point x="217" y="650"/>
      <point x="214" y="632"/>
      <point x="208" y="606" type="curve" smooth="yes"/>
      <point x="74" y="-16" type="line" smooth="yes"/>
      <point x="41" y="-167"/>
      <point x="6" y="-215"/>
      <point x="-63" y="-215" type="curve" smooth="yes"/>
      <point x="-83" y="-215"/>
      <point x="-117" y="-211"/>
      <point x="-134" y="-205" type="curve"/>
      <point x="-142" y="-229" type="line"/>
      <point x="-118" y="-236"/>
      <point x="-96" y="-240"/>
    </contour>
  </outline>
</glyph>
<glyph name="K" format="2">
  <advance width="543"/>
  <unicode hex="004B"/>
  <anchor x="216" y="0" name="bottom"/>
  <anchor x="368" y="714" name="top"/>
  <anchor x="619" y="714" name="topright"/>
  <outline>
    <contour>
      <point x="50" y="0" type="line"/>
      <point x="77" y="0" type="line"/>
      <point x="138" y="291" type="line"/>
      <point x="262" y="396" type="line"/>
      <point x="454" y="0" type="line"/>
      <point x="484" y="0" type="line"/>
      <point x="283" y="414" type="line"/>
      <point x="629" y="714" type="line"/>
      <point x="592" y="714" type="line"/>
      <point x="202" y="376" type="line"/>
      <point x="145" y="324" type="line"/>
      <point x="228" y="714" type="line"/>
      <point x="201" y="714" type="line"/>
    </contour>
  </outline>
</glyph>
<glyph name="K.serif" format="2">
  <advance width="647"/>
  <unicode hex="004B"/>
  <anchor x="267" y="0" name="bottom"/>
  <anchor x="419" y="714" name="top"/>
  <anchor x="722" y="714" name="topright"/>
  <outline>
    <contour>
      <point x="-13" y="0" type="line"/>
      <point x="213" y="0" type="line"/>
      <point x="217" y="20" type="line"/>
      <point x="174" y="20" type="line" smooth="yes"/>
      <point x="141" y="20"/>
      <point x="128" y="25"/>
      <point x="128" y="51" type="curve" smooth="yes"/>
      <point x="128" y="64"/>
      <point x="131" y="82"/>
      <point x="137" y="108" type="curve" smooth="yes"/>
      <point x="168" y="251" type="line"/>
      <point x="324" y="387" type="line"/>
      <point x="316" y="387" type="line"/>
      <point x="450" y="70" type="line" smooth="yes"/>
      <point x="471" y="22"/>
      <point x="499" y="0"/>
      <point x="548" y="0" type="curve" smooth="yes"/>
      <point x="576" y="0" type="line"/>
      <point x="582" y="25" type="line"/>
      <point x="556" y="25" type="line" smooth="yes"/>
      <point x="519" y="25"/>
      <point x="495" y="39"/>
      <point x="477" y="79" type="curve" smooth="yes"/>
      <point x="337" y="407" type="line"/>
      <point x="329" y="392" type="line"/>
      <point x="560" y="596" type="line" smooth="yes"/>
      <point x="668" y="691"/>
      <point x="672" y="694"/>
      <point x="706" y="694" type="curve"/>
      <point x="711" y="714" type="line"/>
      <point x="548" y="714" type="line"/>
      <point x="543" y="694" type="line"/>
      <point x="598" y="694"/>
      <point x="605" y="693"/>
      <point x="605" y="683" type="curve" smooth="yes"/>
      <point x="605" y="673"/>
      <point x="602" y="667"/>
      <point x="542" y="614" type="curve" smooth="yes"/>
      <point x="176" y="291" type="line"/>
      <point x="243" y="606" type="line" smooth="yes"/>
      <point x="259" y="683"/>
      <point x="268" y="694"/>
      <point x="318" y="694" type="curve" smooth="yes"/>
      <point x="361" y="694" type="line"/>
      <point x="365" y="714" type="line"/>
      <point x="139" y="714" type="line"/>
      <point x="135" y="694" type="line"/>
      <point x="178" y="694" type="line" smooth="yes"/>
      <point x="211" y="694"/>
      <point x="224" y="689"/>
      <point x="224" y="663" type="curve" smooth="yes"/>
      <point x="224" y="650"/>
      <point x="220" y="632"/>
      <point x="215" y="606" type="curve" smooth="yes"/>
      <point x="109" y="108" type="line" smooth="yes"/>
      <point x="93" y="31"/>
      <point x="84" y="20"/>
      <point x="34" y="20" type="curve" smooth="yes"/>
      <point x="-9" y="20" type="line"/>
    </contour>
  </outline>
</glyph>
<glyph name="L" format="2">
  <advance width="491"/>
  <unicode hex="004C"/>
  <anchor x="190" y="0" name="bottom"/>
  <anchor x="266" y="357" name="center"/>
  <anchor x="342" y="714" name="top"/>
  <anchor x="477" y="714" name="topright"/>
  <outline>
    <contour>
      <point x="50" y="0" type="line"/>
      <point x="406" y="0" type="line"/>
      <point x="411" y="25" type="line"/>
      <point x="82" y="25" type="line"/>
      <point x="228" y="714" type="line"/>
      <point x="201" y="714" type="line"/>
    </contour>
  </outline>
</glyph>
<glyph name="L.serif" format="2">
  <advance width="575"/>
  <unicode hex="004C"/>
  <anchor x="235" y="0" name="bottom"/>
  <anchor x="330" y="357" name="center"/>
  <anchor x="387" y="714" name="top"/>
  <anchor x="657" y="714" name="topright"/>
  <outline>
    <contour>
      <point x="-13" y="0" type="line"/>
      <point x="450" y="0" type="line"/>
      <point x="500" y="205" type="line"/>
      <point x="475" y="205" type="line"/>
      <point x="451" y="113" type="line" smooth="yes"/>
      <point x="430" y="31"/>
      <point x="419" y="25"/>
      <point x="356" y="25" type="curve" smooth="yes"/>
      <point x="119" y="25" type="line"/>
      <point x="243" y="606" type="line" smooth="yes"/>
      <point x="259" y="683"/>
      <point x="268" y="694"/>
      <point x="318" y="694" type="curve" smooth="yes"/>
      <point x="361" y="694" type="line"/>
      <point x="365" y="714" type="line"/>
      <point x="139" y="714" type="line"/>
      <point x="135" y="694" type="line"/>
      <point x="178" y="694" type="line" smooth="yes"/>
      <point x="211" y="694"/>
      <point x="224" y="689"/>
      <point x="224" y="663" type="curve" smooth="yes"/>
      <point x="224" y="650"/>
      <point x="220" y="632"/>
      <point x="215" y="606" type="curve" smooth="yes"/>
      <point x="106" y="95" type="line" smooth="yes"/>
      <point x="91" y="25"/>
      <point x="84" y="20"/>
      <point x="25" y="20" type="curve" smooth="yes"/>
      <point x="-8" y="20" type="line"/>
    </contour>
  </outline>
</glyph>
<glyph name="M" format="2">
  <advance width="806"/>
  <unicode hex="004D"/>
  <anchor x="347" y="0" name="bottom"/>
  <anchor x="499" y="714" name="top"/>
  <anchor x="882" y="714" name="topright"/>
  <outline>
    <contour>
      <point x="50" y="0" type="line"/>
      <point x="77" y="0" type="line"/>
      <point x="203" y="597" type="line" smooth="yes"/>
      <point x="209" y="627"/>
      <point x="212" y="646"/>
      <point x="218" y="679" type="curve"/>
      <point x="220" y="679" type="line"/>
      <point x="340" y="0" type="line"/>
      <point x="360" y="0" type="line"/>
      <point x="767" y="678" type="line"/>
      <point x="769" y="678" type="line"/>
      <point x="761" y="645"/>
      <point x="755" y="622"/>
      <point x="751" y="602" type="curve" smooth="yes"/>
      <point x="624" y="0" type="line"/>
      <point x="650" y="0" type="line"/>
      <point x="801" y="714" type="line"/>
      <point x="759" y="714" type="line"/>
      <point x="360" y="47" type="line"/>
      <point x="357" y="47" type="line"/>
      <point x="239" y="714" type="line"/>
      <point x="201" y="714" type="line"/>
    </contour>
  </outline>
</glyph>
<glyph name="M.serif" format="2">
  <advance width="920"/>
  <unicode hex="004D"/>
  <anchor x="404" y="0" name="bottom"/>
  <anchor x="556" y="714" name="top"/>
  <anchor x="995" y="714" name="topright"/>
  <outline>
    <contour>
      <point x="-13" y="0" type="line"/>
      <point x="215" y="0" type="line"/>
      <point x="219" y="20" type="line"/>
      <point x="174" y="20" type="line" smooth="yes"/>
      <point x="141" y="20"/>
      <point x="128" y="25"/>
      <point x="128" y="51" type="curve" smooth="yes"/>
      <point x="128" y="64"/>
      <point x="131" y="82"/>
      <point x="137" y="108" type="curve" smooth="yes"/>
      <point x="255" y="664" type="line"/>
      <point x="385" y="0" type="line"/>
      <point x="411" y="0" type="line"/>
      <point x="823" y="664" type="line"/>
      <point x="705" y="108" type="line" smooth="yes"/>
      <point x="688" y="30"/>
      <point x="680" y="20"/>
      <point x="630" y="20" type="curve" smooth="yes"/>
      <point x="585" y="20" type="line"/>
      <point x="581" y="0" type="line"/>
      <point x="809" y="0" type="line"/>
      <point x="813" y="20" type="line"/>
      <point x="770" y="20" type="line" smooth="yes"/>
      <point x="737" y="20"/>
      <point x="724" y="25"/>
      <point x="724" y="51" type="curve" smooth="yes"/>
      <point x="724" y="64"/>
      <point x="728" y="82"/>
      <point x="733" y="108" type="curve" smooth="yes"/>
      <point x="839" y="606" type="line" smooth="yes"/>
      <point x="855" y="683"/>
      <point x="864" y="694"/>
      <point x="914" y="694" type="curve" smooth="yes"/>
      <point x="957" y="694" type="line"/>
      <point x="961" y="714" type="line"/>
      <point x="823" y="714" type="line"/>
      <point x="405" y="42" type="line"/>
      <point x="273" y="714" type="line"/>
      <point x="139" y="714" type="line"/>
      <point x="135" y="694" type="line"/>
      <point x="178" y="694" type="line" smooth="yes"/>
      <point x="211" y="694"/>
      <point x="224" y="689"/>
      <point x="224" y="663" type="curve" smooth="yes"/>
      <point x="224" y="650"/>
      <point x="220" y="632"/>
      <point x="215" y="606" type="curve" smooth="yes"/>
      <point x="109" y="108" type="line" smooth="yes"/>
      <point x="93" y="31"/>
      <point x="84" y="20"/>
      <point x="34" y="20" type="curve" smooth="yes"/>
      <point x="-9" y="20" type="line"/>
    </contour>
  </outline>
</glyph>
<glyph name="N" format="2">
  <advance width="674"/>
  <unicode hex="004E"/>
  <anchor x="281" y="0" name="bottom"/>
  <anchor x="433" y="714" name="top"/>
  <anchor x="750" y="714" name="topright"/>
  <outline>
    <contour>
      <point x="50" y="0" type="line"/>
      <point x="77" y="0" type="line"/>
      <point x="183" y="502" type="line" smooth="yes"/>
      <point x="194" y="555"/>
      <point x="202" y="601"/>
      <point x="214" y="659" type="curve"/>
      <point x="216" y="659" type="line"/>
      <point x="498" y="0" type="line"/>
      <point x="518" y="0" type="line"/>
      <point x="669" y="714" type="line"/>
      <point x="643" y="714" type="line"/>
      <point x="536" y="211" type="line" smooth="yes"/>
      <point x="526" y="164"/>
      <point x="515" y="106"/>
      <point x="505" y="54" type="curve"/>
      <point x="503" y="54" type="line"/>
      <point x="220" y="714" type="line"/>
      <point x="201" y="714" type="line"/>
    </contour>
  </outline>
</glyph>
<glyph name="N.serif" format="2">
  <advance width="721"/>
  <unicode hex="004E"/>
  <anchor x="309" y="0" name="bottom"/>
  <anchor x="461" y="714" name="top"/>
  <anchor x="806" y="714" name="topright"/>
  <outline>
    <contour>
      <point x="-13" y="0" type="line"/>
      <point x="215" y="0" type="line"/>
      <point x="219" y="20" type="line"/>
      <point x="174" y="20" type="line" smooth="yes"/>
      <point x="141" y="20"/>
      <point x="128" y="25"/>
      <point x="128" y="51" type="curve" smooth="yes"/>
      <point x="128" y="64"/>
      <point x="131" y="82"/>
      <point x="137" y="108" type="curve" smooth="yes"/>
      <point x="255" y="664" type="line"/>
      <point x="492" y="0" type="line"/>
      <point x="519" y="0" type="line"/>
      <point x="648" y="606" type="line" smooth="yes"/>
      <point x="664" y="683"/>
      <point x="673" y="694"/>
      <point x="723" y="694" type="curve" smooth="yes"/>
      <point x="766" y="694" type="line"/>
      <point x="770" y="714" type="line"/>
      <point x="542" y="714" type="line"/>
      <point x="538" y="694" type="line"/>
      <point x="583" y="694" type="line" smooth="yes"/>
      <point x="616" y="694"/>
      <point x="629" y="689"/>
      <point x="629" y="663" type="curve" smooth="yes"/>
      <point x="629" y="650"/>
      <point x="626" y="632"/>
      <point x="620" y="606" type="curve" smooth="yes"/>
      <point x="502" y="53" type="line"/>
      <point x="265" y="714" type="line"/>
      <point x="139" y="714" type="line"/>
      <point x="135" y="694" type="line"/>
      <point x="178" y="694" type="line" smooth="yes"/>
      <point x="211" y="694"/>
      <point x="224" y="689"/>
      <point x="224" y="663" type="curve" smooth="yes"/>
      <point x="224" y="650"/>
      <point x="220" y="632"/>
      <point x="215" y="606" type="curve" smooth="yes"/>
      <point x="109" y="108" type="line" smooth="yes"/>
      <point x="93" y="31"/>
      <point x="84" y="20"/>
      <point x="34" y="20" type="curve" smooth="yes"/>
      <point x="-9" y="20" type="line"/>
    </contour>
  </outline>
</glyph>
<glyph name="O" format="2">
  <advance width="716"/>
  <unicode hex="004F"/>
  <anchor x="302" y="0" name="bottom"/>
  <anchor x="378" y="357" name="center"/>
  <anchor x="454" y="714" name="top"/>
  <anchor x="792" y="714" name="topright"/>
  <outline>
    <contour>
      <point x="334" y="-10" type="curve" smooth="yes"/>
      <point x="604" y="-10"/>
      <point x="676" y="290"/>
      <point x="676" y="446" type="curve" smooth="yes"/>
      <point x="676" y="636"/>
      <point x="579" y="725"/>
      <point x="431" y="725" type="curve" smooth="yes"/>
      <point x="193" y="725"/>
      <point x="84" y="495"/>
      <point x="84" y="276" type="curve" smooth="yes"/>
      <point x="84" y="120"/>
      <point x="150" y="-10"/>
    </contour>
    <contour>
      <point x="335" y="15" type="curve" smooth="yes"/>
      <point x="177" y="15"/>
      <point x="111" y="123"/>
      <point x="111" y="277" type="curve" smooth="yes"/>
      <point x="111" y="450"/>
      <point x="193" y="700"/>
      <point x="429" y="700" type="curve" smooth="yes"/>
      <point x="579" y="700"/>
      <point x="649" y="602"/>
      <point x="649" y="445" type="curve" smooth="yes"/>
      <point x="649" y="288"/>
      <point x="571" y="15"/>
    </contour>
  </outline>
</glyph>
<glyph name="O.serif" format="2">
  <advance width="689"/>
  <unicode hex="004F"/>
  <anchor x="295" y="0" name="bottom"/>
  <anchor x="390" y="357" name="center"/>
  <anchor x="447" y="714" name="top"/>
  <anchor x="765" y="714" name="topright"/>
  <outline>
    <contour>
      <point x="297" y="-11" type="curve" smooth="yes"/>
      <point x="542" y="-11"/>
      <point x="661" y="266"/>
      <point x="661" y="450" type="curve" smooth="yes"/>
      <point x="661" y="641"/>
      <point x="550" y="725"/>
      <point x="424" y="725" type="curve" smooth="yes"/>
      <point x="180" y="725"/>
      <point x="57" y="458"/>
      <point x="57" y="266" type="curve" smooth="yes"/>
      <point x="57" y="85"/>
      <point x="162" y="-11"/>
    </contour>
    <contour>
      <point x="300" y="14" type="curve" smooth="yes"/>
      <point x="185" y="14"/>
      <point x="85" y="88"/>
      <point x="85" y="266" type="curve" smooth="yes"/>
      <point x="85" y="444"/>
      <point x="202" y="700"/>
      <point x="417" y="700" type="curve" smooth="yes"/>
      <point x="537" y="700"/>
      <point x="633" y="628"/>
      <point x="633" y="449" type="curve" smooth="yes"/>
      <point x="633" y="274"/>
      <point x="518" y="14"/>
    </contour>
  </outline>
</glyph>
<glyph name="P" format="2">
  <advance width="558"/>
  <unicode hex="0050"/>
  <anchor x="223" y="0" name="bottom"/>
  <anchor x="375" y="714" name="top"/>
  <anchor x="634" y="714" name="topright"/>
  <outline>
    <contour>
      <point x="50" y="0" type="line"/>
      <point x="77" y="0" type="line"/>
      <point x="141" y="305" type="line"/>
      <point x="282" y="305" type="line" smooth="yes"/>
      <point x="472" y="305"/>
      <point x="558" y="402"/>
      <point x="558" y="538" type="curve" smooth="yes"/>
      <point x="558" y="654"/>
      <point x="487" y="714"/>
      <point x="356" y="714" type="curve" smooth="yes"/>
      <point x="201" y="714" type="line"/>
    </contour>
    <contour>
      <point x="286" y="330" type="curve" smooth="yes"/>
      <point x="147" y="330" type="line"/>
      <point x="223" y="689" type="line"/>
      <point x="351" y="689" type="line" smooth="yes"/>
      <point x="466" y="689"/>
      <point x="531" y="643"/>
      <point x="531" y="537" type="curve" smooth="yes"/>
      <point x="531" y="415"/>
      <point x="459" y="330"/>
    </contour>
  </outline>
</glyph>
<glyph name="P.serif" format="2">
  <advance width="555"/>
  <unicode hex="0050"/>
  <anchor x="101" y="0" name="bottom"/>
  <anchor x="379" y="714" name="top"/>
  <anchor x="640" y="714" name="topright"/>
  <outline>
    <contour>
      <point x="-13" y="0" type="line"/>
      <point x="228" y="0" type="line"/>
      <point x="232" y="20" type="line"/>
      <point x="173" y="20" type="line" smooth="yes"/>
      <point x="140" y="20"/>
      <point x="127" y="25"/>
      <point x="127" y="51" type="curve" smooth="yes"/>
      <point x="127" y="64"/>
      <point x="130" y="82"/>
      <point x="136" y="108" type="curve" smooth="yes"/>
      <point x="174" y="287" type="line"/>
      <point x="239" y="287" type="line" smooth="yes"/>
      <point x="498" y="287"/>
      <point x="547" y="424"/>
      <point x="547" y="523" type="curve" smooth="yes"/>
      <point x="547" y="650"/>
      <point x="471" y="714"/>
      <point x="345" y="714" type="curve" smooth="yes"/>
      <point x="140" y="714" type="line"/>
      <point x="135" y="694" type="line"/>
      <point x="170" y="694" type="line" smooth="yes"/>
      <point x="216" y="694"/>
      <point x="223" y="690"/>
      <point x="223" y="665" type="curve" smooth="yes"/>
      <point x="223" y="650"/>
      <point x="217" y="618"/>
      <point x="208" y="576" type="curve" smooth="yes"/>
      <point x="108" y="108" type="line" smooth="yes"/>
      <point x="91" y="31"/>
      <point x="83" y="20"/>
      <point x="33" y="20" type="curve" smooth="yes"/>
      <point x="-9" y="20" type="line"/>
    </contour>
    <contour>
      <point x="242" y="312" type="curve" smooth="yes"/>
      <point x="180" y="312" type="line"/>
      <point x="260" y="689" type="line"/>
      <point x="341" y="689" type="line" smooth="yes"/>
      <point x="459" y="689"/>
      <point x="519" y="630"/>
      <point x="519" y="523" type="curve" smooth="yes"/>
      <point x="519" y="405"/>
      <point x="442" y="312"/>
    </contour>
  </outline>
</glyph>
<glyph name="Q" format="2">
  <advance width="716"/>
  <unicode hex="0051"/>
  <anchor x="266" y="-170" name="bottom"/>
  <anchor x="454" y="714" name="top"/>
  <anchor x="792" y="714" name="topright"/>
  <outline>
    <contour>
      <point x="333" y="-10" type="curve"/>
      <point x="445" y="-170" type="line"/>
      <point x="480" y="-170" type="line"/>
      <point x="367" y="-9" type="line"/>
      <point x="609" y="15"/>
      <point x="676" y="296"/>
      <point x="676" y="446" type="curve" smooth="yes"/>
      <point x="676" y="636"/>
      <point x="579" y="725"/>
      <point x="431" y="725" type="curve" smooth="yes"/>
      <point x="193" y="725"/>
      <point x="84" y="495"/>
      <point x="84" y="276" type="curve" smooth="yes"/>
      <point x="84" y="115"/>
      <point x="154" y="-7"/>
      <point x="325" y="-10" type="curve" smooth="yes"/>
      <point x="329" y="-10"/>
      <point x="331" y="-10"/>
    </contour>
    <contour>
      <point x="335" y="15" type="curve" smooth="yes"/>
      <point x="177" y="15"/>
      <point x="111" y="123"/>
      <point x="111" y="277" type="curve" smooth="yes"/>
      <point x="111" y="450"/>
      <point x="193" y="700"/>
      <point x="429" y="700" type="curve" smooth="yes"/>
      <point x="579" y="700"/>
      <point x="649" y="602"/>
      <point x="649" y="445" type="curve" smooth="yes"/>
      <point x="649" y="288"/>
      <point x="571" y="15"/>
    </contour>
  </outline>
</glyph>
<glyph name="Q.serif" format="2">
  <advance width="689"/>
  <unicode hex="0051"/>
  <anchor x="242" y="-208" name="bottom"/>
  <anchor x="438" y="714" name="top"/>
  <anchor x="760" y="714" name="topright"/>
  <outline>
    <contour>
      <point x="427" y="-208" type="curve" smooth="yes"/>
      <point x="479" y="-208"/>
      <point x="511" y="-202"/>
      <point x="549" y="-192" type="curve"/>
      <point x="543" y="-167" type="line"/>
      <point x="506" y="-178"/>
      <point x="471" y="-183"/>
      <point x="427" y="-183" type="curve" smooth="yes"/>
      <point x="344" y="-183"/>
      <point x="315" y="-101"/>
      <point x="307" y="-11" type="curve"/>
      <point x="545" y="-4"/>
      <point x="661" y="268"/>
      <point x="661" y="450" type="curve" smooth="yes"/>
      <point x="661" y="641"/>
      <point x="550" y="725"/>
      <point x="424" y="725" type="curve" smooth="yes"/>
      <point x="180" y="725"/>
      <point x="57" y="458"/>
      <point x="57" y="266" type="curve" smooth="yes"/>
      <point x="57" y="93"/>
      <point x="153" y="-2"/>
      <point x="279" y="-10" type="curve"/>
      <point x="289" y="-118"/>
      <point x="322" y="-208"/>
    </contour>
    <contour>
      <point x="300" y="14" type="curve" smooth="yes"/>
      <point x="185" y="14"/>
      <point x="85" y="88"/>
      <point x="85" y="266" type="curve" smooth="yes"/>
      <point x="85" y="444"/>
      <point x="202" y="700"/>
      <point x="417" y="700" type="curve" smooth="yes"/>
      <point x="537" y="700"/>
      <point x="633" y="628"/>
      <point x="633" y="449" type="curve" smooth="yes"/>
      <point x="633" y="274"/>
      <point x="518" y="14"/>
    </contour>
  </outline>
</glyph>
<glyph name="R" format="2">
  <advance width="562"/>
  <unicode hex="0052"/>
  <anchor x="225" y="0" name="bottom"/>
  <anchor x="377" y="714" name="top"/>
  <anchor x="638" y="714" name="topright"/>
  <outline>
    <contour>
      <point x="50" y="0" type="line"/>
      <point x="77" y="0" type="line"/>
      <point x="145" y="320" type="line"/>
      <point x="332" y="320" type="line"/>
      <point x="446" y="0" type="line"/>
      <point x="475" y="0" type="line"/>
      <point x="358" y="325" type="line"/>
      <point x="487" y="347"/>
      <point x="558" y="421"/>
      <point x="558" y="549" type="curve" smooth="yes"/>
      <point x="558" y="660"/>
      <point x="487" y="714"/>
      <point x="348" y="714" type="curve" smooth="yes"/>
      <point x="201" y="714" type="line"/>
    </contour>
    <contour>
      <point x="302" y="345" type="curve" smooth="yes"/>
      <point x="150" y="345" type="line"/>
      <point x="223" y="689" type="line"/>
      <point x="342" y="689" type="line" smooth="yes"/>
      <point x="470" y="689"/>
      <point x="531" y="643"/>
      <point x="531" y="548" type="curve" smooth="yes"/>
      <point x="531" y="405"/>
      <point x="428" y="345"/>
    </contour>
  </outline>
</glyph>
<glyph name="R.serif" format="2">
  <advance width="609"/>
  <unicode hex="0052"/>
  <anchor x="249" y="0" name="bottom"/>
  <anchor x="401" y="714" name="top"/>
  <anchor x="684" y="714" name="topright"/>
  <outline>
    <contour>
      <point x="-13" y="0" type="line"/>
      <point x="228" y="0" type="line"/>
      <point x="232" y="20" type="line"/>
      <point x="173" y="20" type="line" smooth="yes"/>
      <point x="140" y="20"/>
      <point x="127" y="25"/>
      <point x="127" y="51" type="curve" smooth="yes"/>
      <point x="127" y="64"/>
      <point x="131" y="82"/>
      <point x="136" y="108" type="curve" smooth="yes"/>
      <point x="182" y="327" type="line"/>
      <point x="297" y="327" type="line"/>
      <point x="370" y="90" type="line" smooth="yes"/>
      <point x="393" y="13"/>
      <point x="418" y="0"/>
      <point x="468" y="0" type="curve" smooth="yes"/>
      <point x="496" y="0" type="line"/>
      <point x="502" y="25" type="line"/>
      <point x="476" y="25" type="line" smooth="yes"/>
      <point x="432" y="25"/>
      <point x="416" y="36"/>
      <point x="397" y="96" type="curve" smooth="yes"/>
      <point x="324" y="327" type="line"/>
      <point x="497" y="336"/>
      <point x="541" y="465"/>
      <point x="541" y="541" type="curve" smooth="yes"/>
      <point x="541" y="656"/>
      <point x="471" y="714"/>
      <point x="345" y="714" type="curve" smooth="yes"/>
      <point x="140" y="714" type="line"/>
      <point x="135" y="694" type="line"/>
      <point x="170" y="694" type="line" smooth="yes"/>
      <point x="216" y="694"/>
      <point x="223" y="690"/>
      <point x="223" y="665" type="curve" smooth="yes"/>
      <point x="223" y="650"/>
      <point x="217" y="618"/>
      <point x="208" y="576" type="curve" smooth="yes"/>
      <point x="108" y="108" type="line" smooth="yes"/>
      <point x="91" y="31"/>
      <point x="83" y="20"/>
      <point x="33" y="20" type="curve" smooth="yes"/>
      <point x="-9" y="20" type="line"/>
    </contour>
    <contour>
      <point x="304" y="352" type="curve" smooth="yes"/>
      <point x="188" y="352" type="line"/>
      <point x="260" y="689" type="line"/>
      <point x="341" y="689" type="line" smooth="yes"/>
      <point x="459" y="689"/>
      <point x="513" y="636"/>
      <point x="513" y="541" type="curve" smooth="yes"/>
      <point x="513" y="439"/>
      <point x="444" y="352"/>
    </contour>
  </outline>
</glyph>
<glyph name="S" format="2">
  <advance width="498"/>
  <unicode hex="0053"/>
  <anchor x="193" y="0" name="bottom"/>
  <anchor x="345" y="714" name="top"/>
  <anchor x="574" y="714" name="topright"/>
  <outline>
    <contour>
      <point x="198" y="-10" type="curve" smooth="yes"/>
      <point x="301" y="-10"/>
      <point x="434" y="41"/>
      <point x="434" y="184" type="curve" smooth="yes"/>
      <point x="434" y="290"/>
      <point x="361" y="333"/>
      <point x="269" y="381" type="curve" smooth="yes"/>
      <point x="207" y="413"/>
      <point x="144" y="448"/>
      <point x="144" y="532" type="curve" smooth="yes"/>
      <point x="144" y="662"/>
      <point x="265" y="699"/>
      <point x="343" y="699" type="curve" smooth="yes"/>
      <point x="405" y="699"/>
      <point x="444" y="689"/>
      <point x="498" y="662" type="curve"/>
      <point x="509" y="687" type="line"/>
      <point x="461" y="710"/>
      <point x="416" y="724"/>
      <point x="344" y="724" type="curve" smooth="yes"/>
      <point x="237" y="724"/>
      <point x="117" y="672"/>
      <point x="117" y="531" type="curve" smooth="yes"/>
      <point x="117" y="441"/>
      <point x="185" y="393"/>
      <point x="252" y="360" type="curve" smooth="yes"/>
      <point x="343" y="315"/>
      <point x="407" y="276"/>
      <point x="407" y="184" type="curve" smooth="yes"/>
      <point x="407" y="60"/>
      <point x="287" y="15"/>
      <point x="198" y="15" type="curve" smooth="yes"/>
      <point x="123" y="15"/>
      <point x="66" y="30"/>
      <point x="19" y="53" type="curve"/>
      <point x="19" y="24" type="line"/>
      <point x="62" y="6"/>
      <point x="112" y="-10"/>
    </contour>
  </outline>
</glyph>
<glyph name="S.serif" format="2">
  <advance width="489"/>
  <unicode hex="0053"/>
  <anchor x="189" y="0" name="bottom"/>
  <anchor x="341" y="714" name="top"/>
  <anchor x="564" y="714" name="topright"/>
  <outline>
    <contour>
      <point x="195" y="-10" type="curve" smooth="yes"/>
      <point x="339" y="-10"/>
      <point x="428" y="58"/>
      <point x="428" y="174" type="curve" smooth="yes"/>
      <point x="428" y="257"/>
      <point x="392" y="302"/>
      <point x="266" y="377" type="curve" smooth="yes"/>
      <point x="191" y="422"/>
      <point x="150" y="461"/>
      <point x="150" y="531" type="curve" smooth="yes"/>
      <point x="150" y="645"/>
      <point x="236" y="699"/>
      <point x="326" y="699" type="curve" smooth="yes"/>
      <point x="441" y="699"/>
      <point x="463" y="641"/>
      <point x="461" y="575" type="curve"/>
      <point x="477" y="575"/>
      <point x="488" y="585"/>
      <point x="488" y="605" type="curve" smooth="yes"/>
      <point x="488" y="660"/>
      <point x="452" y="724"/>
      <point x="328" y="724" type="curve" smooth="yes"/>
      <point x="199" y="724"/>
      <point x="122" y="640"/>
      <point x="122" y="531" type="curve" smooth="yes"/>
      <point x="122" y="443"/>
      <point x="171" y="401"/>
      <point x="252" y="354" type="curve" smooth="yes"/>
      <point x="373" y="283"/>
      <point x="400" y="242"/>
      <point x="400" y="174" type="curve" smooth="yes"/>
      <point x="400" y="70"/>
      <point x="320" y="15"/>
      <point x="195" y="15" type="curve" smooth="yes"/>
      <point x="71" y="15"/>
      <point x="20" y="73"/>
      <point x="20" y="188" type="curve"/>
      <point x="4" y="187"/>
      <point x="-7" y="177"/>
      <point x="-7" y="158" type="curve" smooth="yes"/>
      <point x="-7" y="64"/>
      <point x="56" y="-10"/>
    </contour>
  </outline>
</glyph>
<glyph name="T" format="2">
  <advance width="485"/>
  <unicode hex="0054"/>
  <anchor x="187" y="0" name="bottom"/>
  <anchor x="263" y="357" name="center"/>
  <anchor x="339" y="714" name="top"/>
  <anchor x="561" y="714" name="topright"/>
  <outline>
    <contour>
      <point x="172" y="0" type="line"/>
      <point x="199" y="0" type="line"/>
      <point x="345" y="689" type="line"/>
      <point x="571" y="689" type="line"/>
      <point x="576" y="714" type="line"/>
      <point x="98" y="714" type="line"/>
      <point x="93" y="689" type="line"/>
      <point x="318" y="689" type="line"/>
    </contour>
  </outline>
</glyph>
<glyph name="T.serif" format="2">
  <advance width="562"/>
  <unicode hex="0054"/>
  <anchor x="224" y="0" name="bottom"/>
  <anchor x="319" y="357" name="center"/>
  <anchor x="376" y="714" name="top"/>
  <anchor x="637" y="714" name="topright"/>
  <outline>
    <contour>
      <point x="75" y="0" type="line"/>
      <point x="346" y="0" type="line"/>
      <point x="351" y="20" type="line"/>
      <point x="314" y="20" type="line" smooth="yes"/>
      <point x="248" y="20"/>
      <point x="241" y="25"/>
      <point x="241" y="55" type="curve" smooth="yes"/>
      <point x="241" y="61"/>
      <point x="243" y="78"/>
      <point x="248" y="102" type="curve" smooth="yes"/>
      <point x="373" y="689" type="line"/>
      <point x="510" y="689" type="line" smooth="yes"/>
      <point x="562" y="689"/>
      <point x="566" y="682"/>
      <point x="566" y="651" type="curve" smooth="yes"/>
      <point x="566" y="627"/>
      <point x="563" y="600"/>
      <point x="557" y="563" type="curve"/>
      <point x="582" y="563" type="line"/>
      <point x="610" y="714" type="line"/>
      <point x="122" y="714" type="line"/>
      <point x="86" y="563" type="line"/>
      <point x="111" y="563" type="line"/>
      <point x="123" y="611" type="line" smooth="yes"/>
      <point x="142" y="687"/>
      <point x="146" y="689"/>
      <point x="230" y="689" type="curve" smooth="yes"/>
      <point x="345" y="689" type="line"/>
      <point x="220" y="102" type="line" smooth="yes"/>
      <point x="204" y="25"/>
      <point x="196" y="20"/>
      <point x="116" y="20" type="curve" smooth="yes"/>
      <point x="80" y="20" type="line"/>
    </contour>
  </outline>
</glyph>
<glyph name="U" format="2">
  <advance width="692"/>
  <unicode hex="0055"/>
  <anchor x="290" y="0" name="bottom"/>
  <anchor x="442" y="714" name="top"/>
  <anchor x="768" y="714" name="topright"/>
  <outline>
    <contour>
      <point x="300" y="-10" type="curve" smooth="yes"/>
      <point x="448" y="-10"/>
      <point x="556" y="69"/>
      <point x="595" y="252" type="curve" smooth="yes"/>
      <point x="693" y="714" type="line"/>
      <point x="666" y="714" type="line"/>
      <point x="568" y="257" type="line" smooth="yes"/>
      <point x="533" y="94"/>
      <point x="436" y="15"/>
      <point x="301" y="15" type="curve" smooth="yes"/>
      <point x="188" y="15"/>
      <point x="116" y="74"/>
      <point x="116" y="185" type="curve" smooth="yes"/>
      <point x="116" y="206"/>
      <point x="119" y="231"/>
      <point x="124" y="256" type="curve" smooth="yes"/>
      <point x="221" y="714" type="line"/>
      <point x="194" y="714" type="line"/>
      <point x="96" y="254" type="line" smooth="yes"/>
      <point x="91" y="228"/>
      <point x="88" y="205"/>
      <point x="88" y="183" type="curve" smooth="yes"/>
      <point x="88" y="58"/>
      <point x="172" y="-10"/>
    </contour>
  </outline>
</glyph>
<glyph name="U.serif" format="2">
  <advance width="718"/>
  <unicode hex="0055"/>
  <anchor x="298" y="0" name="bottom"/>
  <anchor x="450" y="714" name="top"/>
  <anchor x="783" y="714" name="topright"/>
  <outline>
    <contour>
      <point x="313" y="-10" type="curve" smooth="yes"/>
      <point x="472" y="-10"/>
      <point x="534" y="71"/>
      <point x="558" y="184" type="curve" smooth="yes"/>
      <point x="647" y="606" type="line" smooth="yes"/>
      <point x="663" y="683"/>
      <point x="672" y="694"/>
      <point x="722" y="694" type="curve" smooth="yes"/>
      <point x="765" y="694" type="line"/>
      <point x="769" y="714" type="line"/>
      <point x="541" y="714" type="line"/>
      <point x="537" y="694" type="line"/>
      <point x="582" y="694" type="line" smooth="yes"/>
      <point x="615" y="694"/>
      <point x="628" y="689"/>
      <point x="628" y="663" type="curve" smooth="yes"/>
      <point x="628" y="650"/>
      <point x="624" y="632"/>
      <point x="619" y="606" type="curve" smooth="yes"/>
      <point x="529" y="185" type="line" smooth="yes"/>
      <point x="510" y="96"/>
      <point x="456" y="15"/>
      <point x="313" y="15" type="curve" smooth="yes"/>
      <point x="208" y="15"/>
      <point x="146" y="74"/>
      <point x="146" y="159" type="curve" smooth="yes"/>
      <point x="146" y="177"/>
      <point x="149" y="218"/>
      <point x="160" y="268" type="curve" smooth="yes"/>
      <point x="233" y="606" type="line" smooth="yes"/>
      <point x="249" y="683"/>
      <point x="258" y="694"/>
      <point x="308" y="694" type="curve" smooth="yes"/>
      <point x="353" y="694" type="line"/>
      <point x="357" y="714" type="line"/>
      <point x="129" y="714" type="line"/>
      <point x="125" y="694" type="line"/>
      <point x="168" y="694" type="line" smooth="yes"/>
      <point x="201" y="694"/>
      <point x="214" y="689"/>
      <point x="214" y="663" type="curve" smooth="yes"/>
      <point x="214" y="650"/>
      <point x="211" y="632"/>
      <point x="205" y="606" type="curve" smooth="yes"/>
      <point x="132" y="267" type="line" smooth="yes"/>
      <point x="122" y="221"/>
      <point x="118" y="182"/>
      <point x="118" y="161" type="curve" smooth="yes"/>
      <point x="118" y="51"/>
      <point x="193" y="-10"/>
    </contour>
  </outline>
</glyph>
<glyph name="V" format="2">
  <advance width="535"/>
  <unicode hex="0056"/>
  <anchor x="212" y="0" name="bottom"/>
  <anchor x="364" y="714" name="top"/>
  <anchor x="611" y="714" name="topright"/>
  <outline>
    <contour>
      <point x="196" y="0" type="line"/>
      <point x="219" y="0" type="line"/>
      <point x="610" y="714" type="line"/>
      <point x="581" y="714" type="line"/>
      <point x="272" y="144" type="line" smooth="yes"/>
      <point x="247" y="99"/>
      <point x="230" y="67"/>
      <point x="215" y="37" type="curve"/>
      <point x="213" y="37" type="line"/>
      <point x="211" y="69"/>
      <point x="207" y="110"/>
      <point x="202" y="146" type="curve" smooth="yes"/>
      <point x="131" y="714" type="line"/>
      <point x="106" y="714" type="line"/>
    </contour>
  </outline>
</glyph>
<glyph name="V.serif" format="2">
  <advance width="645"/>
  <unicode hex="0056"/>
  <anchor x="265" y="0" name="bottom"/>
  <anchor x="417" y="714" name="top"/>
  <anchor x="720" y="714" name="topright"/>
  <outline>
    <contour>
      <point x="151" y="605" type="curve" smooth="yes"/>
      <point x="239" y="0" type="line"/>
      <point x="261" y="0" type="line"/>
      <point x="606" y="616" type="line" smooth="yes"/>
      <point x="648" y="690"/>
      <point x="653" y="694"/>
      <point x="705" y="694" type="curve" smooth="yes"/>
      <point x="722" y="694" type="line"/>
      <point x="727" y="714" type="line"/>
      <point x="509" y="714" type="line"/>
      <point x="504" y="694" type="line"/>
      <point x="547" y="694" type="line" smooth="yes"/>
      <point x="589" y="694"/>
      <point x="598" y="692"/>
      <point x="598" y="672" type="curve" smooth="yes"/>
      <point x="598" y="658"/>
      <point x="583" y="627"/>
      <point x="569" y="602" type="curve" smooth="yes"/>
      <point x="354" y="221" type="line" smooth="yes"/>
      <point x="317" y="156"/>
      <point x="282" y="92"/>
      <point x="260" y="44" type="curve"/>
      <point x="254" y="92"/>
      <point x="242" y="171"/>
      <point x="234" y="230" type="curve" smooth="yes"/>
      <point x="180" y="606" type="line" smooth="yes"/>
      <point x="179" y="613"/>
      <point x="175" y="639"/>
      <point x="175" y="654" type="curve" smooth="yes"/>
      <point x="175" y="687"/>
      <point x="183" y="694"/>
      <point x="229" y="694" type="curve" smooth="yes"/>
      <point x="262" y="694" type="line"/>
      <point x="267" y="714" type="line"/>
      <point x="84" y="714" type="line"/>
      <point x="79" y="694" type="line"/>
      <point x="97" y="694" type="line" smooth="yes"/>
      <point x="133" y="694"/>
      <point x="139" y="688"/>
    </contour>
  </outline>
</glyph>
<glyph name="W" format="2">
  <advance width="826"/>
  <unicode hex="0057"/>
  <anchor x="357" y="0" name="bottom"/>
  <anchor x="509" y="714" name="top"/>
  <anchor x="902" y="714" name="topright"/>
  <outline>
    <contour>
      <point x="160" y="0" type="line"/>
      <point x="182" y="0" type="line"/>
      <point x="470" y="601" type="line" smooth="yes"/>
      <point x="480" y="622"/>
      <point x="489" y="642"/>
      <point x="501" y="674" type="curve"/>
      <point x="503" y="674" type="line"/>
      <point x="503" y="642"/>
      <point x="504" y="616"/>
      <point x="506" y="580" type="curve" smooth="yes"/>
      <point x="543" y="0" type="line"/>
      <point x="565" y="0" type="line"/>
      <point x="891" y="714" type="line"/>
      <point x="863" y="714" type="line"/>
      <point x="614" y="166" type="line" smooth="yes"/>
      <point x="593" y="120"/>
      <point x="578" y="84"/>
      <point x="564" y="48" type="curve"/>
      <point x="561" y="48" type="line"/>
      <point x="561" y="85"/>
      <point x="560" y="130"/>
      <point x="558" y="167" type="curve" smooth="yes"/>
      <point x="522" y="714" type="line"/>
      <point x="497" y="714" type="line"/>
      <point x="234" y="167" type="line" smooth="yes"/>
      <point x="210" y="117"/>
      <point x="198" y="89"/>
      <point x="182" y="52" type="curve"/>
      <point x="179" y="52" type="line"/>
      <point x="179" y="91"/>
      <point x="178" y="132"/>
      <point x="176" y="171" type="curve" smooth="yes"/>
      <point x="149" y="714" type="line"/>
      <point x="125" y="714" type="line"/>
    </contour>
  </outline>
</glyph>
<glyph name="W.serif" format="2">
  <advance width="989"/>
  <unicode hex="0057"/>
  <anchor x="452" y="0" name="bottom"/>
  <anchor x="604" y="714" name="top"/>
  <anchor x="1092" y="714" name="topright"/>
  <outline>
    <contour>
      <point x="165" y="605" type="curve" smooth="yes"/>
      <point x="223" y="0" type="line"/>
      <point x="247" y="0" type="line"/>
      <point x="562" y="662" type="line"/>
      <point x="613" y="0" type="line"/>
      <point x="637" y="0" type="line"/>
      <point x="949" y="616" type="line" smooth="yes"/>
      <point x="988" y="693"/>
      <point x="996" y="694"/>
      <point x="1048" y="694" type="curve" smooth="yes"/>
      <point x="1055" y="694" type="line"/>
      <point x="1060" y="714" type="line"/>
      <point x="862" y="714" type="line"/>
      <point x="857" y="694" type="line"/>
      <point x="889" y="694" type="line" smooth="yes"/>
      <point x="931" y="694"/>
      <point x="940" y="692"/>
      <point x="940" y="672" type="curve" smooth="yes"/>
      <point x="940" y="658"/>
      <point x="927" y="628"/>
      <point x="914" y="602" type="curve" smooth="yes"/>
      <point x="720" y="223" type="line" smooth="yes"/>
      <point x="685" y="155"/>
      <point x="655" y="92"/>
      <point x="634" y="44" type="curve"/>
      <point x="631" y="102"/>
      <point x="626" y="175"/>
      <point x="621" y="234" type="curve" smooth="yes"/>
      <point x="584" y="708" type="line"/>
      <point x="555" y="708" type="line"/>
      <point x="325" y="225" type="line" smooth="yes"/>
      <point x="292" y="155"/>
      <point x="264" y="94"/>
      <point x="243" y="46" type="curve"/>
      <point x="240" y="94"/>
      <point x="232" y="175"/>
      <point x="226" y="234" type="curve" smooth="yes"/>
      <point x="191" y="606" type="line"/>
      <point x="190" y="613"/>
      <point x="188" y="639"/>
      <point x="188" y="654" type="curve" smooth="yes"/>
      <point x="188" y="687"/>
      <point x="196" y="694"/>
      <point x="242" y="694" type="curve" smooth="yes"/>
      <point x="285" y="694" type="line"/>
      <point x="290" y="714" type="line"/>
      <point x="100" y="714" type="line"/>
      <point x="95" y="694" type="line"/>
      <point x="112" y="694" type="line" smooth="yes"/>
      <point x="148" y="694"/>
      <point x="157" y="688"/>
    </contour>
  </outline>
</glyph>
<glyph name="X" format="2">
  <advance width="489"/>
  <unicode hex="0058"/>
  <anchor x="189" y="0" name="bottom"/>
  <anchor x="341" y="714" name="top"/>
  <anchor x="565" y="714" name="topright"/>
  <outline>
    <contour>
      <point x="-59" y="0" type="line"/>
      <point x="-27" y="0" type="line"/>
      <point x="262" y="350" type="line"/>
      <point x="403" y="0" type="line"/>
      <point x="430" y="0" type="line"/>
      <point x="281" y="369" type="line"/>
      <point x="564" y="714" type="line"/>
      <point x="533" y="714" type="line"/>
      <point x="269" y="390" type="line"/>
      <point x="143" y="714" type="line"/>
      <point x="116" y="714" type="line"/>
      <point x="251" y="372" type="line"/>
    </contour>
  </outline>
</glyph>
<glyph name="X.serif" format="2">
  <advance width="570"/>
  <unicode hex="0058"/>
  <anchor x="228" y="0" name="bottom"/>
  <anchor x="380" y="714" name="top"/>
  <anchor x="644" y="714" name="topright"/>
  <outline>
    <contour>
      <point x="-52" y="0" type="line"/>
      <point x="164" y="0" type="line"/>
      <point x="169" y="20" type="line"/>
      <point x="140" y="20" type="line" smooth="yes"/>
      <point x="86" y="20"/>
      <point x="81" y="24"/>
      <point x="81" y="39" type="curve" smooth="yes"/>
      <point x="81" y="45"/>
      <point x="88" y="62"/>
      <point x="127" y="117" type="curve" smooth="yes"/>
      <point x="298" y="352" type="line"/>
      <point x="289" y="357" type="line"/>
      <point x="376" y="124" type="line" smooth="yes"/>
      <point x="394" y="75"/>
      <point x="402" y="49"/>
      <point x="402" y="42" type="curve" smooth="yes"/>
      <point x="402" y="24"/>
      <point x="392" y="20"/>
      <point x="342" y="20" type="curve" smooth="yes"/>
      <point x="316" y="20" type="line"/>
      <point x="311" y="0" type="line"/>
      <point x="502" y="0" type="line"/>
      <point x="507" y="20" type="line"/>
      <point x="476" y="20" type="line" smooth="yes"/>
      <point x="451" y="20"/>
      <point x="444" y="23"/>
      <point x="428" y="65" type="curve" smooth="yes"/>
      <point x="309" y="376" type="line"/>
      <point x="307" y="360" type="line"/>
      <point x="493" y="613" type="line" smooth="yes"/>
      <point x="551" y="692"/>
      <point x="555" y="694"/>
      <point x="613" y="694" type="curve" smooth="yes"/>
      <point x="632" y="694" type="line"/>
      <point x="637" y="714" type="line"/>
      <point x="426" y="714" type="line"/>
      <point x="421" y="694" type="line"/>
      <point x="442" y="694" type="line" smooth="yes"/>
      <point x="492" y="694"/>
      <point x="496" y="691"/>
      <point x="496" y="678" type="curve" smooth="yes"/>
      <point x="496" y="665"/>
      <point x="489" y="654"/>
      <point x="470" y="627" type="curve" smooth="yes"/>
      <point x="295" y="384" type="line"/>
      <point x="306" y="386" type="line"/>
      <point x="232" y="596" type="line" smooth="yes"/>
      <point x="217" y="638"/>
      <point x="211" y="659"/>
      <point x="211" y="675" type="curve" smooth="yes"/>
      <point x="211" y="690"/>
      <point x="216" y="694"/>
      <point x="247" y="694" type="curve" smooth="yes"/>
      <point x="287" y="694" type="line"/>
      <point x="292" y="714" type="line"/>
      <point x="107" y="714" type="line"/>
      <point x="102" y="694" type="line"/>
      <point x="119" y="694" type="line" smooth="yes"/>
      <point x="168" y="694"/>
      <point x="170" y="691"/>
      <point x="187" y="643" type="curve" smooth="yes"/>
      <point x="288" y="362" type="line"/>
      <point x="288" y="379" type="line"/>
      <point x="77" y="92" type="line" smooth="yes"/>
      <point x="26" y="23"/>
      <point x="21" y="20"/>
      <point x="-26" y="20" type="curve" smooth="yes"/>
      <point x="-47" y="20" type="line"/>
    </contour>
  </outline>
</glyph>
<glyph name="Y" format="2">
  <advance width="485"/>
  <unicode hex="0059"/>
  <anchor x="187" y="0" name="bottom"/>
  <anchor x="339" y="714" name="top"/>
  <anchor x="561" y="714" name="topright"/>
  <outline>
    <contour>
      <point x="174" y="0" type="line"/>
      <point x="201" y="0" type="line"/>
      <point x="259" y="275" type="line"/>
      <point x="578" y="714" type="line"/>
      <point x="547" y="714" type="line"/>
      <point x="249" y="301" type="line"/>
      <point x="123" y="714" type="line"/>
      <point x="96" y="714" type="line"/>
      <point x="231" y="271" type="line"/>
    </contour>
  </outline>
</glyph>
<glyph name="Y.serif" format="2">
  <advance width="538"/>
  <unicode hex="0059"/>
  <anchor x="211" y="0" name="bottom"/>
  <anchor x="363" y="714" name="top"/>
  <anchor x="613" y="714" name="topright"/>
  <outline>
    <contour>
      <point x="96" y="0" type="line"/>
      <point x="322" y="0" type="line"/>
      <point x="326" y="20" type="line"/>
      <point x="283" y="20" type="line" smooth="yes"/>
      <point x="250" y="20"/>
      <point x="237" y="25"/>
      <point x="237" y="51" type="curve" smooth="yes"/>
      <point x="237" y="64"/>
      <point x="240" y="82"/>
      <point x="246" y="108" type="curve" smooth="yes"/>
      <point x="297" y="348" type="line"/>
      <point x="528" y="630" type="line" smooth="yes"/>
      <point x="578" y="691"/>
      <point x="581" y="694"/>
      <point x="611" y="694" type="curve" smooth="yes"/>
      <point x="630" y="694" type="line"/>
      <point x="635" y="714" type="line"/>
      <point x="428" y="714" type="line"/>
      <point x="423" y="694" type="line"/>
      <point x="484" y="694" type="line" smooth="yes"/>
      <point x="519" y="694"/>
      <point x="522" y="688"/>
      <point x="522" y="677" type="curve" smooth="yes"/>
      <point x="522" y="666"/>
      <point x="519" y="657"/>
      <point x="466" y="593" type="curve" smooth="yes"/>
      <point x="359" y="462" type="line" smooth="yes"/>
      <point x="326" y="422"/>
      <point x="303" y="394"/>
      <point x="286" y="371" type="curve"/>
      <point x="276" y="400"/>
      <point x="255" y="451"/>
      <point x="240" y="487" type="curve" smooth="yes"/>
      <point x="184" y="621" type="line" smooth="yes"/>
      <point x="172" y="650"/>
      <point x="168" y="664"/>
      <point x="168" y="677" type="curve" smooth="yes"/>
      <point x="168" y="689"/>
      <point x="173" y="694"/>
      <point x="207" y="694" type="curve" smooth="yes"/>
      <point x="271" y="694" type="line"/>
      <point x="276" y="714" type="line"/>
      <point x="77" y="714" type="line"/>
      <point x="72" y="694" type="line"/>
      <point x="85" y="694" type="line" smooth="yes"/>
      <point x="124" y="694"/>
      <point x="128" y="691"/>
      <point x="143" y="655" type="curve" smooth="yes"/>
      <point x="269" y="350" type="line"/>
      <point x="218" y="108" type="line" smooth="yes"/>
      <point x="202" y="31"/>
      <point x="193" y="20"/>
      <point x="143" y="20" type="curve" smooth="yes"/>
      <point x="100" y="20" type="line"/>
    </contour>
  </outline>
</glyph>
<glyph name="Z" format="2">
  <advance width="538"/>
  <unicode hex="005A"/>
  <anchor x="213" y="0" name="bottom"/>
  <anchor x="365" y="714" name="top"/>
  <anchor x="614" y="714" name="topright"/>
  <outline>
    <contour>
      <point x="-8" y="0" type="line"/>
      <point x="431" y="0" type="line"/>
      <point x="436" y="25" type="line"/>
      <point x="34" y="25" type="line"/>
      <point x="567" y="696" type="line"/>
      <point x="571" y="714" type="line"/>
      <point x="160" y="714" type="line"/>
      <point x="155" y="689" type="line"/>
      <point x="529" y="689" type="line"/>
      <point x="-5" y="18" type="line"/>
    </contour>
  </outline>
</glyph>
<glyph name="Z.serif" format="2">
  <advance width="526"/>
  <unicode hex="005A"/>
  <anchor x="205" y="0" name="bottom"/>
  <anchor x="357" y="714" name="top"/>
  <anchor x="601" y="714" name="topright"/>
  <outline>
    <contour>
      <point x="-27" y="0" type="line"/>
      <point x="440" y="0" type="line"/>
      <point x="474" y="134" type="line"/>
      <point x="449" y="134" type="line"/>
      <point x="431" y="72" type="line" smooth="yes"/>
      <point x="419" y="31"/>
      <point x="414" y="25"/>
      <point x="366" y="25" type="curve" smooth="yes"/>
      <point x="17" y="25" type="line"/>
      <point x="558" y="696" type="line"/>
      <point x="562" y="714" type="line"/>
      <point x="116" y="714" type="line"/>
      <point x="84" y="591" type="line"/>
      <point x="109" y="591" type="line"/>
      <point x="126" y="646" type="line" smooth="yes"/>
      <point x="138" y="684"/>
      <point x="144" y="689"/>
      <point x="204" y="689" type="curve" smooth="yes"/>
      <point x="518" y="689" type="line"/>
      <point x="-23" y="17" type="line"/>
    </contour>
  </outline>
</glyph>
<glyph name="bracketleft" format="2">
  <advance width="303"/>
  <unicode hex="005B"/>
  <outline>
    <contour>
      <point x="-9" y="-158" type="line"/>
      <point x="184" y="-158" type="line"/>
      <point x="191" y="-131" type="line"/>
      <point x="24" y="-131" type="line"/>
      <point x="198" y="687" type="line"/>
      <point x="363" y="687" type="line"/>
      <point x="369" y="714" type="line"/>
      <point x="177" y="714" type="line"/>
    </contour>
  </outline>
</glyph>
<glyph name="backslash" format="2">
  <advance width="306"/>
  <unicode hex="005C"/>
  <outline>
    <contour>
      <point x="228" y="0" type="line"/>
      <point x="251" y="0" type="line"/>
      <point x="122" y="714" type="line"/>
      <point x="98" y="714" type="line"/>
    </contour>
  </outline>
</glyph>
<glyph name="bracketright" format="2">
  <advance width="303"/>
  <unicode hex="005D"/>
  <outline>
    <contour>
      <point x="-72" y="-158" type="line"/>
      <point x="120" y="-158" type="line"/>
      <point x="306" y="714" type="line"/>
      <point x="113" y="714" type="line"/>
      <point x="106" y="687" type="line"/>
      <point x="273" y="687" type="line"/>
      <point x="99" y="-131" type="line"/>
      <point x="-66" y="-131" type="line"/>
    </contour>
  </outline>
</glyph>
<glyph name="asciicircum" format="2">
  <advance width="550"/>
  <unicode hex="005E"/>
  <outline>
    <contour>
      <point x="50" y="278" type="line"/>
      <point x="82" y="278" type="line"/>
      <point x="369" y="686" type="line"/>
      <point x="479" y="278" type="line"/>
      <point x="504" y="278" type="line"/>
      <point x="386" y="719" type="line"/>
      <point x="362" y="719" type="line"/>
    </contour>
  </outline>
</glyph>
<glyph name="underscore" format="2">
  <advance width="371"/>
  <unicode hex="005F"/>
  <outline>
    <contour>
      <point x="-85" y="-134" type="line"/>
      <point x="286" y="-134" type="line"/>
      <point x="292" y="-109" type="line"/>
      <point x="-79" y="-109" type="line"/>
    </contour>
  </outline>
</glyph>
<glyph name="grave" format="2">
  <advance width="226"/>
  <unicode hex="0060"/>
  <anchor x="201" y="531" name="_top"/>
  <outline>
    <contour>
      <point x="244" y="606" type="curve"/>
      <point x="259" y="606" type="line"/>
      <point x="259" y="618" type="line"/>
      <point x="236" y="649"/>
      <point x="195" y="715"/>
      <point x="175" y="766" type="curve"/>
      <point x="147" y="766" type="line"/>
      <point x="147" y="756" type="line"/>
      <point x="164" y="720"/>
      <point x="213" y="642"/>
    </contour>
  </outline>
</glyph>
<glyph name="grave.serif" format="2">
  <advance width="203"/>
  <unicode hex="0060"/>
  <outline>
    <contour>
      <point x="220" y="606" type="curve"/>
      <point x="234" y="606" type="line"/>
      <point x="237" y="614" type="line"/>
      <point x="212" y="667"/>
      <point x="186" y="728"/>
      <point x="175" y="766" type="curve"/>
      <point x="147" y="766" type="line"/>
      <point x="144" y="758" type="line"/>
      <point x="168" y="704"/>
      <point x="188" y="665"/>
    </contour>
  </outline>
</glyph>
<glyph name="a" format="2">
  <advance width="547"/>
  <unicode hex="0061"/>
  <anchor x="218" y="0" name="bottom"/>
  <anchor x="330" y="528" name="top"/>
  <anchor x="583" y="528" name="topright"/>
  <outline>
    <contour>
      <point x="197" y="-10" type="curve" smooth="yes"/>
      <point x="291" y="-10"/>
      <point x="369" y="78"/>
      <point x="403" y="139" type="curve"/>
      <point x="405" y="139" type="line"/>
      <point x="377" y="0" type="line"/>
      <point x="399" y="0" type="line"/>
      <point x="511" y="528" type="line"/>
      <point x="489" y="528" type="line"/>
      <point x="462" y="407" type="line"/>
      <point x="460" y="407" type="line"/>
      <point x="450" y="465"/>
      <point x="413" y="538"/>
      <point x="319" y="538" type="curve" smooth="yes"/>
      <point x="142" y="538"/>
      <point x="51" y="341"/>
      <point x="51" y="178" type="curve" smooth="yes"/>
      <point x="51" y="65"/>
      <point x="101" y="-10"/>
    </contour>
    <contour>
      <point x="200" y="15" type="curve" smooth="yes"/>
      <point x="118" y="15"/>
      <point x="78" y="78"/>
      <point x="78" y="178" type="curve" smooth="yes"/>
      <point x="78" y="336"/>
      <point x="162" y="513"/>
      <point x="318" y="513" type="curve" smooth="yes"/>
      <point x="395" y="513"/>
      <point x="442" y="457"/>
      <point x="442" y="358" type="curve" smooth="yes"/>
      <point x="442" y="333"/>
      <point x="438" y="305"/>
      <point x="430" y="264" type="curve" smooth="yes"/>
      <point x="402" y="123"/>
      <point x="291" y="15"/>
    </contour>
  </outline>
</glyph>
<glyph name="a.serif" format="2">
  <advance width="488"/>
  <unicode hex="0061"/>
  <anchor x="181" y="0" name="bottom"/>
  <anchor x="295" y="536" name="top"/>
  <anchor x="518" y="536" name="topright"/>
  <outline>
    <contour>
      <point x="151" y="-10" type="curve" smooth="yes"/>
      <point x="205" y="-10"/>
      <point x="269" y="32"/>
      <point x="332" y="161" type="curve"/>
      <point x="336" y="161" type="line"/>
      <point x="330" y="135"/>
      <point x="325" y="107"/>
      <point x="325" y="83" type="curve" smooth="yes"/>
      <point x="325" y="20"/>
      <point x="345" y="-10"/>
      <point x="388" y="-10" type="curve" smooth="yes"/>
      <point x="422" y="-10"/>
      <point x="449" y="7"/>
      <point x="476" y="32" type="curve"/>
      <point x="463" y="50" type="line"/>
      <point x="434" y="25"/>
      <point x="415" y="15"/>
      <point x="392" y="15" type="curve" smooth="yes"/>
      <point x="362" y="15"/>
      <point x="352" y="41"/>
      <point x="352" y="83" type="curve" smooth="yes"/>
      <point x="352" y="115"/>
      <point x="361" y="160"/>
      <point x="370" y="200" type="curve" smooth="yes"/>
      <point x="446" y="535" type="line"/>
      <point x="436" y="535" type="line"/>
      <point x="414" y="506" type="line"/>
      <point x="391" y="530"/>
      <point x="354" y="546"/>
      <point x="312" y="546" type="curve" smooth="yes"/>
      <point x="140" y="546"/>
      <point x="40" y="319"/>
      <point x="40" y="163" type="curve" smooth="yes"/>
      <point x="40" y="45"/>
      <point x="74" y="-10"/>
    </contour>
    <contour>
      <point x="152" y="15" type="curve" smooth="yes"/>
      <point x="102" y="15"/>
      <point x="68" y="53"/>
      <point x="68" y="162" type="curve" smooth="yes"/>
      <point x="68" y="295"/>
      <point x="158" y="521"/>
      <point x="310" y="521" type="curve" smooth="yes"/>
      <point x="348" y="521"/>
      <point x="384" y="506"/>
      <point x="403" y="477" type="curve"/>
      <point x="368" y="317" type="line" smooth="yes"/>
      <point x="334" y="163"/>
      <point x="233" y="15"/>
    </contour>
  </outline>
</glyph>
<glyph name="b" format="2">
  <advance width="568"/>
  <unicode hex="0062"/>
  <anchor x="228" y="0" name="bottom"/>
  <anchor x="389" y="760" name="top"/>
  <anchor x="653" y="760" name="topright"/>
  <outline>
    <contour>
      <point x="239" y="-10" type="curve" smooth="yes"/>
      <point x="425" y="-10"/>
      <point x="513" y="188"/>
      <point x="513" y="350" type="curve" smooth="yes"/>
      <point x="513" y="463"/>
      <point x="453" y="538"/>
      <point x="357" y="538" type="curve" smooth="yes"/>
      <point x="253" y="538"/>
      <point x="176" y="457"/>
      <point x="139" y="389" type="curve"/>
      <point x="137" y="389" type="line"/>
      <point x="150" y="440"/>
      <point x="164" y="502"/>
      <point x="173" y="543" type="curve" smooth="yes"/>
      <point x="219" y="760" type="line"/>
      <point x="193" y="760" type="line"/>
      <point x="32" y="0" type="line"/>
      <point x="55" y="0" type="line"/>
      <point x="81" y="121" type="line"/>
      <point x="83" y="121" type="line"/>
      <point x="93" y="56"/>
      <point x="138" y="-10"/>
    </contour>
    <contour>
      <point x="240" y="15" type="curve" smooth="yes"/>
      <point x="158" y="15"/>
      <point x="101" y="66"/>
      <point x="101" y="170" type="curve" smooth="yes"/>
      <point x="101" y="335"/>
      <point x="206" y="513"/>
      <point x="352" y="513" type="curve" smooth="yes"/>
      <point x="437" y="513"/>
      <point x="486" y="450"/>
      <point x="486" y="350" type="curve" smooth="yes"/>
      <point x="486" y="193"/>
      <point x="405" y="15"/>
    </contour>
  </outline>
</glyph>
<glyph name="c" format="2">
  <advance width="452"/>
  <unicode hex="0063"/>
  <anchor x="170" y="0" name="bottom"/>
  <anchor x="282" y="528" name="top"/>
  <anchor x="488" y="528" name="topright"/>
  <outline>
    <contour>
      <point x="247" y="-10" type="curve" smooth="yes"/>
      <point x="302" y="-10"/>
      <point x="343" y="3"/>
      <point x="375" y="19" type="curve"/>
      <point x="375" y="45" type="line"/>
      <point x="334" y="26"/>
      <point x="296" y="15"/>
      <point x="248" y="15" type="curve" smooth="yes"/>
      <point x="138" y="15"/>
      <point x="82" y="96"/>
      <point x="82" y="196" type="curve" smooth="yes"/>
      <point x="82" y="371"/>
      <point x="179" y="513"/>
      <point x="335" y="513" type="curve" smooth="yes"/>
      <point x="371" y="513"/>
      <point x="417" y="506"/>
      <point x="450" y="489" type="curve"/>
      <point x="458" y="514" type="line"/>
      <point x="426" y="530"/>
      <point x="380" y="538"/>
      <point x="335" y="538" type="curve" smooth="yes"/>
      <point x="156" y="538"/>
      <point x="55" y="377"/>
      <point x="55" y="194" type="curve" smooth="yes"/>
      <point x="55" y="78"/>
      <point x="123" y="-10"/>
    </contour>
  </outline>
</glyph>
<glyph name="c.serif" format="2">
  <advance width="441"/>
  <unicode hex="0063"/>
  <anchor x="191" y="0" name="bottom"/>
  <anchor x="295" y="536" name="top"/>
  <anchor x="471" y="536" name="topright"/>
  <outline>
    <contour>
      <point x="210" y="-10" type="curve" smooth="yes"/>
      <point x="295" y="-10"/>
      <point x="353" y="44"/>
      <point x="353" y="82" type="curve" smooth="yes"/>
      <point x="353" y="88"/>
      <point x="351" y="93"/>
      <point x="348" y="95" type="curve"/>
      <point x="320" y="51"/>
      <point x="270" y="17"/>
      <point x="208" y="17" type="curve" smooth="yes"/>
      <point x="135" y="17"/>
      <point x="75" y="82"/>
      <point x="75" y="197" type="curve" smooth="yes"/>
      <point x="75" y="342"/>
      <point x="166" y="521"/>
      <point x="304" y="521" type="curve" smooth="yes"/>
      <point x="372" y="521"/>
      <point x="408" y="479"/>
      <point x="408" y="411" type="curve"/>
      <point x="424" y="411"/>
      <point x="434" y="418"/>
      <point x="434" y="440" type="curve" smooth="yes"/>
      <point x="434" y="491"/>
      <point x="390" y="546"/>
      <point x="304" y="546" type="curve" smooth="yes"/>
      <point x="151" y="546"/>
      <point x="47" y="359"/>
      <point x="47" y="197" type="curve" smooth="yes"/>
      <point x="47" y="58"/>
      <point x="119" y="-10"/>
    </contour>
  </outline>
</glyph>
<glyph name="d" format="2">
  <advance width="568"/>
  <unicode hex="0064"/>
  <anchor x="228" y="0" name="bottom"/>
  <anchor x="284" y="264" name="center"/>
  <anchor x="389" y="760" name="top"/>
  <anchor x="653" y="760" name="topright"/>
  <outline>
    <contour>
      <point x="201" y="-10" type="curve" smooth="yes"/>
      <point x="303" y="-10"/>
      <point x="381" y="72"/>
      <point x="423" y="141" type="curve"/>
      <point x="425" y="141" type="line"/>
      <point x="397" y="0" type="line"/>
      <point x="419" y="0" type="line"/>
      <point x="580" y="760" type="line"/>
      <point x="554" y="760" type="line"/>
      <point x="508" y="543" type="line" smooth="yes"/>
      <point x="499" y="501"/>
      <point x="489" y="452"/>
      <point x="482" y="407" type="curve"/>
      <point x="480" y="407" type="line"/>
      <point x="471" y="468"/>
      <point x="425" y="538"/>
      <point x="324" y="538" type="curve" smooth="yes"/>
      <point x="139" y="538"/>
      <point x="51" y="340"/>
      <point x="51" y="178" type="curve" smooth="yes"/>
      <point x="51" y="65"/>
      <point x="98" y="-10"/>
    </contour>
    <contour>
      <point x="203" y="15" type="curve" smooth="yes"/>
      <point x="119" y="15"/>
      <point x="78" y="75"/>
      <point x="78" y="178" type="curve" smooth="yes"/>
      <point x="78" y="335"/>
      <point x="159" y="513"/>
      <point x="323" y="513" type="curve" smooth="yes"/>
      <point x="405" y="513"/>
      <point x="463" y="462"/>
      <point x="463" y="358" type="curve" smooth="yes"/>
      <point x="463" y="173"/>
      <point x="330" y="15"/>
    </contour>
  </outline>
</glyph>
<glyph name="d.serif" format="2">
  <advance width="488"/>
  <unicode hex="0064"/>
  <anchor x="178" y="0" name="bottom"/>
  <anchor x="292" y="268" name="center"/>
  <anchor x="340" y="760" name="top"/>
  <anchor x="525" y="760" name="topright"/>
  <outline>
    <contour>
      <point x="151" y="-10" type="curve" smooth="yes"/>
      <point x="205" y="-10"/>
      <point x="269" y="32"/>
      <point x="332" y="161" type="curve"/>
      <point x="336" y="161" type="line"/>
      <point x="330" y="135"/>
      <point x="325" y="107"/>
      <point x="325" y="83" type="curve" smooth="yes"/>
      <point x="325" y="20"/>
      <point x="345" y="-10"/>
      <point x="388" y="-10" type="curve" smooth="yes"/>
      <point x="423" y="-10"/>
      <point x="449" y="7"/>
      <point x="476" y="33" type="curve"/>
      <point x="463" y="50" type="line"/>
      <point x="436" y="25"/>
      <point x="415" y="15"/>
      <point x="392" y="15" type="curve" smooth="yes"/>
      <point x="362" y="15"/>
      <point x="352" y="41"/>
      <point x="352" y="83" type="curve" smooth="yes"/>
      <point x="352" y="115"/>
      <point x="361" y="160"/>
      <point x="370" y="200" type="curve" smooth="yes"/>
      <point x="492" y="760" type="line"/>
      <point x="369" y="760" type="line"/>
      <point x="364" y="740" type="line"/>
      <point x="410" y="740" type="line" smooth="yes"/>
      <point x="447" y="740"/>
      <point x="450" y="733"/>
      <point x="450" y="717" type="curve" smooth="yes"/>
      <point x="450" y="701"/>
      <point x="448" y="682"/>
      <point x="442" y="656" type="curve" smooth="yes"/>
      <point x="429" y="594" type="line" smooth="yes"/>
      <point x="423" y="565"/>
      <point x="416" y="536"/>
      <point x="410" y="507" type="curve"/>
      <point x="387" y="531"/>
      <point x="353" y="546"/>
      <point x="312" y="546" type="curve" smooth="yes"/>
      <point x="140" y="546"/>
      <point x="40" y="319"/>
      <point x="40" y="163" type="curve" smooth="yes"/>
      <point x="40" y="45"/>
      <point x="74" y="-10"/>
    </contour>
    <contour>
      <point x="152" y="15" type="curve" smooth="yes"/>
      <point x="102" y="15"/>
      <point x="68" y="53"/>
      <point x="68" y="162" type="curve" smooth="yes"/>
      <point x="68" y="295"/>
      <point x="158" y="521"/>
      <point x="310" y="521" type="curve" smooth="yes"/>
      <point x="348" y="521"/>
      <point x="384" y="506"/>
      <point x="403" y="477" type="curve"/>
      <point x="368" y="317" type="line" smooth="yes"/>
      <point x="334" y="163"/>
      <point x="233" y="15"/>
    </contour>
  </outline>
</glyph>
<glyph name="e" format="2">
  <advance width="491"/>
  <unicode hex="0065"/>
  <anchor x="190" y="0" name="bottom"/>
  <anchor x="302" y="528" name="top"/>
  <anchor x="527" y="528" name="topright"/>
  <outline>
    <contour>
      <point x="246" y="-10" type="curve" smooth="yes"/>
      <point x="301" y="-10"/>
      <point x="357" y="6"/>
      <point x="386" y="22" type="curve"/>
      <point x="386" y="48" type="line"/>
      <point x="354" y="34"/>
      <point x="308" y="15"/>
      <point x="251" y="15" type="curve" smooth="yes"/>
      <point x="152" y="15"/>
      <point x="89" y="78"/>
      <point x="89" y="194" type="curve" smooth="yes"/>
      <point x="89" y="217"/>
      <point x="91" y="241"/>
      <point x="93" y="256" type="curve"/>
      <point x="127" y="256" type="line" smooth="yes"/>
      <point x="308" y="256"/>
      <point x="458" y="294"/>
      <point x="458" y="424" type="curve" smooth="yes"/>
      <point x="458" y="491"/>
      <point x="407" y="538"/>
      <point x="333" y="538" type="curve" smooth="yes"/>
      <point x="181" y="538"/>
      <point x="62" y="387"/>
      <point x="62" y="194" type="curve" smooth="yes"/>
      <point x="62" y="48"/>
      <point x="152" y="-10"/>
    </contour>
    <contour>
      <point x="145" y="281" type="curve" smooth="yes"/>
      <point x="97" y="281" type="line"/>
      <point x="127" y="428"/>
      <point x="232" y="513"/>
      <point x="329" y="513" type="curve" smooth="yes"/>
      <point x="396" y="513"/>
      <point x="431" y="475"/>
      <point x="431" y="423" type="curve" smooth="yes"/>
      <point x="431" y="325"/>
      <point x="312" y="281"/>
    </contour>
  </outline>
</glyph>
<glyph name="e.serif" format="2">
  <advance width="438"/>
  <unicode hex="0065"/>
  <anchor x="192" y="0" name="bottom"/>
  <anchor x="276" y="536" name="top"/>
  <anchor x="455" y="536" name="topright"/>
  <outline>
    <contour>
      <point x="206" y="-10" type="curve" smooth="yes"/>
      <point x="291" y="-10"/>
      <point x="347" y="49"/>
      <point x="347" y="87" type="curve" smooth="yes"/>
      <point x="347" y="93"/>
      <point x="345" y="98"/>
      <point x="342" y="100" type="curve"/>
      <point x="314" y="53"/>
      <point x="266" y="17"/>
      <point x="204" y="17" type="curve" smooth="yes"/>
      <point x="132" y="17"/>
      <point x="75" y="85"/>
      <point x="75" y="191" type="curve" smooth="yes"/>
      <point x="75" y="208"/>
      <point x="77" y="234"/>
      <point x="78" y="241" type="curve"/>
      <point x="123" y="241" type="line" smooth="yes"/>
      <point x="276" y="241"/>
      <point x="403" y="315"/>
      <point x="403" y="435" type="curve" smooth="yes"/>
      <point x="403" y="505"/>
      <point x="362" y="546"/>
      <point x="292" y="546" type="curve" smooth="yes"/>
      <point x="133" y="546"/>
      <point x="47" y="343"/>
      <point x="47" y="191" type="curve" smooth="yes"/>
      <point x="47" y="60"/>
      <point x="119" y="-10"/>
    </contour>
    <contour>
      <point x="113" y="266" type="curve" smooth="yes"/>
      <point x="81" y="266" type="line"/>
      <point x="103" y="398"/>
      <point x="180" y="521"/>
      <point x="293" y="521" type="curve" smooth="yes"/>
      <point x="351" y="521"/>
      <point x="375" y="488"/>
      <point x="375" y="437" type="curve" smooth="yes"/>
      <point x="375" y="327"/>
      <point x="259" y="266"/>
    </contour>
  </outline>
</glyph>
<glyph name="f" format="2">
  <advance width="264"/>
  <unicode hex="0066"/>
  <anchor x="-71" y="-240" name="bottom"/>
  <anchor x="337" y="765" name="top"/>
  <anchor x="410" y="765" name="topright"/>
  <outline>
    <contour>
      <point x="-71" y="-240" type="curve" smooth="yes"/>
      <point x="-14" y="-240"/>
      <point x="25" y="-205"/>
      <point x="43" y="-120" type="curve" smooth="yes"/>
      <point x="176" y="503" type="line"/>
      <point x="296" y="503" type="line"/>
      <point x="301" y="528" type="line"/>
      <point x="181" y="528" type="line"/>
      <point x="197" y="605" type="line" smooth="yes"/>
      <point x="216" y="698"/>
      <point x="255" y="740"/>
      <point x="336" y="740" type="curve" smooth="yes"/>
      <point x="360" y="740"/>
      <point x="384" y="736"/>
      <point x="405" y="727" type="curve"/>
      <point x="413" y="752" type="line"/>
      <point x="394" y="759"/>
      <point x="368" y="765"/>
      <point x="337" y="765" type="curve" smooth="yes"/>
      <point x="239" y="765"/>
      <point x="193" y="707"/>
      <point x="172" y="609" type="curve" smooth="yes"/>
      <point x="155" y="528" type="line"/>
      <point x="60" y="525" type="line"/>
      <point x="56" y="503" type="line"/>
      <point x="149" y="503" type="line"/>
      <point x="18" y="-116" type="line" smooth="yes"/>
      <point x="4" y="-180"/>
      <point x="-25" y="-215"/>
      <point x="-71" y="-215" type="curve" smooth="yes"/>
      <point x="-89" y="-215"/>
      <point x="-113" y="-211"/>
      <point x="-132" y="-204" type="curve"/>
      <point x="-132" y="-230" type="line"/>
      <point x="-119" y="-235"/>
      <point x="-89" y="-240"/>
    </contour>
  </outline>
</glyph>
<glyph name="f.serif" format="2">
  <advance width="231"/>
  <unicode hex="0066"/>
  <anchor x="-79" y="-240" name="bottom"/>
  <anchor x="302" y="770" name="top"/>
  <anchor x="417" y="770" name="topright"/>
  <outline>
    <contour>
      <point x="-79" y="-240" type="curve" smooth="yes"/>
      <point x="1" y="-240"/>
      <point x="28" y="-204"/>
      <point x="62" y="-43" type="curve" smooth="yes"/>
      <point x="180" y="511" type="line"/>
      <point x="270" y="511" type="line"/>
      <point x="275" y="536" type="line"/>
      <point x="185" y="536" type="line"/>
      <point x="201" y="613" type="line" smooth="yes"/>
      <point x="218" y="696"/>
      <point x="247" y="745"/>
      <point x="306" y="745" type="curve" smooth="yes"/>
      <point x="356" y="745"/>
      <point x="373" y="719"/>
      <point x="373" y="653" type="curve"/>
      <point x="388" y="653"/>
      <point x="400" y="665"/>
      <point x="400" y="683" type="curve" smooth="yes"/>
      <point x="400" y="731"/>
      <point x="370" y="770"/>
      <point x="307" y="770" type="curve" smooth="yes"/>
      <point x="232" y="770"/>
      <point x="193" y="710"/>
      <point x="173" y="613" type="curve" smooth="yes"/>
      <point x="157" y="536" type="line"/>
      <point x="72" y="529" type="line"/>
      <point x="68" y="511" type="line"/>
      <point x="152" y="511" type="line"/>
      <point x="34" y="-43" type="line" smooth="yes"/>
      <point x="3" y="-190"/>
      <point x="-21" y="-215"/>
      <point x="-79" y="-215" type="curve" smooth="yes"/>
      <point x="-94" y="-215"/>
      <point x="-114" y="-212"/>
      <point x="-127" y="-207" type="curve"/>
      <point x="-134" y="-232" type="line"/>
      <point x="-119" y="-237"/>
      <point x="-99" y="-240"/>
    </contour>
  </outline>
</glyph>
<glyph name="g" format="2">
  <advance width="568"/>
  <unicode hex="0067"/>
  <anchor x="177" y="-240" name="bottom"/>
  <anchor x="340" y="528" name="top"/>
  <anchor x="604" y="528" name="topright"/>
  <outline>
    <contour>
      <point x="172" y="-240" type="curve" smooth="yes"/>
      <point x="318" y="-240"/>
      <point x="386" y="-156"/>
      <point x="413" y="-28" type="curve" smooth="yes"/>
      <point x="531" y="528" type="line"/>
      <point x="509" y="528" type="line"/>
      <point x="482" y="407" type="line"/>
      <point x="480" y="407" type="line"/>
      <point x="470" y="470"/>
      <point x="424" y="538"/>
      <point x="325" y="538" type="curve" smooth="yes"/>
      <point x="139" y="538"/>
      <point x="51" y="340"/>
      <point x="51" y="178" type="curve" smooth="yes"/>
      <point x="51" y="65"/>
      <point x="98" y="-10"/>
      <point x="202" y="-10" type="curve" smooth="yes"/>
      <point x="301" y="-10"/>
      <point x="382" y="71"/>
      <point x="425" y="144" type="curve"/>
      <point x="427" y="144" type="line"/>
      <point x="417" y="107"/>
      <point x="405" y="54"/>
      <point x="397" y="17" type="curve" smooth="yes"/>
      <point x="388" y="-24" type="line" smooth="yes"/>
      <point x="363" y="-140"/>
      <point x="301" y="-215"/>
      <point x="173" y="-215" type="curve" smooth="yes"/>
      <point x="121" y="-215"/>
      <point x="65" y="-198"/>
      <point x="26" y="-178" type="curve"/>
      <point x="26" y="-207" type="line"/>
      <point x="63" y="-224"/>
      <point x="114" y="-240"/>
    </contour>
    <contour>
      <point x="205" y="15" type="curve" smooth="yes"/>
      <point x="116" y="15"/>
      <point x="78" y="78"/>
      <point x="78" y="178" type="curve" smooth="yes"/>
      <point x="78" y="335"/>
      <point x="159" y="513"/>
      <point x="324" y="513" type="curve" smooth="yes"/>
      <point x="406" y="513"/>
      <point x="463" y="462"/>
      <point x="463" y="358" type="curve" smooth="yes"/>
      <point x="463" y="170"/>
      <point x="327" y="15"/>
    </contour>
  </outline>
</glyph>
<glyph name="g.serif" format="2">
  <advance width="486"/>
  <unicode hex="0067"/>
  <anchor x="119" y="-240" name="bottom"/>
  <anchor x="284" y="536" name="top"/>
  <anchor x="526" y="536" name="topright"/>
  <outline>
    <contour>
      <point x="157" y="-240" type="curve" smooth="yes"/>
      <point x="324" y="-240"/>
      <point x="383" y="-148"/>
      <point x="383" y="-55" type="curve" smooth="yes"/>
      <point x="383" y="19"/>
      <point x="339" y="58"/>
      <point x="236" y="70" type="curve" smooth="yes"/>
      <point x="162" y="78" type="line" smooth="yes"/>
      <point x="135" y="81"/>
      <point x="107" y="95"/>
      <point x="107" y="117" type="curve" smooth="yes"/>
      <point x="107" y="148"/>
      <point x="133" y="170"/>
      <point x="189" y="190" type="curve"/>
      <point x="197" y="188"/>
      <point x="210" y="187"/>
      <point x="220" y="187" type="curve" smooth="yes"/>
      <point x="378" y="187"/>
      <point x="423" y="326"/>
      <point x="423" y="407" type="curve" smooth="yes"/>
      <point x="423" y="453"/>
      <point x="409" y="481"/>
      <point x="396" y="498" type="curve"/>
      <point x="420" y="525"/>
      <point x="438" y="540"/>
      <point x="457" y="540" type="curve" smooth="yes"/>
      <point x="473" y="540"/>
      <point x="480" y="533"/>
      <point x="480" y="501" type="curve"/>
      <point x="494" y="501"/>
      <point x="507" y="508"/>
      <point x="507" y="531" type="curve" smooth="yes"/>
      <point x="507" y="551"/>
      <point x="492" y="566"/>
      <point x="470" y="566" type="curve" smooth="yes"/>
      <point x="439" y="566"/>
      <point x="417" y="551"/>
      <point x="382" y="515" type="curve"/>
      <point x="361" y="536"/>
      <point x="324" y="546"/>
      <point x="288" y="546" type="curve" smooth="yes"/>
      <point x="145" y="546"/>
      <point x="91" y="411"/>
      <point x="91" y="319" type="curve" smooth="yes"/>
      <point x="91" y="258"/>
      <point x="123" y="219"/>
      <point x="161" y="199" type="curve"/>
      <point x="98" y="173"/>
      <point x="82" y="143"/>
      <point x="82" y="117" type="curve" smooth="yes"/>
      <point x="82" y="88"/>
      <point x="99" y="75"/>
      <point x="125" y="65" type="curve"/>
      <point x="40" y="47"/>
      <point x="-41" y="-5"/>
      <point x="-41" y="-102" type="curve" smooth="yes"/>
      <point x="-41" y="-196"/>
      <point x="39" y="-240"/>
    </contour>
    <contour>
      <point x="156" y="-215" type="curve" smooth="yes"/>
      <point x="37" y="-215"/>
      <point x="-13" y="-165"/>
      <point x="-13" y="-102" type="curve" smooth="yes"/>
      <point x="-13" y="-15"/>
      <point x="52" y="30"/>
      <point x="167" y="52" type="curve"/>
      <point x="236" y="45" type="line" smooth="yes"/>
      <point x="316" y="38"/>
      <point x="355" y="2"/>
      <point x="355" y="-55" type="curve" smooth="yes"/>
      <point x="355" y="-137"/>
      <point x="306" y="-215"/>
    </contour>
    <contour>
      <point x="223" y="212" type="curve" smooth="yes"/>
      <point x="165" y="212"/>
      <point x="119" y="249"/>
      <point x="119" y="319" type="curve" smooth="yes"/>
      <point x="119" y="394"/>
      <point x="156" y="521"/>
      <point x="286" y="521" type="curve" smooth="yes"/>
      <point x="350" y="521"/>
      <point x="395" y="486"/>
      <point x="395" y="409" type="curve" smooth="yes"/>
      <point x="395" y="346"/>
      <point x="362" y="212"/>
    </contour>
  </outline>
</glyph>
<glyph name="h" format="2">
  <advance width="553"/>
  <unicode hex="0068"/>
  <anchor x="221" y="0" name="bottom"/>
  <anchor x="277" y="264" name="center"/>
  <anchor x="382" y="760" name="top"/>
  <anchor x="598" y="760" name="topright"/>
  <outline>
    <contour>
      <point x="32" y="0" type="line"/>
      <point x="58" y="0" type="line"/>
      <point x="116" y="274" type="line" smooth="yes"/>
      <point x="142" y="398"/>
      <point x="243" y="513"/>
      <point x="354" y="513" type="curve" smooth="yes"/>
      <point x="425" y="513"/>
      <point x="467" y="479"/>
      <point x="467" y="404" type="curve" smooth="yes"/>
      <point x="467" y="387"/>
      <point x="465" y="367"/>
      <point x="460" y="345" type="curve" smooth="yes"/>
      <point x="387" y="0" type="line"/>
      <point x="413" y="0" type="line"/>
      <point x="485" y="342" type="line" smooth="yes"/>
      <point x="490" y="365"/>
      <point x="493" y="389"/>
      <point x="493" y="408" type="curve" smooth="yes"/>
      <point x="493" y="493"/>
      <point x="445" y="538"/>
      <point x="358" y="538" type="curve" smooth="yes"/>
      <point x="251" y="538"/>
      <point x="174" y="453"/>
      <point x="139" y="389" type="curve"/>
      <point x="137" y="389" type="line"/>
      <point x="150" y="441"/>
      <point x="164" y="501"/>
      <point x="176" y="557" type="curve" smooth="yes"/>
      <point x="219" y="760" type="line"/>
      <point x="193" y="760" type="line"/>
    </contour>
  </outline>
</glyph>
<glyph name="h.serif" format="2">
  <advance width="506"/>
  <unicode hex="0068"/>
  <anchor x="207" y="0" name="bottom"/>
  <anchor x="321" y="268" name="center"/>
  <anchor x="369" y="760" name="top"/>
  <anchor x="611" y="760" name="topright"/>
  <outline>
    <contour>
      <point x="406" y="-10" type="curve" smooth="yes"/>
      <point x="441" y="-10"/>
      <point x="465" y="7"/>
      <point x="493" y="32" type="curve"/>
      <point x="481" y="50" type="line"/>
      <point x="452" y="25"/>
      <point x="433" y="15"/>
      <point x="410" y="15" type="curve" smooth="yes"/>
      <point x="380" y="15"/>
      <point x="370" y="41"/>
      <point x="370" y="83" type="curve" smooth="yes"/>
      <point x="370" y="115"/>
      <point x="378" y="161"/>
      <point x="388" y="200" type="curve" smooth="yes"/>
      <point x="418" y="332" type="line" smooth="yes"/>
      <point x="425" y="364"/>
      <point x="436" y="407"/>
      <point x="436" y="438" type="curve" smooth="yes"/>
      <point x="436" y="495"/>
      <point x="410" y="543"/>
      <point x="339" y="543" type="curve" smooth="yes"/>
      <point x="273" y="543"/>
      <point x="217" y="505"/>
      <point x="159" y="405" type="curve"/>
      <point x="157" y="405" type="line"/>
      <point x="166" y="439"/>
      <point x="175" y="477"/>
      <point x="181" y="509" type="curve" smooth="yes"/>
      <point x="233" y="760" type="line"/>
      <point x="110" y="760" type="line"/>
      <point x="105" y="740" type="line"/>
      <point x="127" y="740" type="line" smooth="yes"/>
      <point x="188" y="740"/>
      <point x="190" y="737"/>
      <point x="190" y="710" type="curve" smooth="yes"/>
      <point x="190" y="703"/>
      <point x="188" y="682"/>
      <point x="183" y="656" type="curve" smooth="yes"/>
      <point x="49" y="0" type="line"/>
      <point x="77" y="0" type="line"/>
      <point x="132" y="268" type="line" smooth="yes"/>
      <point x="157" y="389"/>
      <point x="242" y="518"/>
      <point x="328" y="518" type="curve" smooth="yes"/>
      <point x="394" y="518"/>
      <point x="408" y="479"/>
      <point x="408" y="438" type="curve" smooth="yes"/>
      <point x="408" y="409"/>
      <point x="393" y="346"/>
      <point x="390" y="332" type="curve" smooth="yes"/>
      <point x="360" y="200" type="line" smooth="yes"/>
      <point x="349" y="155"/>
      <point x="342" y="114"/>
      <point x="342" y="83" type="curve" smooth="yes"/>
      <point x="342" y="20"/>
      <point x="363" y="-10"/>
    </contour>
  </outline>
</glyph>
<glyph name="i" format="2">
  <advance width="207"/>
  <unicode hex="0069"/>
  <anchor x="48" y="0" name="bottom"/>
  <anchor x="201" y="721" name="top"/>
  <anchor x="284" y="721" name="topright"/>
  <outline>
    <contour>
      <point x="32" y="0" type="line"/>
      <point x="58" y="0" type="line"/>
      <point x="170" y="528" type="line"/>
      <point x="144" y="528" type="line"/>
    </contour>
    <contour>
      <point x="189" y="659" type="curve" smooth="yes"/>
      <point x="208" y="659"/>
      <point x="218" y="681"/>
      <point x="218" y="699" type="curve" smooth="yes"/>
      <point x="218" y="710"/>
      <point x="212" y="721"/>
      <point x="196" y="721" type="curve" smooth="yes"/>
      <point x="176" y="721"/>
      <point x="166" y="699"/>
      <point x="166" y="681" type="curve" smooth="yes"/>
      <point x="166" y="667"/>
      <point x="175" y="659"/>
    </contour>
  </outline>
</glyph>
<glyph name="i.serif" format="2">
  <advance width="250"/>
  <unicode hex="0069"/>
  <anchor x="65" y="0" name="bottom"/>
  <anchor x="219" y="741" name="top"/>
  <anchor x="315" y="741" name="topright"/>
  <outline>
    <contour>
      <point x="140" y="-10" type="curve" smooth="yes"/>
      <point x="174" y="-10"/>
      <point x="198" y="7"/>
      <point x="226" y="32" type="curve"/>
      <point x="213" y="50" type="line"/>
      <point x="185" y="25"/>
      <point x="167" y="15"/>
      <point x="144" y="15" type="curve" smooth="yes"/>
      <point x="115" y="15"/>
      <point x="105" y="41"/>
      <point x="105" y="83" type="curve" smooth="yes"/>
      <point x="105" y="115"/>
      <point x="115" y="162"/>
      <point x="123" y="201" type="curve" smooth="yes"/>
      <point x="190" y="536" type="line"/>
      <point x="70" y="536" type="line"/>
      <point x="66" y="516" type="line"/>
      <point x="87" y="516" type="line" smooth="yes"/>
      <point x="138" y="516"/>
      <point x="146" y="511"/>
      <point x="146" y="479" type="curve" smooth="yes"/>
      <point x="146" y="462"/>
      <point x="143" y="444"/>
      <point x="141" y="432" type="curve" smooth="yes"/>
      <point x="96" y="201" type="line" smooth="yes"/>
      <point x="87" y="156"/>
      <point x="78" y="114"/>
      <point x="78" y="83" type="curve" smooth="yes"/>
      <point x="78" y="20"/>
      <point x="99" y="-10"/>
    </contour>
    <contour>
      <point x="201" y="681" type="curve" smooth="yes"/>
      <point x="215" y="681"/>
      <point x="228" y="690"/>
      <point x="228" y="714" type="curve" smooth="yes"/>
      <point x="228" y="731"/>
      <point x="218" y="741"/>
      <point x="203" y="741" type="curve" smooth="yes"/>
      <point x="187" y="741"/>
      <point x="176" y="727"/>
      <point x="176" y="707" type="curve" smooth="yes"/>
      <point x="176" y="690"/>
      <point x="187" y="681"/>
    </contour>
  </outline>
</glyph>
<glyph name="j" format="2">
  <advance width="207"/>
  <unicode hex="006A"/>
  <anchor x="-93" y="-240" name="bottom"/>
  <anchor x="201" y="721" name="top"/>
  <anchor x="284" y="721" name="topright"/>
  <outline>
    <contour>
      <point x="-86" y="-240" type="curve" smooth="yes"/>
      <point x="-21" y="-240"/>
      <point x="16" y="-201"/>
      <point x="33" y="-119" type="curve" smooth="yes"/>
      <point x="170" y="528" type="line"/>
      <point x="144" y="528" type="line"/>
      <point x="8" y="-115" type="line" smooth="yes"/>
      <point x="-5" y="-178"/>
      <point x="-31" y="-215"/>
      <point x="-86" y="-215" type="curve" smooth="yes"/>
      <point x="-102" y="-215"/>
      <point x="-126" y="-212"/>
      <point x="-142" y="-204" type="curve"/>
      <point x="-142" y="-230" type="line"/>
      <point x="-129" y="-235"/>
      <point x="-104" y="-240"/>
    </contour>
    <contour>
      <point x="189" y="659" type="curve" smooth="yes"/>
      <point x="208" y="659"/>
      <point x="218" y="681"/>
      <point x="218" y="699" type="curve" smooth="yes"/>
      <point x="218" y="710"/>
      <point x="212" y="721"/>
      <point x="196" y="721" type="curve" smooth="yes"/>
      <point x="176" y="721"/>
      <point x="166" y="699"/>
      <point x="166" y="681" type="curve" smooth="yes"/>
      <point x="166" y="667"/>
      <point x="175" y="659"/>
    </contour>
  </outline>
</glyph>
<glyph name="k" format="2">
  <advance width="439"/>
  <unicode hex="006B"/>
  <anchor x="164" y="0" name="bottom"/>
  <anchor x="325" y="760" name="top"/>
  <anchor x="514" y="830" name="topright"/>
  <outline>
    <contour>
      <point x="32" y="0" type="line"/>
      <point x="58" y="0" type="line"/>
      <point x="94" y="172" type="line"/>
      <point x="213" y="281" type="line"/>
      <point x="355" y="0" type="line"/>
      <point x="384" y="0" type="line"/>
      <point x="232" y="298" type="line"/>
      <point x="477" y="528" type="line"/>
      <point x="444" y="528" type="line"/>
      <point x="99" y="204" type="line"/>
      <point x="98" y="204" type="line"/>
      <point x="114" y="267"/>
      <point x="125" y="318"/>
      <point x="139" y="384" type="curve" smooth="yes"/>
      <point x="219" y="760" type="line"/>
      <point x="193" y="760" type="line"/>
    </contour>
  </outline>
</glyph>
<glyph name="k.serif" format="2">
  <advance width="533"/>
  <unicode hex="006B"/>
  <anchor x="210" y="0" name="bottom"/>
  <anchor x="372" y="760" name="top"/>
  <anchor x="567" y="860" name="topright"/>
  <outline>
    <contour>
      <point x="454" y="-7" type="curve" smooth="yes"/>
      <point x="465" y="-7" type="line"/>
      <point x="470" y="18" type="line"/>
      <point x="401" y="18"/>
      <point x="383" y="26"/>
      <point x="354" y="103" type="curve" smooth="yes"/>
      <point x="267" y="336" type="line"/>
      <point x="261" y="316" type="line"/>
      <point x="415" y="448" type="line" smooth="yes"/>
      <point x="491" y="513"/>
      <point x="505" y="516"/>
      <point x="541" y="516" type="curve"/>
      <point x="546" y="536" type="line"/>
      <point x="362" y="536" type="line"/>
      <point x="357" y="516" type="line"/>
      <point x="426" y="516"/>
      <point x="428" y="513"/>
      <point x="428" y="502" type="curve" smooth="yes"/>
      <point x="428" y="493"/>
      <point x="416" y="479"/>
      <point x="390" y="457" type="curve" smooth="yes"/>
      <point x="130" y="239" type="line"/>
      <point x="152" y="348"/>
      <point x="177" y="460"/>
      <point x="199" y="569" type="curve" smooth="yes"/>
      <point x="238" y="760" type="line"/>
      <point x="115" y="760" type="line"/>
      <point x="110" y="740" type="line"/>
      <point x="158" y="740" type="line" smooth="yes"/>
      <point x="193" y="740"/>
      <point x="197" y="737"/>
      <point x="197" y="717" type="curve" smooth="yes"/>
      <point x="197" y="706"/>
      <point x="193" y="680"/>
      <point x="188" y="656" type="curve" smooth="yes"/>
      <point x="54" y="0" type="line"/>
      <point x="82" y="0" type="line"/>
      <point x="124" y="204" type="line"/>
      <point x="258" y="314" type="line"/>
      <point x="244" y="320" type="line"/>
      <point x="327" y="96" type="line" smooth="yes"/>
      <point x="361" y="3"/>
      <point x="387" y="-7"/>
    </contour>
  </outline>
</glyph>
<glyph name="l" format="2">
  <advance width="207"/>
  <unicode hex="006C"/>
  <anchor x="48" y="0" name="bottom"/>
  <anchor x="104" y="264" name="center"/>
  <anchor x="209" y="760" name="top"/>
  <anchor x="292" y="760" name="topright"/>
  <outline>
    <contour>
      <point x="32" y="0" type="line"/>
      <point x="58" y="0" type="line"/>
      <point x="219" y="760" type="line"/>
      <point x="193" y="760" type="line"/>
    </contour>
  </outline>
</glyph>
<glyph name="l.serif" format="2">
  <advance width="243"/>
  <unicode hex="006C"/>
  <anchor x="65" y="0" name="bottom"/>
  <anchor x="179" y="268" name="center"/>
  <anchor x="227" y="760" name="top"/>
  <anchor x="328" y="760" name="topright"/>
  <outline>
    <contour>
      <point x="131" y="-10" type="curve" smooth="yes"/>
      <point x="169" y="-10"/>
      <point x="191" y="7"/>
      <point x="219" y="32" type="curve"/>
      <point x="206" y="50" type="line"/>
      <point x="177" y="25"/>
      <point x="158" y="15"/>
      <point x="135" y="15" type="curve" smooth="yes"/>
      <point x="105" y="15"/>
      <point x="95" y="41"/>
      <point x="95" y="77" type="curve" smooth="yes"/>
      <point x="95" y="115"/>
      <point x="105" y="162"/>
      <point x="113" y="201" type="curve" smooth="yes"/>
      <point x="228" y="760" type="line"/>
      <point x="105" y="760" type="line"/>
      <point x="100" y="740" type="line"/>
      <point x="146" y="740" type="line" smooth="yes"/>
      <point x="183" y="740"/>
      <point x="188" y="737"/>
      <point x="188" y="721" type="curve" smooth="yes"/>
      <point x="188" y="710"/>
      <point x="183" y="682"/>
      <point x="178" y="656" type="curve" smooth="yes"/>
      <point x="85" y="201" type="line" smooth="yes"/>
      <point x="76" y="156"/>
      <point x="67" y="114"/>
      <point x="67" y="75" type="curve" smooth="yes"/>
      <point x="67" y="20"/>
      <point x="88" y="-10"/>
    </contour>
  </outline>
</glyph>
<glyph name="m" format="2">
  <advance width="842"/>
  <unicode hex="006D"/>
  <anchor x="365" y="0" name="bottom"/>
  <anchor x="477" y="528" name="top"/>
  <anchor x="878" y="528" name="topright"/>
  <outline>
    <contour>
      <point x="32" y="0" type="line"/>
      <point x="58" y="0" type="line"/>
      <point x="116" y="274" type="line" smooth="yes"/>
      <point x="141" y="393"/>
      <point x="231" y="513"/>
      <point x="331" y="513" type="curve" smooth="yes"/>
      <point x="395" y="513"/>
      <point x="432" y="474"/>
      <point x="432" y="407" type="curve" smooth="yes"/>
      <point x="432" y="389"/>
      <point x="430" y="358"/>
      <point x="424" y="330" type="curve" smooth="yes"/>
      <point x="353" y="0" type="line"/>
      <point x="379" y="0" type="line"/>
      <point x="437" y="275" type="line" smooth="yes"/>
      <point x="462" y="394"/>
      <point x="552" y="513"/>
      <point x="653" y="513" type="curve" smooth="yes"/>
      <point x="717" y="513"/>
      <point x="756" y="479"/>
      <point x="756" y="404" type="curve" smooth="yes"/>
      <point x="756" y="387"/>
      <point x="754" y="367"/>
      <point x="749" y="345" type="curve" smooth="yes"/>
      <point x="676" y="0" type="line"/>
      <point x="702" y="0" type="line"/>
      <point x="774" y="342" type="line" smooth="yes"/>
      <point x="779" y="365"/>
      <point x="782" y="389"/>
      <point x="782" y="408" type="curve" smooth="yes"/>
      <point x="782" y="493"/>
      <point x="737" y="538"/>
      <point x="658" y="538" type="curve" smooth="yes"/>
      <point x="558" y="538"/>
      <point x="489" y="454"/>
      <point x="457" y="389" type="curve"/>
      <point x="456" y="389" type="line"/>
      <point x="461" y="478"/>
      <point x="428" y="538"/>
      <point x="337" y="538" type="curve" smooth="yes"/>
      <point x="236" y="538"/>
      <point x="170" y="453"/>
      <point x="139" y="389" type="curve"/>
      <point x="137" y="389" type="line"/>
      <point x="166" y="528" type="line"/>
      <point x="144" y="528" type="line"/>
    </contour>
  </outline>
</glyph>
<glyph name="n" format="2">
  <advance width="553"/>
  <unicode hex="006E"/>
  <anchor x="221" y="0" name="bottom"/>
  <anchor x="333" y="528" name="top"/>
  <anchor x="589" y="528" name="topright"/>
  <outline>
    <contour>
      <point x="32" y="0" type="line"/>
      <point x="58" y="0" type="line"/>
      <point x="116" y="274" type="line" smooth="yes"/>
      <point x="142" y="398"/>
      <point x="243" y="513"/>
      <point x="354" y="513" type="curve" smooth="yes"/>
      <point x="425" y="513"/>
      <point x="467" y="479"/>
      <point x="467" y="404" type="curve" smooth="yes"/>
      <point x="467" y="387"/>
      <point x="465" y="367"/>
      <point x="460" y="345" type="curve" smooth="yes"/>
      <point x="387" y="0" type="line"/>
      <point x="413" y="0" type="line"/>
      <point x="485" y="342" type="line" smooth="yes"/>
      <point x="490" y="365"/>
      <point x="493" y="389"/>
      <point x="493" y="408" type="curve" smooth="yes"/>
      <point x="493" y="493"/>
      <point x="445" y="538"/>
      <point x="358" y="538" type="curve" smooth="yes"/>
      <point x="251" y="538"/>
      <point x="173" y="452"/>
      <point x="140" y="389" type="curve"/>
      <point x="138" y="389" type="line"/>
      <point x="166" y="528" type="line"/>
      <point x="144" y="528" type="line"/>
    </contour>
  </outline>
</glyph>
<glyph name="o" format="2">
  <advance width="565"/>
  <unicode hex="006F"/>
  <anchor x="227" y="0" name="bottom"/>
  <anchor x="283" y="264" name="center"/>
  <anchor x="339" y="528" name="top"/>
  <anchor x="601" y="528" name="topright"/>
  <outline>
    <contour>
      <point x="237" y="-10" type="curve" smooth="yes"/>
      <point x="408" y="-10"/>
      <point x="510" y="148"/>
      <point x="510" y="338" type="curve" smooth="yes"/>
      <point x="510" y="453"/>
      <point x="448" y="538"/>
      <point x="331" y="538" type="curve" smooth="yes"/>
      <point x="175" y="538"/>
      <point x="55" y="402"/>
      <point x="55" y="192" type="curve" smooth="yes"/>
      <point x="55" y="73"/>
      <point x="114" y="-10"/>
    </contour>
    <contour>
      <point x="240" y="15" type="curve" smooth="yes"/>
      <point x="135" y="15"/>
      <point x="82" y="84"/>
      <point x="82" y="192" type="curve" smooth="yes"/>
      <point x="82" y="388"/>
      <point x="189" y="513"/>
      <point x="329" y="513" type="curve" smooth="yes"/>
      <point x="432" y="513"/>
      <point x="483" y="440"/>
      <point x="483" y="339" type="curve" smooth="yes"/>
      <point x="483" y="160"/>
      <point x="392" y="15"/>
    </contour>
  </outline>
</glyph>
<glyph name="o.serif" format="2">
  <advance width="517"/>
  <unicode hex="006F"/>
  <anchor x="202" y="0" name="bottom"/>
  <anchor x="316" y="268" name="center"/>
  <anchor x="316" y="536" name="top"/>
  <anchor x="554" y="536" name="topright"/>
  <outline>
    <contour>
      <point x="212" y="-10" type="curve" smooth="yes"/>
      <point x="390" y="-10"/>
      <point x="471" y="203"/>
      <point x="471" y="343" type="curve" smooth="yes"/>
      <point x="471" y="488"/>
      <point x="398" y="546"/>
      <point x="305" y="546" type="curve" smooth="yes"/>
      <point x="129" y="546"/>
      <point x="46" y="336"/>
      <point x="46" y="190" type="curve" smooth="yes"/>
      <point x="46" y="53"/>
      <point x="115" y="-10"/>
    </contour>
    <contour>
      <point x="214" y="15" type="curve" smooth="yes"/>
      <point x="130" y="15"/>
      <point x="74" y="65"/>
      <point x="74" y="190" type="curve" smooth="yes"/>
      <point x="74" y="331"/>
      <point x="156" y="521"/>
      <point x="302" y="521" type="curve" smooth="yes"/>
      <point x="389" y="521"/>
      <point x="443" y="463"/>
      <point x="443" y="344" type="curve" smooth="yes"/>
      <point x="443" y="211"/>
      <point x="367" y="15"/>
    </contour>
  </outline>
</glyph>
<glyph name="p" format="2">
  <advance width="568"/>
  <unicode hex="0070"/>
  <anchor x="179" y="-232" name="bottom"/>
  <anchor x="340" y="528" name="top"/>
  <anchor x="604" y="528" name="topright"/>
  <outline>
    <contour>
      <point x="-17" y="-232" type="line"/>
      <point x="9" y="-232" type="line"/>
      <point x="55" y="-15" type="line" smooth="yes"/>
      <point x="64" y="27"/>
      <point x="74" y="76"/>
      <point x="81" y="121" type="curve"/>
      <point x="83" y="121" type="line"/>
      <point x="93" y="56"/>
      <point x="138" y="-10"/>
      <point x="239" y="-10" type="curve" smooth="yes"/>
      <point x="425" y="-10"/>
      <point x="513" y="188"/>
      <point x="513" y="350" type="curve" smooth="yes"/>
      <point x="513" y="463"/>
      <point x="453" y="538"/>
      <point x="357" y="538" type="curve" smooth="yes"/>
      <point x="253" y="538"/>
      <point x="178" y="459"/>
      <point x="140" y="389" type="curve"/>
      <point x="138" y="389" type="line"/>
      <point x="166" y="528" type="line"/>
      <point x="144" y="528" type="line"/>
    </contour>
    <contour>
      <point x="240" y="15" type="curve" smooth="yes"/>
      <point x="158" y="15"/>
      <point x="101" y="66"/>
      <point x="101" y="170" type="curve" smooth="yes"/>
      <point x="101" y="342"/>
      <point x="214" y="513"/>
      <point x="352" y="513" type="curve" smooth="yes"/>
      <point x="437" y="513"/>
      <point x="486" y="450"/>
      <point x="486" y="350" type="curve" smooth="yes"/>
      <point x="486" y="193"/>
      <point x="405" y="15"/>
    </contour>
  </outline>
</glyph>
<glyph name="q" format="2">
  <advance width="568"/>
  <unicode hex="0071"/>
  <anchor x="179" y="-232" name="bottom"/>
  <anchor x="340" y="528" name="top"/>
  <anchor x="604" y="528" name="topright"/>
  <outline>
    <contour>
      <point x="390" y="-15" type="curve" smooth="yes"/>
      <point x="344" y="-232" type="line"/>
      <point x="370" y="-232" type="line"/>
      <point x="531" y="528" type="line"/>
      <point x="509" y="528" type="line"/>
      <point x="482" y="407" type="line"/>
      <point x="480" y="407" type="line"/>
      <point x="470" y="469"/>
      <point x="425" y="538"/>
      <point x="325" y="538" type="curve" smooth="yes"/>
      <point x="139" y="538"/>
      <point x="51" y="340"/>
      <point x="51" y="178" type="curve" smooth="yes"/>
      <point x="51" y="65"/>
      <point x="99" y="-10"/>
      <point x="202" y="-10" type="curve" smooth="yes"/>
      <point x="302" y="-10"/>
      <point x="388" y="77"/>
      <point x="425" y="145" type="curve"/>
      <point x="427" y="145" type="line"/>
      <point x="414" y="94"/>
      <point x="399" y="26"/>
    </contour>
    <contour>
      <point x="205" y="15" type="curve" smooth="yes"/>
      <point x="115" y="15"/>
      <point x="78" y="78"/>
      <point x="78" y="178" type="curve" smooth="yes"/>
      <point x="78" y="335"/>
      <point x="159" y="513"/>
      <point x="324" y="513" type="curve" smooth="yes"/>
      <point x="406" y="513"/>
      <point x="463" y="462"/>
      <point x="463" y="358" type="curve" smooth="yes"/>
      <point x="463" y="183"/>
      <point x="336" y="15"/>
    </contour>
  </outline>
</glyph>
<glyph name="q.serif" format="2">
  <advance width="470"/>
  <unicode hex="0071"/>
  <anchor x="120" y="-240" name="bottom"/>
  <anchor x="285" y="536" name="top"/>
  <anchor x="499" y="536" name="topright"/>
  <outline>
    <contour>
      <point x="303" y="22" type="curve" smooth="yes"/>
      <point x="247" y="-240" type="line"/>
      <point x="365" y="-240" type="line"/>
      <point x="370" y="-220" type="line"/>
      <point x="342" y="-220" type="line" smooth="yes"/>
      <point x="291" y="-220"/>
      <point x="287" y="-215"/>
      <point x="287" y="-199" type="curve" smooth="yes"/>
      <point x="287" y="-185"/>
      <point x="292" y="-165"/>
      <point x="298" y="-134" type="curve" smooth="yes"/>
      <point x="442" y="546" type="line"/>
      <point x="432" y="546" type="line"/>
      <point x="408" y="518" type="line"/>
      <point x="383" y="539"/>
      <point x="354" y="546"/>
      <point x="321" y="546" type="curve" smooth="yes"/>
      <point x="138" y="546"/>
      <point x="40" y="319"/>
      <point x="40" y="164" type="curve" smooth="yes"/>
      <point x="40" y="53"/>
      <point x="83" y="-10"/>
      <point x="153" y="-10" type="curve" smooth="yes"/>
      <point x="234" y="-10"/>
      <point x="295" y="73"/>
      <point x="333" y="158" type="curve"/>
      <point x="336" y="158" type="line"/>
      <point x="322" y="109"/>
      <point x="313" y="67"/>
    </contour>
    <contour>
      <point x="153" y="15" type="curve" smooth="yes"/>
      <point x="103" y="15"/>
      <point x="68" y="67"/>
      <point x="68" y="163" type="curve" smooth="yes"/>
      <point x="68" y="306"/>
      <point x="160" y="521"/>
      <point x="320" y="521" type="curve" smooth="yes"/>
      <point x="356" y="521"/>
      <point x="391" y="505"/>
      <point x="401" y="482" type="curve"/>
      <point x="360" y="286" type="line" smooth="yes"/>
      <point x="332" y="153"/>
      <point x="238" y="15"/>
    </contour>
  </outline>
</glyph>
<glyph name="s" format="2">
  <advance width="423"/>
  <unicode hex="0073"/>
  <anchor x="156" y="0" name="bottom"/>
  <anchor x="268" y="528" name="top"/>
  <anchor x="459" y="528" name="topright"/>
  <outline>
    <contour>
      <point x="164" y="-10" type="curve" smooth="yes"/>
      <point x="291" y="-10"/>
      <point x="345" y="56"/>
      <point x="345" y="137" type="curve" smooth="yes"/>
      <point x="345" y="220"/>
      <point x="281" y="251"/>
      <point x="218" y="285" type="curve" smooth="yes"/>
      <point x="160" y="316"/>
      <point x="107" y="341"/>
      <point x="107" y="401" type="curve" smooth="yes"/>
      <point x="107" y="480"/>
      <point x="170" y="513"/>
      <point x="253" y="513" type="curve" smooth="yes"/>
      <point x="305" y="513"/>
      <point x="356" y="500"/>
      <point x="390" y="483" type="curve"/>
      <point x="399" y="508" type="line"/>
      <point x="364" y="524"/>
      <point x="316" y="538"/>
      <point x="254" y="538" type="curve" smooth="yes"/>
      <point x="159" y="538"/>
      <point x="80" y="496"/>
      <point x="80" y="399" type="curve" smooth="yes"/>
      <point x="80" y="325"/>
      <point x="138" y="297"/>
      <point x="204" y="261" type="curve" smooth="yes"/>
      <point x="261" y="230"/>
      <point x="318" y="204"/>
      <point x="318" y="136" type="curve" smooth="yes"/>
      <point x="318" y="66"/>
      <point x="274" y="15"/>
      <point x="165" y="15" type="curve" smooth="yes"/>
      <point x="106" y="15"/>
      <point x="52" y="34"/>
      <point x="12" y="57" type="curve"/>
      <point x="12" y="27" type="line"/>
      <point x="43" y="11"/>
      <point x="94" y="-10"/>
    </contour>
  </outline>
</glyph>
<glyph name="s.serif" format="2">
  <advance width="399"/>
  <unicode hex="0073"/>
  <anchor x="143" y="0" name="bottom"/>
  <anchor x="257" y="536" name="top"/>
  <anchor x="436" y="536" name="topright"/>
  <outline>
    <contour>
      <point x="173" y="-10" type="curve" smooth="yes"/>
      <point x="276" y="-10"/>
      <point x="326" y="63"/>
      <point x="326" y="139" type="curve" smooth="yes"/>
      <point x="326" y="207"/>
      <point x="284" y="253"/>
      <point x="213" y="289" type="curve" smooth="yes"/>
      <point x="150" y="321"/>
      <point x="124" y="354"/>
      <point x="124" y="408" type="curve" smooth="yes"/>
      <point x="124" y="471"/>
      <point x="170" y="522"/>
      <point x="238" y="522" type="curve" smooth="yes"/>
      <point x="318" y="522"/>
      <point x="340" y="467"/>
      <point x="340" y="404" type="curve"/>
      <point x="356" y="404"/>
      <point x="363" y="418"/>
      <point x="363" y="434" type="curve" smooth="yes"/>
      <point x="363" y="492"/>
      <point x="326" y="547"/>
      <point x="238" y="547" type="curve" smooth="yes"/>
      <point x="157" y="547"/>
      <point x="96" y="487"/>
      <point x="96" y="408" type="curve" smooth="yes"/>
      <point x="96" y="339"/>
      <point x="129" y="303"/>
      <point x="204" y="264" type="curve" smooth="yes"/>
      <point x="271" y="229"/>
      <point x="298" y="186"/>
      <point x="298" y="134" type="curve" smooth="yes"/>
      <point x="298" y="74"/>
      <point x="256" y="15"/>
      <point x="172" y="15" type="curve" smooth="yes"/>
      <point x="92" y="15"/>
      <point x="60" y="68"/>
      <point x="60" y="149" type="curve"/>
      <point x="45" y="149"/>
      <point x="35" y="138"/>
      <point x="35" y="113" type="curve" smooth="yes"/>
      <point x="35" y="55"/>
      <point x="78" y="-10"/>
    </contour>
  </outline>
</glyph>
<glyph name="t" format="2">
  <advance width="309"/>
  <unicode hex="0074"/>
  <anchor x="129" y="0" name="bottom"/>
  <anchor x="135" y="264" name="center"/>
  <anchor x="239" y="659" name="top"/>
  <anchor x="363" y="830" name="topright"/>
  <outline>
    <contour>
      <point x="146" y="-10" type="curve" smooth="yes"/>
      <point x="180" y="-10"/>
      <point x="203" y="-4"/>
      <point x="224" y="3" type="curve"/>
      <point x="224" y="28" type="line"/>
      <point x="203" y="20"/>
      <point x="179" y="15"/>
      <point x="147" y="15" type="curve" smooth="yes"/>
      <point x="98" y="15"/>
      <point x="78" y="40"/>
      <point x="78" y="84" type="curve" smooth="yes"/>
      <point x="78" y="101"/>
      <point x="80" y="121"/>
      <point x="85" y="143" type="curve" smooth="yes"/>
      <point x="161" y="503" type="line"/>
      <point x="324" y="503" type="line"/>
      <point x="330" y="528" type="line"/>
      <point x="167" y="528" type="line"/>
      <point x="195" y="659" type="line"/>
      <point x="174" y="659" type="line"/>
      <point x="140" y="528" type="line"/>
      <point x="63" y="525" type="line"/>
      <point x="58" y="503" type="line"/>
      <point x="135" y="503" type="line"/>
      <point x="58" y="140" type="line" smooth="yes"/>
      <point x="53" y="119"/>
      <point x="51" y="99"/>
      <point x="51" y="82" type="curve" smooth="yes"/>
      <point x="51" y="24"/>
      <point x="80" y="-10"/>
    </contour>
  </outline>
</glyph>
<glyph name="t.serif" format="2">
  <advance width="290"/>
  <unicode hex="0074"/>
  <anchor x="94" y="0" name="bottom"/>
  <anchor x="208" y="268" name="center"/>
  <anchor x="234" y="659" name="top"/>
  <anchor x="279" y="900" name="topright"/>
  <outline>
    <contour>
      <point x="150" y="-10" type="curve" smooth="yes"/>
      <point x="176" y="-10"/>
      <point x="212" y="-2"/>
      <point x="245" y="14" type="curve"/>
      <point x="239" y="35" type="line"/>
      <point x="205" y="21"/>
      <point x="181" y="15"/>
      <point x="150" y="15" type="curve" smooth="yes"/>
      <point x="113" y="15"/>
      <point x="99" y="37"/>
      <point x="99" y="75" type="curve" smooth="yes"/>
      <point x="99" y="95"/>
      <point x="102" y="118"/>
      <point x="118" y="192" type="curve" smooth="yes"/>
      <point x="186" y="511" type="line"/>
      <point x="296" y="511" type="line"/>
      <point x="301" y="536" type="line"/>
      <point x="190" y="536" type="line"/>
      <point x="217" y="659" type="line"/>
      <point x="197" y="659" type="line"/>
      <point x="168" y="536"/>
      <point x="159" y="531"/>
      <point x="88" y="529" type="curve"/>
      <point x="84" y="511" type="line"/>
      <point x="158" y="511" type="line"/>
      <point x="90" y="192" type="line" smooth="yes"/>
      <point x="75" y="121"/>
      <point x="71" y="95"/>
      <point x="71" y="75" type="curve" smooth="yes"/>
      <point x="71" y="28"/>
      <point x="89" y="-10"/>
    </contour>
  </outline>
</glyph>
<glyph name="u.serif" format="2">
  <advance width="506"/>
  <unicode hex="0075"/>
  <anchor x="196" y="0" name="bottom"/>
  <anchor x="310" y="536" name="top"/>
  <anchor x="543" y="536" name="topright"/>
  <outline>
    <contour>
      <point x="401" y="-10" type="curve" smooth="yes"/>
      <point x="436" y="-10"/>
      <point x="462" y="11"/>
      <point x="481" y="30" type="curve"/>
      <point x="468" y="48" type="line"/>
      <point x="448" y="28"/>
      <point x="427" y="15"/>
      <point x="407" y="15" type="curve" smooth="yes"/>
      <point x="381" y="15"/>
      <point x="372" y="43"/>
      <point x="372" y="83" type="curve" smooth="yes"/>
      <point x="372" y="115"/>
      <point x="375" y="157"/>
      <point x="389" y="221" type="curve" smooth="yes"/>
      <point x="456" y="536" type="line"/>
      <point x="428" y="536" type="line"/>
      <point x="372" y="269" type="line" smooth="yes"/>
      <point x="350" y="163"/>
      <point x="272" y="16"/>
      <point x="166" y="16" type="curve" smooth="yes"/>
      <point x="121" y="16"/>
      <point x="94" y="47"/>
      <point x="94" y="100" type="curve" smooth="yes"/>
      <point x="94" y="129"/>
      <point x="108" y="187"/>
      <point x="118" y="230" type="curve" smooth="yes"/>
      <point x="191" y="536" type="line"/>
      <point x="71" y="536" type="line"/>
      <point x="66" y="516" type="line"/>
      <point x="88" y="516" type="line" smooth="yes"/>
      <point x="136" y="516"/>
      <point x="147" y="513"/>
      <point x="147" y="490" type="curve" smooth="yes"/>
      <point x="147" y="475"/>
      <point x="138" y="435"/>
      <point x="131" y="403" type="curve" smooth="yes"/>
      <point x="90" y="230" type="line" smooth="yes"/>
      <point x="80" y="189"/>
      <point x="66" y="135"/>
      <point x="66" y="102" type="curve" smooth="yes"/>
      <point x="66" y="43"/>
      <point x="94" y="-9"/>
      <point x="163" y="-9" type="curve" smooth="yes"/>
      <point x="238" y="-9"/>
      <point x="295" y="39"/>
      <point x="349" y="136" type="curve"/>
      <point x="351" y="136" type="line"/>
      <point x="347" y="105"/>
      <point x="347" y="94"/>
      <point x="347" y="83" type="curve" smooth="yes"/>
      <point x="347" y="33"/>
      <point x="360" y="-10"/>
    </contour>
  </outline>
</glyph>
<glyph name="v" format="2">
  <advance width="410"/>
  <unicode hex="0076"/>
  <anchor x="149" y="0" name="bottom"/>
  <anchor x="261" y="528" name="top"/>
  <anchor x="446" y="528" name="topright"/>
  <outline>
    <contour>
      <point x="132" y="0" type="line"/>
      <point x="153" y="0" type="line"/>
      <point x="459" y="528" type="line"/>
      <point x="430" y="528" type="line"/>
      <point x="205" y="138" type="line" smooth="yes"/>
      <point x="181" y="96"/>
      <point x="167" y="68"/>
      <point x="150" y="36" type="curve"/>
      <point x="148" y="36" type="line"/>
      <point x="145" y="69"/>
      <point x="142" y="95"/>
      <point x="135" y="138" type="curve" smooth="yes"/>
      <point x="76" y="528" type="line"/>
      <point x="50" y="528" type="line"/>
    </contour>
  </outline>
</glyph>
<glyph name="v.serif" format="2">
  <advance width="474"/>
  <unicode hex="0076"/>
  <anchor x="179" y="0" name="bottom"/>
  <anchor x="293" y="536" name="top"/>
  <anchor x="511" y="536" name="topright"/>
  <outline>
    <contour>
      <point x="102" y="455" type="curve" smooth="yes"/>
      <point x="170" y="-9" type="line"/>
      <point x="204" y="1" type="line"/>
      <point x="379" y="190"/>
      <point x="447" y="335"/>
      <point x="447" y="462" type="curve" smooth="yes"/>
      <point x="447" y="519"/>
      <point x="434" y="546"/>
      <point x="411" y="546" type="curve" smooth="yes"/>
      <point x="398" y="546"/>
      <point x="387" y="535"/>
      <point x="387" y="516" type="curve"/>
      <point x="401" y="516"/>
      <point x="417" y="506"/>
      <point x="417" y="443" type="curve" smooth="yes"/>
      <point x="417" y="341"/>
      <point x="354" y="201"/>
      <point x="194" y="25" type="curve"/>
      <point x="191" y="25" type="line"/>
      <point x="183" y="89"/>
      <point x="171" y="173"/>
      <point x="161" y="240" type="curve" smooth="yes"/>
      <point x="118" y="536" type="line"/>
      <point x="24" y="536" type="line"/>
      <point x="19" y="516" type="line"/>
      <point x="41" y="516" type="line" smooth="yes"/>
      <point x="87" y="516"/>
      <point x="93" y="513"/>
    </contour>
  </outline>
</glyph>
<glyph name="w" format="2">
  <advance width="651"/>
  <unicode hex="0077"/>
  <anchor x="270" y="0" name="bottom"/>
  <anchor x="382" y="528" name="top"/>
  <anchor x="687" y="528" name="topright"/>
  <outline>
    <contour>
      <point x="87" y="0" type="line"/>
      <point x="110" y="0" type="line"/>
      <point x="312" y="389" type="line" smooth="yes"/>
      <point x="328" y="419"/>
      <point x="341" y="447"/>
      <point x="358" y="483" type="curve"/>
      <point x="359" y="483" type="line"/>
      <point x="361" y="447"/>
      <point x="363" y="423"/>
      <point x="367" y="389" type="curve" smooth="yes"/>
      <point x="407" y="0" type="line"/>
      <point x="430" y="0" type="line"/>
      <point x="681" y="528" type="line"/>
      <point x="654" y="528" type="line"/>
      <point x="477" y="156" type="line" smooth="yes"/>
      <point x="451" y="100"/>
      <point x="438" y="73"/>
      <point x="427" y="42" type="curve"/>
      <point x="425" y="42" type="line"/>
      <point x="424" y="74"/>
      <point x="421" y="105"/>
      <point x="416" y="156" type="curve" smooth="yes"/>
      <point x="377" y="528" type="line"/>
      <point x="357" y="528" type="line"/>
      <point x="164" y="156" type="line" smooth="yes"/>
      <point x="132" y="95"/>
      <point x="122" y="73"/>
      <point x="108" y="42" type="curve"/>
      <point x="106" y="42" type="line"/>
      <point x="106" y="74"/>
      <point x="105" y="105"/>
      <point x="102" y="156" type="curve" smooth="yes"/>
      <point x="80" y="528" type="line"/>
      <point x="54" y="528" type="line"/>
    </contour>
  </outline>
</glyph>
<glyph name="w.serif" format="2">
  <advance width="755"/>
  <unicode hex="0077"/>
  <anchor x="324" y="0" name="bottom"/>
  <anchor x="438" y="536" name="top"/>
  <anchor x="792" y="536" name="topright"/>
  <outline>
    <contour>
      <point x="432" y="-14" type="curve"/>
      <point x="459" y="-5" type="line"/>
      <point x="663" y="240"/>
      <point x="722" y="368"/>
      <point x="722" y="467" type="curve" smooth="yes"/>
      <point x="722" y="519"/>
      <point x="709" y="546"/>
      <point x="686" y="546" type="curve" smooth="yes"/>
      <point x="673" y="546"/>
      <point x="662" y="535"/>
      <point x="662" y="516" type="curve"/>
      <point x="676" y="516"/>
      <point x="692" y="506"/>
      <point x="692" y="450" type="curve" smooth="yes"/>
      <point x="692" y="372"/>
      <point x="630" y="247"/>
      <point x="460" y="35" type="curve"/>
      <point x="457" y="35" type="line"/>
      <point x="457" y="137"/>
      <point x="441" y="431"/>
      <point x="434" y="531" type="curve"/>
      <point x="407" y="527" type="line"/>
      <point x="337" y="387"/>
      <point x="215" y="152"/>
      <point x="154" y="39" type="curve"/>
      <point x="151" y="39" type="line"/>
      <point x="150" y="145"/>
      <point x="142" y="394"/>
      <point x="140" y="536" type="curve"/>
      <point x="46" y="536" type="line"/>
      <point x="41" y="516" type="line"/>
      <point x="67" y="516" type="line" smooth="yes"/>
      <point x="110" y="516"/>
      <point x="113" y="513"/>
      <point x="114" y="456" type="curve" smooth="yes"/>
      <point x="125" y="-13" type="line"/>
      <point x="160" y="-4" type="line"/>
      <point x="234" y="134"/>
      <point x="362" y="380"/>
      <point x="411" y="479" type="curve"/>
      <point x="415" y="411"/>
      <point x="429" y="109"/>
    </contour>
  </outline>
</glyph>
<glyph name="x" format="2">
  <advance width="455"/>
  <unicode hex="0078"/>
  <anchor x="172" y="0" name="bottom"/>
  <anchor x="284" y="528" name="top"/>
  <anchor x="491" y="528" name="topright"/>
  <outline>
    <contour>
      <point x="-33" y="0" type="line"/>
      <point x="-1" y="0" type="line"/>
      <point x="220" y="253" type="line"/>
      <point x="340" y="0" type="line"/>
      <point x="369" y="0" type="line"/>
      <point x="239" y="271" type="line"/>
      <point x="469" y="528" type="line"/>
      <point x="437" y="528" type="line"/>
      <point x="225" y="291" type="line"/>
      <point x="116" y="528" type="line"/>
      <point x="86" y="528" type="line"/>
      <point x="206" y="273" type="line"/>
    </contour>
  </outline>
</glyph>
<glyph name="x.serif" format="2">
  <advance width="452"/>
  <unicode hex="0078"/>
  <anchor x="155" y="0" name="bottom"/>
  <anchor x="269" y="536" name="top"/>
  <anchor x="483" y="536" name="topright"/>
  <outline>
    <contour>
      <point x="-24" y="0" type="line"/>
      <point x="54" y="0" type="line"/>
      <point x="224" y="257" type="line"/>
      <point x="312" y="0" type="line"/>
      <point x="382" y="0" type="line"/>
      <point x="387" y="20" type="line"/>
      <point x="372" y="20" type="line" smooth="yes"/>
      <point x="333" y="20"/>
      <point x="332" y="24"/>
      <point x="319" y="60" type="curve" smooth="yes"/>
      <point x="242" y="281" type="line"/>
      <point x="361" y="462" type="line" smooth="yes"/>
      <point x="394" y="512"/>
      <point x="398" y="516"/>
      <point x="443" y="516" type="curve" smooth="yes"/>
      <point x="455" y="516" type="line"/>
      <point x="460" y="536" type="line"/>
      <point x="379" y="536" type="line"/>
      <point x="233" y="307" type="line"/>
      <point x="154" y="536" type="line"/>
      <point x="82" y="536" type="line"/>
      <point x="77" y="516" type="line"/>
      <point x="98" y="516" type="line" smooth="yes"/>
      <point x="132" y="516"/>
      <point x="135" y="513"/>
      <point x="153" y="462" type="curve" smooth="yes"/>
      <point x="215" y="283" type="line"/>
      <point x="70" y="71" type="line" smooth="yes"/>
      <point x="38" y="24"/>
      <point x="32" y="20"/>
      <point x="-6" y="20" type="curve" smooth="yes"/>
      <point x="-19" y="20" type="line"/>
    </contour>
  </outline>
</glyph>
<glyph name="y" format="2">
  <advance width="410"/>
  <unicode hex="0079"/>
  <anchor x="97" y="-243" name="bottom"/>
  <anchor x="261" y="528" name="top"/>
  <anchor x="446" y="528" name="topright"/>
  <outline>
    <contour>
      <point x="-57" y="-243" type="curve" smooth="yes"/>
      <point x="6" y="-243"/>
      <point x="50" y="-196"/>
      <point x="96" y="-115" type="curve" smooth="yes"/>
      <point x="459" y="528" type="line"/>
      <point x="430" y="528" type="line"/>
      <point x="228" y="168" type="line" smooth="yes"/>
      <point x="195" y="110"/>
      <point x="172" y="66"/>
      <point x="157" y="37" type="curve"/>
      <point x="155" y="37" type="line"/>
      <point x="152" y="67"/>
      <point x="145" y="110"/>
      <point x="135" y="172" type="curve" smooth="yes"/>
      <point x="76" y="528" type="line"/>
      <point x="50" y="528" type="line"/>
      <point x="138" y="7" type="line"/>
      <point x="74" y="-103" type="line" smooth="yes"/>
      <point x="28" y="-182"/>
      <point x="-7" y="-218"/>
      <point x="-55" y="-218" type="curve" smooth="yes"/>
      <point x="-82" y="-218"/>
      <point x="-98" y="-214"/>
      <point x="-114" y="-207" type="curve"/>
      <point x="-114" y="-233" type="line"/>
      <point x="-99" y="-240"/>
      <point x="-82" y="-243"/>
    </contour>
  </outline>
</glyph>
<glyph name="y.serif" format="2">
  <advance width="471"/>
  <unicode hex="0079"/>
  <anchor x="28" y="-240" name="bottom"/>
  <anchor x="263" y="536" name="top"/>
  <anchor x="468" y="536" name="topright"/>
  <outline>
    <contour>
      <point x="-55" y="-240" type="curve" smooth="yes"/>
      <point x="96" y="-240"/>
      <point x="162" y="-172"/>
      <point x="281" y="43" type="curve" smooth="yes"/>
      <point x="360" y="186"/>
      <point x="428" y="327"/>
      <point x="428" y="461" type="curve" smooth="yes"/>
      <point x="428" y="521"/>
      <point x="415" y="543"/>
      <point x="395" y="543" type="curve" smooth="yes"/>
      <point x="379" y="543"/>
      <point x="368" y="533"/>
      <point x="368" y="513" type="curve"/>
      <point x="379" y="513"/>
      <point x="398" y="508"/>
      <point x="398" y="441" type="curve" smooth="yes"/>
      <point x="398" y="337"/>
      <point x="335" y="186"/>
      <point x="259" y="54" type="curve"/>
      <point x="256" y="54" type="line"/>
      <point x="247" y="94"/>
      <point x="233" y="147"/>
      <point x="217" y="195" type="curve" smooth="yes"/>
      <point x="106" y="536" type="line"/>
      <point x="32" y="536" type="line"/>
      <point x="27" y="516" type="line"/>
      <point x="42" y="516" type="line" smooth="yes"/>
      <point x="81" y="516"/>
      <point x="84" y="514"/>
      <point x="101" y="463" type="curve" smooth="yes"/>
      <point x="243" y="24" type="line"/>
      <point x="140" y="-155"/>
      <point x="77" y="-215"/>
      <point x="-52" y="-215" type="curve" smooth="yes"/>
      <point x="-83" y="-215"/>
      <point x="-110" y="-208"/>
      <point x="-126" y="-199" type="curve"/>
      <point x="-135" y="-222" type="line"/>
      <point x="-114" y="-233"/>
      <point x="-83" y="-240"/>
    </contour>
  </outline>
</glyph>
<glyph name="z" format="2">
  <advance width="436"/>
  <unicode hex="007A"/>
  <anchor x="162" y="0" name="bottom"/>
  <anchor x="274" y="528" name="top"/>
  <anchor x="472" y="528" name="topright"/>
  <outline>
    <contour>
      <point x="-14" y="0" type="line"/>
      <point x="336" y="0" type="line"/>
      <point x="341" y="25" type="line"/>
      <point x="28" y="25" type="line"/>
      <point x="433" y="513" type="line"/>
      <point x="436" y="528" type="line"/>
      <point x="114" y="528" type="line"/>
      <point x="108" y="503" type="line"/>
      <point x="391" y="503" type="line"/>
      <point x="-11" y="17" type="line"/>
    </contour>
  </outline>
</glyph>
<glyph name="z.serif" format="2">
  <advance width="444"/>
  <unicode hex="007A"/>
  <anchor x="169" y="0" name="bottom"/>
  <anchor x="283" y="536" name="top"/>
  <anchor x="487" y="536" name="topright"/>
  <outline>
    <contour>
      <point x="1" y="0" type="line"/>
      <point x="325" y="0" type="line"/>
      <point x="358" y="138" type="line"/>
      <point x="338" y="138" type="line"/>
      <point x="323" y="85" type="line" smooth="yes"/>
      <point x="308" y="34"/>
      <point x="302" y="25"/>
      <point x="243" y="25" type="curve" smooth="yes"/>
      <point x="41" y="25" type="line"/>
      <point x="406" y="515" type="line"/>
      <point x="411" y="536" type="line"/>
      <point x="149" y="536" type="line"/>
      <point x="113" y="420" type="line"/>
      <point x="133" y="420" type="line"/>
      <point x="151" y="471" type="line" smooth="yes"/>
      <point x="164" y="508"/>
      <point x="166" y="511"/>
      <point x="218" y="511" type="curve" smooth="yes"/>
      <point x="371" y="511" type="line"/>
      <point x="6" y="21" type="line"/>
    </contour>
  </outline>
</glyph>
<glyph name="braceleft" format="2">
  <advance width="327"/>
  <unicode hex="007B"/>
  <outline>
    <contour>
      <point x="199" y="-158" type="curve" smooth="yes"/>
      <point x="207" y="-158" type="line"/>
      <point x="207" y="-133" type="line"/>
      <point x="127" y="-133"/>
      <point x="96" y="-118"/>
      <point x="96" y="-57" type="curve" smooth="yes"/>
      <point x="96" y="-45"/>
      <point x="98" y="-30"/>
      <point x="102" y="-13" type="curve" smooth="yes"/>
      <point x="138" y="154" type="line" smooth="yes"/>
      <point x="142" y="172"/>
      <point x="144" y="187"/>
      <point x="144" y="201" type="curve" smooth="yes"/>
      <point x="144" y="240"/>
      <point x="128" y="264"/>
      <point x="91" y="276" type="curve"/>
      <point x="91" y="278" type="line"/>
      <point x="147" y="289"/>
      <point x="176" y="336"/>
      <point x="190" y="403" type="curve" smooth="yes"/>
      <point x="226" y="573" type="line" smooth="yes"/>
      <point x="244" y="656"/>
      <point x="293" y="688"/>
      <point x="377" y="689" type="curve"/>
      <point x="382" y="714" type="line"/>
      <point x="376" y="714" type="line" smooth="yes"/>
      <point x="280" y="713"/>
      <point x="221" y="673"/>
      <point x="201" y="579" type="curve" smooth="yes"/>
      <point x="164" y="407" type="line" smooth="yes"/>
      <point x="146" y="322"/>
      <point x="113" y="290"/>
      <point x="32" y="290" type="curve"/>
      <point x="27" y="265" type="line"/>
      <point x="91" y="265"/>
      <point x="118" y="246"/>
      <point x="118" y="201" type="curve" smooth="yes"/>
      <point x="118" y="189"/>
      <point x="116" y="174"/>
      <point x="112" y="158" type="curve" smooth="yes"/>
      <point x="75" y="-11" type="line" smooth="yes"/>
      <point x="71" y="-29"/>
      <point x="69" y="-45"/>
      <point x="69" y="-59" type="curve" smooth="yes"/>
      <point x="69" y="-130"/>
      <point x="107" y="-158"/>
    </contour>
  </outline>
</glyph>
<glyph name="braceright" format="2">
  <advance width="327"/>
  <unicode hex="007D"/>
  <outline>
    <contour>
      <point x="-45" y="-134" type="curve"/>
      <point x="-50" y="-159" type="line"/>
      <point x="-44" y="-159" type="line" smooth="yes"/>
      <point x="52" y="-159"/>
      <point x="111" y="-118"/>
      <point x="131" y="-24" type="curve" smooth="yes"/>
      <point x="168" y="148" type="line" smooth="yes"/>
      <point x="186" y="233"/>
      <point x="219" y="265"/>
      <point x="300" y="265" type="curve"/>
      <point x="305" y="290" type="line"/>
      <point x="241" y="290"/>
      <point x="214" y="309"/>
      <point x="214" y="354" type="curve" smooth="yes"/>
      <point x="214" y="366"/>
      <point x="216" y="381"/>
      <point x="220" y="397" type="curve" smooth="yes"/>
      <point x="257" y="566" type="line" smooth="yes"/>
      <point x="261" y="584"/>
      <point x="263" y="600"/>
      <point x="263" y="614" type="curve" smooth="yes"/>
      <point x="263" y="685"/>
      <point x="225" y="713"/>
      <point x="133" y="713" type="curve" smooth="yes"/>
      <point x="125" y="713" type="line"/>
      <point x="125" y="688" type="line"/>
      <point x="205" y="688"/>
      <point x="236" y="673"/>
      <point x="236" y="612" type="curve" smooth="yes"/>
      <point x="236" y="600"/>
      <point x="234" y="585"/>
      <point x="230" y="568" type="curve" smooth="yes"/>
      <point x="194" y="401" type="line" smooth="yes"/>
      <point x="190" y="383"/>
      <point x="188" y="368"/>
      <point x="188" y="354" type="curve" smooth="yes"/>
      <point x="188" y="315"/>
      <point x="205" y="291"/>
      <point x="241" y="279" type="curve"/>
      <point x="241" y="277" type="line"/>
      <point x="185" y="266"/>
      <point x="156" y="219"/>
      <point x="142" y="152" type="curve" smooth="yes"/>
      <point x="106" y="-18" type="line" smooth="yes"/>
      <point x="88" y="-101"/>
      <point x="39" y="-133"/>
    </contour>
  </outline>
</glyph>
<glyph name="asciitilde" format="2">
  <advance width="570"/>
  <unicode hex="007E"/>
  <outline>
    <contour>
      <point x="302" y="342" type="curve" smooth="yes"/>
      <point x="342" y="322"/>
      <point x="372" y="309"/>
      <point x="420" y="309" type="curve" smooth="yes"/>
      <point x="468" y="309"/>
      <point x="509" y="331"/>
      <point x="534" y="358" type="curve"/>
      <point x="534" y="387" type="line"/>
      <point x="494" y="345"/>
      <point x="456" y="333"/>
      <point x="420" y="333" type="curve" smooth="yes"/>
      <point x="379" y="333"/>
      <point x="351" y="346"/>
      <point x="315" y="364" type="curve" smooth="yes"/>
      <point x="277" y="383"/>
      <point x="249" y="397"/>
      <point x="193" y="397" type="curve" smooth="yes"/>
      <point x="149" y="397"/>
      <point x="106" y="378"/>
      <point x="76" y="349" type="curve"/>
      <point x="76" y="318" type="line"/>
      <point x="114" y="358"/>
      <point x="154" y="373"/>
      <point x="193" y="373" type="curve" smooth="yes"/>
      <point x="240" y="373"/>
      <point x="266" y="360"/>
    </contour>
  </outline>
</glyph>
<glyph name="exclamdown" format="2">
  <advance width="210"/>
  <unicode hex="00A1"/>
  <outline>
    <contour>
      <point x="-5" y="-182" type="line"/>
      <point x="23" y="-182" type="line"/>
      <point x="137" y="354" type="line"/>
      <point x="113" y="354" type="line"/>
    </contour>
    <contour>
      <point x="152" y="474" type="curve" smooth="yes"/>
      <point x="172" y="474"/>
      <point x="182" y="496"/>
      <point x="182" y="514" type="curve" smooth="yes"/>
      <point x="182" y="528"/>
      <point x="173" y="536"/>
      <point x="159" y="536" type="curve" smooth="yes"/>
      <point x="140" y="536"/>
      <point x="130" y="514"/>
      <point x="130" y="496" type="curve" smooth="yes"/>
      <point x="130" y="485"/>
      <point x="136" y="474"/>
    </contour>
  </outline>
</glyph>
<glyph name="exclamdown.serif" format="2">
  <advance width="254"/>
  <unicode hex="00A1"/>
  <outline>
    <contour>
      <point x="7" y="-180" type="line"/>
      <point x="37" y="-180" type="line"/>
      <point x="147" y="347" type="line"/>
      <point x="123" y="347" type="line"/>
    </contour>
    <contour>
      <point x="168" y="482" type="curve" smooth="yes"/>
      <point x="184" y="482"/>
      <point x="195" y="496"/>
      <point x="195" y="516" type="curve" smooth="yes"/>
      <point x="195" y="533"/>
      <point x="184" y="542"/>
      <point x="170" y="542" type="curve" smooth="yes"/>
      <point x="156" y="542"/>
      <point x="143" y="533"/>
      <point x="143" y="509" type="curve" smooth="yes"/>
      <point x="143" y="492"/>
      <point x="153" y="482"/>
    </contour>
  </outline>
</glyph>
